solid OpenSCAD_Model
  facet normal -0.997872 -0.0652057 0
    outer loop
      vertex -34.3 20 0
      vertex -34.3145 20.2219 7.9
      vertex -34.3145 20.2219 0
    endloop
  endfacet
  facet normal -0.997872 -0.0652057 0
    outer loop
      vertex -34.3145 20.2219 7.9
      vertex -34.3 20 0
      vertex -34.3 20 7.9
    endloop
  endfacet
  facet normal 0.0652057 -0.997872 0
    outer loop
      vertex -36.2219 21.6855 0
      vertex -36 21.7 7.9
      vertex -36.2219 21.6855 7.9
    endloop
  endfacet
  facet normal 0.0652057 -0.997872 0
    outer loop
      vertex -36 21.7 7.9
      vertex -36.2219 21.6855 0
      vertex -36 21.7 0
    endloop
  endfacet
  facet normal -0.0652057 0.997872 0
    outer loop
      vertex -35.7781 18.3145 0
      vertex -36 18.3 7.9
      vertex -35.7781 18.3145 7.9
    endloop
  endfacet
  facet normal -0.0652057 0.997872 0
    outer loop
      vertex -36 18.3 7.9
      vertex -35.7781 18.3145 0
      vertex -36 18.3 0
    endloop
  endfacet
  facet normal -0.659268 -0.751908 0
    outer loop
      vertex -34.9651 21.3487 0
      vertex -34.7979 21.2021 7.9
      vertex -34.9651 21.3487 7.9
    endloop
  endfacet
  facet normal -0.659268 -0.751908 -0
    outer loop
      vertex -34.7979 21.2021 7.9
      vertex -34.9651 21.3487 0
      vertex -34.7979 21.2021 0
    endloop
  endfacet
  facet normal 0.751908 -0.659268 0
    outer loop
      vertex -37.3487 21.0349 7.9
      vertex -37.2021 21.2021 0
      vertex -37.2021 21.2021 7.9
    endloop
  endfacet
  facet normal 0.751908 -0.659268 0
    outer loop
      vertex -37.2021 21.2021 0
      vertex -37.3487 21.0349 7.9
      vertex -37.3487 21.0349 0
    endloop
  endfacet
  facet normal 0.44253 -0.896754 0
    outer loop
      vertex -36.85 21.4722 0
      vertex -36.6506 21.5706 7.9
      vertex -36.85 21.4722 7.9
    endloop
  endfacet
  facet normal 0.44253 -0.896754 0
    outer loop
      vertex -36.6506 21.5706 7.9
      vertex -36.85 21.4722 0
      vertex -36.6506 21.5706 0
    endloop
  endfacet
  facet normal -0.896754 -0.44253 0
    outer loop
      vertex -34.4294 20.6506 0
      vertex -34.5278 20.85 7.9
      vertex -34.5278 20.85 0
    endloop
  endfacet
  facet normal -0.896754 -0.44253 0
    outer loop
      vertex -34.5278 20.85 7.9
      vertex -34.4294 20.6506 0
      vertex -34.4294 20.6506 7.9
    endloop
  endfacet
  facet normal -0.98077 -0.195165 0
    outer loop
      vertex -34.3145 20.2219 0
      vertex -34.3579 20.44 7.9
      vertex -34.3579 20.44 0
    endloop
  endfacet
  facet normal -0.98077 -0.195165 0
    outer loop
      vertex -34.3579 20.44 7.9
      vertex -34.3145 20.2219 0
      vertex -34.3145 20.2219 7.9
    endloop
  endfacet
  facet normal -0.831566 -0.555426 0
    outer loop
      vertex -34.5278 20.85 0
      vertex -34.6513 21.0349 7.9
      vertex -34.6513 21.0349 0
    endloop
  endfacet
  facet normal -0.831566 -0.555426 0
    outer loop
      vertex -34.6513 21.0349 7.9
      vertex -34.5278 20.85 0
      vertex -34.5278 20.85 7.9
    endloop
  endfacet
  facet normal -0.321484 -0.946915 0
    outer loop
      vertex -35.56 21.6421 0
      vertex -35.3494 21.5706 7.9
      vertex -35.56 21.6421 7.9
    endloop
  endfacet
  facet normal -0.321484 -0.946915 -0
    outer loop
      vertex -35.3494 21.5706 7.9
      vertex -35.56 21.6421 0
      vertex -35.3494 21.5706 0
    endloop
  endfacet
  facet normal -0.44253 -0.896754 0
    outer loop
      vertex -35.3494 21.5706 0
      vertex -35.15 21.4722 7.9
      vertex -35.3494 21.5706 7.9
    endloop
  endfacet
  facet normal -0.44253 -0.896754 -0
    outer loop
      vertex -35.15 21.4722 7.9
      vertex -35.3494 21.5706 0
      vertex -35.15 21.4722 0
    endloop
  endfacet
  facet normal 0.946915 -0.321484 0
    outer loop
      vertex -37.6421 20.44 7.9
      vertex -37.5706 20.6506 0
      vertex -37.5706 20.6506 7.9
    endloop
  endfacet
  facet normal 0.946915 -0.321484 0
    outer loop
      vertex -37.5706 20.6506 0
      vertex -37.6421 20.44 7.9
      vertex -37.6421 20.44 0
    endloop
  endfacet
  facet normal 0.555426 -0.831566 0
    outer loop
      vertex -37.0349 21.3487 0
      vertex -36.85 21.4722 7.9
      vertex -37.0349 21.3487 7.9
    endloop
  endfacet
  facet normal 0.555426 -0.831566 0
    outer loop
      vertex -36.85 21.4722 7.9
      vertex -37.0349 21.3487 0
      vertex -36.85 21.4722 0
    endloop
  endfacet
  facet normal 0.195165 -0.98077 0
    outer loop
      vertex -36.44 21.6421 0
      vertex -36.2219 21.6855 7.9
      vertex -36.44 21.6421 7.9
    endloop
  endfacet
  facet normal 0.195165 -0.98077 0
    outer loop
      vertex -36.2219 21.6855 7.9
      vertex -36.44 21.6421 0
      vertex -36.2219 21.6855 0
    endloop
  endfacet
  facet normal -0.195165 0.98077 0
    outer loop
      vertex -35.56 18.3579 0
      vertex -35.7781 18.3145 7.9
      vertex -35.56 18.3579 7.9
    endloop
  endfacet
  facet normal -0.195165 0.98077 0
    outer loop
      vertex -35.7781 18.3145 7.9
      vertex -35.56 18.3579 0
      vertex -35.7781 18.3145 0
    endloop
  endfacet
  facet normal -0.44253 0.896754 0
    outer loop
      vertex -35.15 18.5278 0
      vertex -35.3494 18.4294 7.9
      vertex -35.15 18.5278 7.9
    endloop
  endfacet
  facet normal -0.44253 0.896754 0
    outer loop
      vertex -35.3494 18.4294 7.9
      vertex -35.15 18.5278 0
      vertex -35.3494 18.4294 0
    endloop
  endfacet
  facet normal -0.946915 -0.321484 0
    outer loop
      vertex -34.3579 20.44 0
      vertex -34.4294 20.6506 7.9
      vertex -34.4294 20.6506 0
    endloop
  endfacet
  facet normal -0.946915 -0.321484 0
    outer loop
      vertex -34.4294 20.6506 7.9
      vertex -34.3579 20.44 0
      vertex -34.3579 20.44 7.9
    endloop
  endfacet
  facet normal -0.751908 -0.659268 0
    outer loop
      vertex -34.6513 21.0349 0
      vertex -34.7979 21.2021 7.9
      vertex -34.7979 21.2021 0
    endloop
  endfacet
  facet normal -0.751908 -0.659268 0
    outer loop
      vertex -34.7979 21.2021 7.9
      vertex -34.6513 21.0349 0
      vertex -34.6513 21.0349 7.9
    endloop
  endfacet
  facet normal -0.195165 -0.98077 0
    outer loop
      vertex -35.7781 21.6855 0
      vertex -35.56 21.6421 7.9
      vertex -35.7781 21.6855 7.9
    endloop
  endfacet
  facet normal -0.195165 -0.98077 -0
    outer loop
      vertex -35.56 21.6421 7.9
      vertex -35.7781 21.6855 0
      vertex -35.56 21.6421 0
    endloop
  endfacet
  facet normal -0.0652057 -0.997872 0
    outer loop
      vertex -36 21.7 0
      vertex -35.7781 21.6855 7.9
      vertex -36 21.7 7.9
    endloop
  endfacet
  facet normal -0.0652057 -0.997872 -0
    outer loop
      vertex -35.7781 21.6855 7.9
      vertex -36 21.7 0
      vertex -35.7781 21.6855 0
    endloop
  endfacet
  facet normal -0.555426 -0.831566 0
    outer loop
      vertex -35.15 21.4722 0
      vertex -34.9651 21.3487 7.9
      vertex -35.15 21.4722 7.9
    endloop
  endfacet
  facet normal -0.555426 -0.831566 -0
    outer loop
      vertex -34.9651 21.3487 7.9
      vertex -35.15 21.4722 0
      vertex -34.9651 21.3487 0
    endloop
  endfacet
  facet normal 0.896754 -0.44253 0
    outer loop
      vertex -37.5706 20.6506 7.9
      vertex -37.4722 20.85 0
      vertex -37.4722 20.85 7.9
    endloop
  endfacet
  facet normal 0.896754 -0.44253 0
    outer loop
      vertex -37.4722 20.85 0
      vertex -37.5706 20.6506 7.9
      vertex -37.5706 20.6506 0
    endloop
  endfacet
  facet normal 0.831566 -0.555426 0
    outer loop
      vertex -37.4722 20.85 7.9
      vertex -37.3487 21.0349 0
      vertex -37.3487 21.0349 7.9
    endloop
  endfacet
  facet normal 0.831566 -0.555426 0
    outer loop
      vertex -37.3487 21.0349 0
      vertex -37.4722 20.85 7.9
      vertex -37.4722 20.85 0
    endloop
  endfacet
  facet normal 0.98077 -0.195165 0
    outer loop
      vertex -37.6855 20.2219 7.9
      vertex -37.6421 20.44 0
      vertex -37.6421 20.44 7.9
    endloop
  endfacet
  facet normal 0.98077 -0.195165 0
    outer loop
      vertex -37.6421 20.44 0
      vertex -37.6855 20.2219 7.9
      vertex -37.6855 20.2219 0
    endloop
  endfacet
  facet normal 0.997872 -0.0652057 0
    outer loop
      vertex -37.7 20 7.9
      vertex -37.6855 20.2219 0
      vertex -37.6855 20.2219 7.9
    endloop
  endfacet
  facet normal 0.997872 -0.0652057 0
    outer loop
      vertex -37.6855 20.2219 0
      vertex -37.7 20 7.9
      vertex -37.7 20 0
    endloop
  endfacet
  facet normal 0.997872 0.0652057 0
    outer loop
      vertex -37.6855 19.7781 7.9
      vertex -37.7 20 0
      vertex -37.7 20 7.9
    endloop
  endfacet
  facet normal 0.997872 0.0652057 0
    outer loop
      vertex -37.7 20 0
      vertex -37.6855 19.7781 7.9
      vertex -37.6855 19.7781 0
    endloop
  endfacet
  facet normal 0.659268 -0.751908 0
    outer loop
      vertex -37.2021 21.2021 0
      vertex -37.0349 21.3487 7.9
      vertex -37.2021 21.2021 7.9
    endloop
  endfacet
  facet normal 0.659268 -0.751908 0
    outer loop
      vertex -37.0349 21.3487 7.9
      vertex -37.2021 21.2021 0
      vertex -37.0349 21.3487 0
    endloop
  endfacet
  facet normal 0.321484 -0.946915 0
    outer loop
      vertex -36.6506 21.5706 0
      vertex -36.44 21.6421 7.9
      vertex -36.6506 21.5706 7.9
    endloop
  endfacet
  facet normal 0.321484 -0.946915 0
    outer loop
      vertex -36.44 21.6421 7.9
      vertex -36.6506 21.5706 0
      vertex -36.44 21.6421 0
    endloop
  endfacet
  facet normal -0.997872 0.0652057 0
    outer loop
      vertex -34.3145 19.7781 0
      vertex -34.3 20 7.9
      vertex -34.3 20 0
    endloop
  endfacet
  facet normal -0.997872 0.0652057 0
    outer loop
      vertex -34.3 20 7.9
      vertex -34.3145 19.7781 0
      vertex -34.3145 19.7781 7.9
    endloop
  endfacet
  facet normal -0.946915 0.321484 0
    outer loop
      vertex -34.4294 19.3494 0
      vertex -34.3579 19.56 7.9
      vertex -34.3579 19.56 0
    endloop
  endfacet
  facet normal -0.946915 0.321484 0
    outer loop
      vertex -34.3579 19.56 7.9
      vertex -34.4294 19.3494 0
      vertex -34.4294 19.3494 7.9
    endloop
  endfacet
  facet normal -0.98077 0.195165 0
    outer loop
      vertex -34.3579 19.56 0
      vertex -34.3145 19.7781 7.9
      vertex -34.3145 19.7781 0
    endloop
  endfacet
  facet normal -0.98077 0.195165 0
    outer loop
      vertex -34.3145 19.7781 7.9
      vertex -34.3579 19.56 0
      vertex -34.3579 19.56 7.9
    endloop
  endfacet
  facet normal 0.555426 0.831566 -0
    outer loop
      vertex -36.85 18.5278 0
      vertex -37.0349 18.6513 7.9
      vertex -36.85 18.5278 7.9
    endloop
  endfacet
  facet normal 0.555426 0.831566 0
    outer loop
      vertex -37.0349 18.6513 7.9
      vertex -36.85 18.5278 0
      vertex -37.0349 18.6513 0
    endloop
  endfacet
  facet normal 0.831566 0.555426 0
    outer loop
      vertex -37.3487 18.9651 7.9
      vertex -37.4722 19.15 0
      vertex -37.4722 19.15 7.9
    endloop
  endfacet
  facet normal 0.831566 0.555426 0
    outer loop
      vertex -37.4722 19.15 0
      vertex -37.3487 18.9651 7.9
      vertex -37.3487 18.9651 0
    endloop
  endfacet
  facet normal 0.751908 0.659268 0
    outer loop
      vertex -37.2021 18.7979 7.9
      vertex -37.3487 18.9651 0
      vertex -37.3487 18.9651 7.9
    endloop
  endfacet
  facet normal 0.751908 0.659268 0
    outer loop
      vertex -37.3487 18.9651 0
      vertex -37.2021 18.7979 7.9
      vertex -37.2021 18.7979 0
    endloop
  endfacet
  facet normal -0.555426 0.831566 0
    outer loop
      vertex -34.9651 18.6513 0
      vertex -35.15 18.5278 7.9
      vertex -34.9651 18.6513 7.9
    endloop
  endfacet
  facet normal -0.555426 0.831566 0
    outer loop
      vertex -35.15 18.5278 7.9
      vertex -34.9651 18.6513 0
      vertex -35.15 18.5278 0
    endloop
  endfacet
  facet normal 0.195165 0.98077 -0
    outer loop
      vertex -36.2219 18.3145 0
      vertex -36.44 18.3579 7.9
      vertex -36.2219 18.3145 7.9
    endloop
  endfacet
  facet normal 0.195165 0.98077 0
    outer loop
      vertex -36.44 18.3579 7.9
      vertex -36.2219 18.3145 0
      vertex -36.44 18.3579 0
    endloop
  endfacet
  facet normal 0.659268 0.751908 -0
    outer loop
      vertex -37.0349 18.6513 0
      vertex -37.2021 18.7979 7.9
      vertex -37.0349 18.6513 7.9
    endloop
  endfacet
  facet normal 0.659268 0.751908 0
    outer loop
      vertex -37.2021 18.7979 7.9
      vertex -37.0349 18.6513 0
      vertex -37.2021 18.7979 0
    endloop
  endfacet
  facet normal 0.946915 0.321484 0
    outer loop
      vertex -37.5706 19.3494 7.9
      vertex -37.6421 19.56 0
      vertex -37.6421 19.56 7.9
    endloop
  endfacet
  facet normal 0.946915 0.321484 0
    outer loop
      vertex -37.6421 19.56 0
      vertex -37.5706 19.3494 7.9
      vertex -37.5706 19.3494 0
    endloop
  endfacet
  facet normal 0.98077 0.195165 0
    outer loop
      vertex -37.6421 19.56 7.9
      vertex -37.6855 19.7781 0
      vertex -37.6855 19.7781 7.9
    endloop
  endfacet
  facet normal 0.98077 0.195165 0
    outer loop
      vertex -37.6855 19.7781 0
      vertex -37.6421 19.56 7.9
      vertex -37.6421 19.56 0
    endloop
  endfacet
  facet normal 0.896754 0.44253 0
    outer loop
      vertex -37.4722 19.15 7.9
      vertex -37.5706 19.3494 0
      vertex -37.5706 19.3494 7.9
    endloop
  endfacet
  facet normal 0.896754 0.44253 0
    outer loop
      vertex -37.5706 19.3494 0
      vertex -37.4722 19.15 7.9
      vertex -37.4722 19.15 0
    endloop
  endfacet
  facet normal -0.659268 0.751908 0
    outer loop
      vertex -34.7979 18.7979 0
      vertex -34.9651 18.6513 7.9
      vertex -34.7979 18.7979 7.9
    endloop
  endfacet
  facet normal -0.659268 0.751908 0
    outer loop
      vertex -34.9651 18.6513 7.9
      vertex -34.7979 18.7979 0
      vertex -34.9651 18.6513 0
    endloop
  endfacet
  facet normal -0.321484 0.946915 0
    outer loop
      vertex -35.3494 18.4294 0
      vertex -35.56 18.3579 7.9
      vertex -35.3494 18.4294 7.9
    endloop
  endfacet
  facet normal -0.321484 0.946915 0
    outer loop
      vertex -35.56 18.3579 7.9
      vertex -35.3494 18.4294 0
      vertex -35.56 18.3579 0
    endloop
  endfacet
  facet normal -0.896754 0.44253 0
    outer loop
      vertex -34.5278 19.15 0
      vertex -34.4294 19.3494 7.9
      vertex -34.4294 19.3494 0
    endloop
  endfacet
  facet normal -0.896754 0.44253 0
    outer loop
      vertex -34.4294 19.3494 7.9
      vertex -34.5278 19.15 0
      vertex -34.5278 19.15 7.9
    endloop
  endfacet
  facet normal -0.831566 0.555426 0
    outer loop
      vertex -34.6513 18.9651 0
      vertex -34.5278 19.15 7.9
      vertex -34.5278 19.15 0
    endloop
  endfacet
  facet normal -0.831566 0.555426 0
    outer loop
      vertex -34.5278 19.15 7.9
      vertex -34.6513 18.9651 0
      vertex -34.6513 18.9651 7.9
    endloop
  endfacet
  facet normal 0.0652057 0.997872 -0
    outer loop
      vertex -36 18.3 0
      vertex -36.2219 18.3145 7.9
      vertex -36 18.3 7.9
    endloop
  endfacet
  facet normal 0.0652057 0.997872 0
    outer loop
      vertex -36.2219 18.3145 7.9
      vertex -36 18.3 0
      vertex -36.2219 18.3145 0
    endloop
  endfacet
  facet normal 0.321484 0.946915 -0
    outer loop
      vertex -36.44 18.3579 0
      vertex -36.6506 18.4294 7.9
      vertex -36.44 18.3579 7.9
    endloop
  endfacet
  facet normal 0.321484 0.946915 0
    outer loop
      vertex -36.6506 18.4294 7.9
      vertex -36.44 18.3579 0
      vertex -36.6506 18.4294 0
    endloop
  endfacet
  facet normal -0.751908 0.659268 0
    outer loop
      vertex -34.7979 18.7979 0
      vertex -34.6513 18.9651 7.9
      vertex -34.6513 18.9651 0
    endloop
  endfacet
  facet normal -0.751908 0.659268 0
    outer loop
      vertex -34.6513 18.9651 7.9
      vertex -34.7979 18.7979 0
      vertex -34.7979 18.7979 7.9
    endloop
  endfacet
  facet normal 0.44253 0.896754 -0
    outer loop
      vertex -36.6506 18.4294 0
      vertex -36.85 18.5278 7.9
      vertex -36.6506 18.4294 7.9
    endloop
  endfacet
  facet normal 0.44253 0.896754 0
    outer loop
      vertex -36.85 18.5278 7.9
      vertex -36.6506 18.4294 0
      vertex -36.85 18.5278 0
    endloop
  endfacet
  facet normal -0.831566 -0.555426 0
    outer loop
      vertex 37.4722 20.85 0
      vertex 37.3487 21.0349 7.9
      vertex 37.3487 21.0349 0
    endloop
  endfacet
  facet normal -0.831566 -0.555426 0
    outer loop
      vertex 37.3487 21.0349 7.9
      vertex 37.4722 20.85 0
      vertex 37.4722 20.85 7.9
    endloop
  endfacet
  facet normal -0.321484 -0.946915 0
    outer loop
      vertex 36.44 21.6421 0
      vertex 36.6506 21.5706 7.9
      vertex 36.44 21.6421 7.9
    endloop
  endfacet
  facet normal -0.321484 -0.946915 -0
    outer loop
      vertex 36.6506 21.5706 7.9
      vertex 36.44 21.6421 0
      vertex 36.6506 21.5706 0
    endloop
  endfacet
  facet normal 0.44253 -0.896754 0
    outer loop
      vertex 35.15 21.4722 0
      vertex 35.3494 21.5706 7.9
      vertex 35.15 21.4722 7.9
    endloop
  endfacet
  facet normal 0.44253 -0.896754 0
    outer loop
      vertex 35.3494 21.5706 7.9
      vertex 35.15 21.4722 0
      vertex 35.3494 21.5706 0
    endloop
  endfacet
  facet normal 0.946915 -0.321484 0
    outer loop
      vertex 34.3579 20.44 7.9
      vertex 34.4294 20.6506 0
      vertex 34.4294 20.6506 7.9
    endloop
  endfacet
  facet normal 0.946915 -0.321484 0
    outer loop
      vertex 34.4294 20.6506 0
      vertex 34.3579 20.44 7.9
      vertex 34.3579 20.44 0
    endloop
  endfacet
  facet normal -0.98077 0.195165 0
    outer loop
      vertex 37.6421 19.56 0
      vertex 37.6855 19.7781 7.9
      vertex 37.6855 19.7781 0
    endloop
  endfacet
  facet normal -0.98077 0.195165 0
    outer loop
      vertex 37.6855 19.7781 7.9
      vertex 37.6421 19.56 0
      vertex 37.6421 19.56 7.9
    endloop
  endfacet
  facet normal 0.0652057 -0.997872 0
    outer loop
      vertex 35.7781 21.6855 0
      vertex 36 21.7 7.9
      vertex 35.7781 21.6855 7.9
    endloop
  endfacet
  facet normal 0.0652057 -0.997872 0
    outer loop
      vertex 36 21.7 7.9
      vertex 35.7781 21.6855 0
      vertex 36 21.7 0
    endloop
  endfacet
  facet normal -0.44253 -0.896754 0
    outer loop
      vertex 36.6506 21.5706 0
      vertex 36.85 21.4722 7.9
      vertex 36.6506 21.5706 7.9
    endloop
  endfacet
  facet normal -0.44253 -0.896754 -0
    outer loop
      vertex 36.85 21.4722 7.9
      vertex 36.6506 21.5706 0
      vertex 36.85 21.4722 0
    endloop
  endfacet
  facet normal 0.997872 0.0652057 0
    outer loop
      vertex 34.3145 19.7781 7.9
      vertex 34.3 20 0
      vertex 34.3 20 7.9
    endloop
  endfacet
  facet normal 0.997872 0.0652057 0
    outer loop
      vertex 34.3 20 0
      vertex 34.3145 19.7781 7.9
      vertex 34.3145 19.7781 0
    endloop
  endfacet
  facet normal 0.831566 -0.555426 0
    outer loop
      vertex 34.5278 20.85 7.9
      vertex 34.6513 21.0349 0
      vertex 34.6513 21.0349 7.9
    endloop
  endfacet
  facet normal 0.831566 -0.555426 0
    outer loop
      vertex 34.6513 21.0349 0
      vertex 34.5278 20.85 7.9
      vertex 34.5278 20.85 0
    endloop
  endfacet
  facet normal 0.555426 -0.831566 0
    outer loop
      vertex 34.9651 21.3487 0
      vertex 35.15 21.4722 7.9
      vertex 34.9651 21.3487 7.9
    endloop
  endfacet
  facet normal 0.555426 -0.831566 0
    outer loop
      vertex 35.15 21.4722 7.9
      vertex 34.9651 21.3487 0
      vertex 35.15 21.4722 0
    endloop
  endfacet
  facet normal 0.195165 -0.98077 0
    outer loop
      vertex 35.56 21.6421 0
      vertex 35.7781 21.6855 7.9
      vertex 35.56 21.6421 7.9
    endloop
  endfacet
  facet normal 0.195165 -0.98077 0
    outer loop
      vertex 35.7781 21.6855 7.9
      vertex 35.56 21.6421 0
      vertex 35.7781 21.6855 0
    endloop
  endfacet
  facet normal -0.997872 -0.0652057 0
    outer loop
      vertex 37.7 20 0
      vertex 37.6855 20.2219 7.9
      vertex 37.6855 20.2219 0
    endloop
  endfacet
  facet normal -0.997872 -0.0652057 0
    outer loop
      vertex 37.6855 20.2219 7.9
      vertex 37.7 20 0
      vertex 37.7 20 7.9
    endloop
  endfacet
  facet normal -0.946915 0.321484 0
    outer loop
      vertex 37.5706 19.3494 0
      vertex 37.6421 19.56 7.9
      vertex 37.6421 19.56 0
    endloop
  endfacet
  facet normal -0.946915 0.321484 0
    outer loop
      vertex 37.6421 19.56 7.9
      vertex 37.5706 19.3494 0
      vertex 37.5706 19.3494 7.9
    endloop
  endfacet
  facet normal 0.555426 0.831566 -0
    outer loop
      vertex 35.15 18.5278 0
      vertex 34.9651 18.6513 7.9
      vertex 35.15 18.5278 7.9
    endloop
  endfacet
  facet normal 0.555426 0.831566 0
    outer loop
      vertex 34.9651 18.6513 7.9
      vertex 35.15 18.5278 0
      vertex 34.9651 18.6513 0
    endloop
  endfacet
  facet normal 0.831566 0.555426 0
    outer loop
      vertex 34.6513 18.9651 7.9
      vertex 34.5278 19.15 0
      vertex 34.5278 19.15 7.9
    endloop
  endfacet
  facet normal 0.831566 0.555426 0
    outer loop
      vertex 34.5278 19.15 0
      vertex 34.6513 18.9651 7.9
      vertex 34.6513 18.9651 0
    endloop
  endfacet
  facet normal -0.555426 0.831566 0
    outer loop
      vertex 37.0349 18.6513 0
      vertex 36.85 18.5278 7.9
      vertex 37.0349 18.6513 7.9
    endloop
  endfacet
  facet normal -0.555426 0.831566 0
    outer loop
      vertex 36.85 18.5278 7.9
      vertex 37.0349 18.6513 0
      vertex 36.85 18.5278 0
    endloop
  endfacet
  facet normal -0.659268 -0.751908 0
    outer loop
      vertex 37.0349 21.3487 0
      vertex 37.2021 21.2021 7.9
      vertex 37.0349 21.3487 7.9
    endloop
  endfacet
  facet normal -0.659268 -0.751908 -0
    outer loop
      vertex 37.2021 21.2021 7.9
      vertex 37.0349 21.3487 0
      vertex 37.2021 21.2021 0
    endloop
  endfacet
  facet normal -0.751908 -0.659268 0
    outer loop
      vertex 37.3487 21.0349 0
      vertex 37.2021 21.2021 7.9
      vertex 37.2021 21.2021 0
    endloop
  endfacet
  facet normal -0.751908 -0.659268 0
    outer loop
      vertex 37.2021 21.2021 7.9
      vertex 37.3487 21.0349 0
      vertex 37.3487 21.0349 7.9
    endloop
  endfacet
  facet normal -0.195165 -0.98077 0
    outer loop
      vertex 36.2219 21.6855 0
      vertex 36.44 21.6421 7.9
      vertex 36.2219 21.6855 7.9
    endloop
  endfacet
  facet normal -0.195165 -0.98077 -0
    outer loop
      vertex 36.44 21.6421 7.9
      vertex 36.2219 21.6855 0
      vertex 36.44 21.6421 0
    endloop
  endfacet
  facet normal -0.0652057 -0.997872 0
    outer loop
      vertex 36 21.7 0
      vertex 36.2219 21.6855 7.9
      vertex 36 21.7 7.9
    endloop
  endfacet
  facet normal -0.0652057 -0.997872 -0
    outer loop
      vertex 36.2219 21.6855 7.9
      vertex 36 21.7 0
      vertex 36.2219 21.6855 0
    endloop
  endfacet
  facet normal -0.555426 -0.831566 0
    outer loop
      vertex 36.85 21.4722 0
      vertex 37.0349 21.3487 7.9
      vertex 36.85 21.4722 7.9
    endloop
  endfacet
  facet normal -0.555426 -0.831566 -0
    outer loop
      vertex 37.0349 21.3487 7.9
      vertex 36.85 21.4722 0
      vertex 37.0349 21.3487 0
    endloop
  endfacet
  facet normal 0.98077 -0.195165 0
    outer loop
      vertex 34.3145 20.2219 7.9
      vertex 34.3579 20.44 0
      vertex 34.3579 20.44 7.9
    endloop
  endfacet
  facet normal 0.98077 -0.195165 0
    outer loop
      vertex 34.3579 20.44 0
      vertex 34.3145 20.2219 7.9
      vertex 34.3145 20.2219 0
    endloop
  endfacet
  facet normal 0.997872 -0.0652057 0
    outer loop
      vertex 34.3 20 7.9
      vertex 34.3145 20.2219 0
      vertex 34.3145 20.2219 7.9
    endloop
  endfacet
  facet normal 0.997872 -0.0652057 0
    outer loop
      vertex 34.3145 20.2219 0
      vertex 34.3 20 7.9
      vertex 34.3 20 0
    endloop
  endfacet
  facet normal 0.896754 -0.44253 0
    outer loop
      vertex 34.4294 20.6506 7.9
      vertex 34.5278 20.85 0
      vertex 34.5278 20.85 7.9
    endloop
  endfacet
  facet normal 0.896754 -0.44253 0
    outer loop
      vertex 34.5278 20.85 0
      vertex 34.4294 20.6506 7.9
      vertex 34.4294 20.6506 0
    endloop
  endfacet
  facet normal 0.321484 -0.946915 0
    outer loop
      vertex 35.3494 21.5706 0
      vertex 35.56 21.6421 7.9
      vertex 35.3494 21.5706 7.9
    endloop
  endfacet
  facet normal 0.321484 -0.946915 0
    outer loop
      vertex 35.56 21.6421 7.9
      vertex 35.3494 21.5706 0
      vertex 35.56 21.6421 0
    endloop
  endfacet
  facet normal 0.659268 -0.751908 0
    outer loop
      vertex 34.7979 21.2021 0
      vertex 34.9651 21.3487 7.9
      vertex 34.7979 21.2021 7.9
    endloop
  endfacet
  facet normal 0.659268 -0.751908 0
    outer loop
      vertex 34.9651 21.3487 7.9
      vertex 34.7979 21.2021 0
      vertex 34.9651 21.3487 0
    endloop
  endfacet
  facet normal 0.751908 -0.659268 0
    outer loop
      vertex 34.6513 21.0349 7.9
      vertex 34.7979 21.2021 0
      vertex 34.7979 21.2021 7.9
    endloop
  endfacet
  facet normal 0.751908 -0.659268 0
    outer loop
      vertex 34.7979 21.2021 0
      vertex 34.6513 21.0349 7.9
      vertex 34.6513 21.0349 0
    endloop
  endfacet
  facet normal -0.997872 0.0652057 0
    outer loop
      vertex 37.6855 19.7781 0
      vertex 37.7 20 7.9
      vertex 37.7 20 0
    endloop
  endfacet
  facet normal -0.997872 0.0652057 0
    outer loop
      vertex 37.7 20 7.9
      vertex 37.6855 19.7781 0
      vertex 37.6855 19.7781 7.9
    endloop
  endfacet
  facet normal -0.831566 0.555426 0
    outer loop
      vertex 37.3487 18.9651 0
      vertex 37.4722 19.15 7.9
      vertex 37.4722 19.15 0
    endloop
  endfacet
  facet normal -0.831566 0.555426 0
    outer loop
      vertex 37.4722 19.15 7.9
      vertex 37.3487 18.9651 0
      vertex 37.3487 18.9651 7.9
    endloop
  endfacet
  facet normal 0.98077 0.195165 0
    outer loop
      vertex 34.3579 19.56 7.9
      vertex 34.3145 19.7781 0
      vertex 34.3145 19.7781 7.9
    endloop
  endfacet
  facet normal 0.98077 0.195165 0
    outer loop
      vertex 34.3145 19.7781 0
      vertex 34.3579 19.56 7.9
      vertex 34.3579 19.56 0
    endloop
  endfacet
  facet normal 0.751908 0.659268 0
    outer loop
      vertex 34.7979 18.7979 7.9
      vertex 34.6513 18.9651 0
      vertex 34.6513 18.9651 7.9
    endloop
  endfacet
  facet normal 0.751908 0.659268 0
    outer loop
      vertex 34.6513 18.9651 0
      vertex 34.7979 18.7979 7.9
      vertex 34.7979 18.7979 0
    endloop
  endfacet
  facet normal -0.195165 0.98077 0
    outer loop
      vertex 36.44 18.3579 0
      vertex 36.2219 18.3145 7.9
      vertex 36.44 18.3579 7.9
    endloop
  endfacet
  facet normal -0.195165 0.98077 0
    outer loop
      vertex 36.2219 18.3145 7.9
      vertex 36.44 18.3579 0
      vertex 36.2219 18.3145 0
    endloop
  endfacet
  facet normal -0.659268 0.751908 0
    outer loop
      vertex 37.2021 18.7979 0
      vertex 37.0349 18.6513 7.9
      vertex 37.2021 18.7979 7.9
    endloop
  endfacet
  facet normal -0.659268 0.751908 0
    outer loop
      vertex 37.0349 18.6513 7.9
      vertex 37.2021 18.7979 0
      vertex 37.0349 18.6513 0
    endloop
  endfacet
  facet normal -0.896754 -0.44253 0
    outer loop
      vertex 37.5706 20.6506 0
      vertex 37.4722 20.85 7.9
      vertex 37.4722 20.85 0
    endloop
  endfacet
  facet normal -0.896754 -0.44253 0
    outer loop
      vertex 37.4722 20.85 7.9
      vertex 37.5706 20.6506 0
      vertex 37.5706 20.6506 7.9
    endloop
  endfacet
  facet normal -0.946915 -0.321484 0
    outer loop
      vertex 37.6421 20.44 0
      vertex 37.5706 20.6506 7.9
      vertex 37.5706 20.6506 0
    endloop
  endfacet
  facet normal -0.946915 -0.321484 0
    outer loop
      vertex 37.5706 20.6506 7.9
      vertex 37.6421 20.44 0
      vertex 37.6421 20.44 7.9
    endloop
  endfacet
  facet normal -0.98077 -0.195165 0
    outer loop
      vertex 37.6855 20.2219 0
      vertex 37.6421 20.44 7.9
      vertex 37.6421 20.44 0
    endloop
  endfacet
  facet normal -0.98077 -0.195165 0
    outer loop
      vertex 37.6421 20.44 7.9
      vertex 37.6855 20.2219 0
      vertex 37.6855 20.2219 7.9
    endloop
  endfacet
  facet normal -0.896754 0.44253 0
    outer loop
      vertex 37.4722 19.15 0
      vertex 37.5706 19.3494 7.9
      vertex 37.5706 19.3494 0
    endloop
  endfacet
  facet normal -0.896754 0.44253 0
    outer loop
      vertex 37.5706 19.3494 7.9
      vertex 37.4722 19.15 0
      vertex 37.4722 19.15 7.9
    endloop
  endfacet
  facet normal -0.0652057 0.997872 0
    outer loop
      vertex 36.2219 18.3145 0
      vertex 36 18.3 7.9
      vertex 36.2219 18.3145 7.9
    endloop
  endfacet
  facet normal -0.0652057 0.997872 0
    outer loop
      vertex 36 18.3 7.9
      vertex 36.2219 18.3145 0
      vertex 36 18.3 0
    endloop
  endfacet
  facet normal 0.896754 0.44253 0
    outer loop
      vertex 34.5278 19.15 7.9
      vertex 34.4294 19.3494 0
      vertex 34.4294 19.3494 7.9
    endloop
  endfacet
  facet normal 0.896754 0.44253 0
    outer loop
      vertex 34.4294 19.3494 0
      vertex 34.5278 19.15 7.9
      vertex 34.5278 19.15 0
    endloop
  endfacet
  facet normal 0.946915 0.321484 0
    outer loop
      vertex 34.4294 19.3494 7.9
      vertex 34.3579 19.56 0
      vertex 34.3579 19.56 7.9
    endloop
  endfacet
  facet normal 0.946915 0.321484 0
    outer loop
      vertex 34.3579 19.56 0
      vertex 34.4294 19.3494 7.9
      vertex 34.4294 19.3494 0
    endloop
  endfacet
  facet normal 0.659268 0.751908 -0
    outer loop
      vertex 34.9651 18.6513 0
      vertex 34.7979 18.7979 7.9
      vertex 34.9651 18.6513 7.9
    endloop
  endfacet
  facet normal 0.659268 0.751908 0
    outer loop
      vertex 34.7979 18.7979 7.9
      vertex 34.9651 18.6513 0
      vertex 34.7979 18.7979 0
    endloop
  endfacet
  facet normal -0.44253 0.896754 0
    outer loop
      vertex 36.85 18.5278 0
      vertex 36.6506 18.4294 7.9
      vertex 36.85 18.5278 7.9
    endloop
  endfacet
  facet normal -0.44253 0.896754 0
    outer loop
      vertex 36.6506 18.4294 7.9
      vertex 36.85 18.5278 0
      vertex 36.6506 18.4294 0
    endloop
  endfacet
  facet normal -0.321484 0.946915 0
    outer loop
      vertex 36.6506 18.4294 0
      vertex 36.44 18.3579 7.9
      vertex 36.6506 18.4294 7.9
    endloop
  endfacet
  facet normal -0.321484 0.946915 0
    outer loop
      vertex 36.44 18.3579 7.9
      vertex 36.6506 18.4294 0
      vertex 36.44 18.3579 0
    endloop
  endfacet
  facet normal 0.195165 0.98077 -0
    outer loop
      vertex 35.7781 18.3145 0
      vertex 35.56 18.3579 7.9
      vertex 35.7781 18.3145 7.9
    endloop
  endfacet
  facet normal 0.195165 0.98077 0
    outer loop
      vertex 35.56 18.3579 7.9
      vertex 35.7781 18.3145 0
      vertex 35.56 18.3579 0
    endloop
  endfacet
  facet normal 0.321484 0.946915 -0
    outer loop
      vertex 35.56 18.3579 0
      vertex 35.3494 18.4294 7.9
      vertex 35.56 18.3579 7.9
    endloop
  endfacet
  facet normal 0.321484 0.946915 0
    outer loop
      vertex 35.3494 18.4294 7.9
      vertex 35.56 18.3579 0
      vertex 35.3494 18.4294 0
    endloop
  endfacet
  facet normal -0.751908 0.659268 0
    outer loop
      vertex 37.2021 18.7979 0
      vertex 37.3487 18.9651 7.9
      vertex 37.3487 18.9651 0
    endloop
  endfacet
  facet normal -0.751908 0.659268 0
    outer loop
      vertex 37.3487 18.9651 7.9
      vertex 37.2021 18.7979 0
      vertex 37.2021 18.7979 7.9
    endloop
  endfacet
  facet normal 0.0652057 0.997872 -0
    outer loop
      vertex 36 18.3 0
      vertex 35.7781 18.3145 7.9
      vertex 36 18.3 7.9
    endloop
  endfacet
  facet normal 0.0652057 0.997872 0
    outer loop
      vertex 35.7781 18.3145 7.9
      vertex 36 18.3 0
      vertex 35.7781 18.3145 0
    endloop
  endfacet
  facet normal 0.44253 0.896754 -0
    outer loop
      vertex 35.3494 18.4294 0
      vertex 35.15 18.5278 7.9
      vertex 35.3494 18.4294 7.9
    endloop
  endfacet
  facet normal 0.44253 0.896754 0
    outer loop
      vertex 35.15 18.5278 7.9
      vertex 35.3494 18.4294 0
      vertex 35.15 18.5278 0
    endloop
  endfacet
  facet normal 0.442401 -0.896817 0
    outer loop
      vertex 102.679 -54.4672 0
      vertex 103.5 -54.0622 16
      vertex 102.679 -54.4672 16
    endloop
  endfacet
  facet normal 0.442401 -0.896817 0
    outer loop
      vertex 103.5 -54.0622 16
      vertex 102.679 -54.4672 0
      vertex 103.5 -54.0622 0
    endloop
  endfacet
  facet normal 0.555733 -0.831361 0
    outer loop
      vertex 103.5 -54.0622 0
      vertex 104.261 -53.5535 16
      vertex 103.5 -54.0622 16
    endloop
  endfacet
  facet normal 0.555733 -0.831361 0
    outer loop
      vertex 104.261 -53.5535 16
      vertex 103.5 -54.0622 0
      vertex 104.261 -53.5535 0
    endloop
  endfacet
  facet normal 0.321433 -0.946932 0
    outer loop
      vertex 101.812 -54.7615 0
      vertex 102.679 -54.4672 16
      vertex 101.812 -54.7615 16
    endloop
  endfacet
  facet normal 0.321433 -0.946932 0
    outer loop
      vertex 102.679 -54.4672 16
      vertex 101.812 -54.7615 0
      vertex 102.679 -54.4672 0
    endloop
  endfacet
  facet normal 1 -0 0
    outer loop
      vertex 107 -48 16
      vertex 107 48 0
      vertex 107 48 16
    endloop
  endfacet
  facet normal 1 0 0
    outer loop
      vertex 107 48 0
      vertex 107 -48 16
      vertex 107 -48 0
    endloop
  endfacet
  facet normal 0 0 1
    outer loop
      vertex 100 55 16
      vertex 107 48 16
      vertex 106.94 48.9137 16
    endloop
  endfacet
  facet normal 0 0 1
    outer loop
      vertex 107 48 16
      vertex 48.15 7.85 16
      vertex 107 -48 16
    endloop
  endfacet
  facet normal 0 0 1
    outer loop
      vertex 100 55 16
      vertex 106.94 48.9137 16
      vertex 106.761 49.8117 16
    endloop
  endfacet
  facet normal 0 -0 1
    outer loop
      vertex 100 -55 16
      vertex 107 -48 16
      vertex 48.15 7.85 16
    endloop
  endfacet
  facet normal 0 0 1
    outer loop
      vertex 100 55 16
      vertex 106.761 49.8117 16
      vertex 106.467 50.6788 16
    endloop
  endfacet
  facet normal 0 0 1
    outer loop
      vertex 107 -48 16
      vertex 100 -55 16
      vertex 106.94 -48.9137 16
    endloop
  endfacet
  facet normal 0 0 1
    outer loop
      vertex 100 55 16
      vertex 106.467 50.6788 16
      vertex 106.062 51.5 16
    endloop
  endfacet
  facet normal 0 0 1
    outer loop
      vertex 106.94 -48.9137 16
      vertex 100 -55 16
      vertex 106.761 -49.8117 16
    endloop
  endfacet
  facet normal 0 0 1
    outer loop
      vertex 100 55 16
      vertex 106.062 51.5 16
      vertex 105.553 52.2613 16
    endloop
  endfacet
  facet normal 0 0 1
    outer loop
      vertex 106.761 -49.8117 16
      vertex 100 -55 16
      vertex 106.467 -50.6788 16
    endloop
  endfacet
  facet normal 0 0 1
    outer loop
      vertex 100 55 16
      vertex 105.553 52.2613 16
      vertex 104.95 52.9498 16
    endloop
  endfacet
  facet normal 0 0 1
    outer loop
      vertex 106.467 -50.6788 16
      vertex 100 -55 16
      vertex 106.062 -51.5 16
    endloop
  endfacet
  facet normal 0 0 1
    outer loop
      vertex 100 55 16
      vertex 104.95 52.9498 16
      vertex 104.261 53.5535 16
    endloop
  endfacet
  facet normal 0 0 1
    outer loop
      vertex 106.062 -51.5 16
      vertex 100 -55 16
      vertex 105.553 -52.2613 16
    endloop
  endfacet
  facet normal 0 0 1
    outer loop
      vertex 100 55 16
      vertex 104.261 53.5535 16
      vertex 103.5 54.0622 16
    endloop
  endfacet
  facet normal 0 0 1
    outer loop
      vertex 105.553 -52.2613 16
      vertex 100 -55 16
      vertex 104.95 -52.9498 16
    endloop
  endfacet
  facet normal 0 0 1
    outer loop
      vertex 100 55 16
      vertex 103.5 54.0622 16
      vertex 102.679 54.4672 16
    endloop
  endfacet
  facet normal 0 0 1
    outer loop
      vertex 104.95 -52.9498 16
      vertex 100 -55 16
      vertex 104.261 -53.5535 16
    endloop
  endfacet
  facet normal 0 0 1
    outer loop
      vertex 100 55 16
      vertex 102.679 54.4672 16
      vertex 101.812 54.7615 16
    endloop
  endfacet
  facet normal 0 0 1
    outer loop
      vertex 104.261 -53.5535 16
      vertex 100 -55 16
      vertex 103.5 -54.0622 16
    endloop
  endfacet
  facet normal 0 0 1
    outer loop
      vertex 100 55 16
      vertex 101.812 54.7615 16
      vertex 100.914 54.9401 16
    endloop
  endfacet
  facet normal 0 0 1
    outer loop
      vertex 103.5 -54.0622 16
      vertex 100 -55 16
      vertex 102.679 -54.4672 16
    endloop
  endfacet
  facet normal 0 0 1
    outer loop
      vertex 107 48 16
      vertex 100 55 16
      vertex 48.15 7.85 16
    endloop
  endfacet
  facet normal 0 0 1
    outer loop
      vertex 102.679 -54.4672 16
      vertex 100 -55 16
      vertex 101.812 -54.7615 16
    endloop
  endfacet
  facet normal 0 0 1
    outer loop
      vertex 48.15 7.85 16
      vertex 100 55 16
      vertex 48.15 50.15 16
    endloop
  endfacet
  facet normal 0 0 1
    outer loop
      vertex 100 55 16
      vertex -48.15 50.15 16
      vertex 48.15 50.15 16
    endloop
  endfacet
  facet normal 0 0 1
    outer loop
      vertex -48.15 50.15 16
      vertex -100 55 16
      vertex -48.15 7.85 16
    endloop
  endfacet
  facet normal -0 0 1
    outer loop
      vertex -100 55 16
      vertex -48.15 50.15 16
      vertex 100 55 16
    endloop
  endfacet
  facet normal 0 0 1
    outer loop
      vertex 101.812 -54.7615 16
      vertex 100 -55 16
      vertex 100.914 -54.9401 16
    endloop
  endfacet
  facet normal -0 0 1
    outer loop
      vertex -48.15 7.85 16
      vertex 100 -55 16
      vertex 48.15 7.85 16
    endloop
  endfacet
  facet normal 0 0 1
    outer loop
      vertex -48.15 7.85 16
      vertex -100 -55 16
      vertex 100 -55 16
    endloop
  endfacet
  facet normal -0 0 1
    outer loop
      vertex -107 48 16
      vertex -48.15 7.85 16
      vertex -100 55 16
    endloop
  endfacet
  facet normal 0 0 1
    outer loop
      vertex -107 48 16
      vertex -100 55 16
      vertex -100.914 54.9401 16
    endloop
  endfacet
  facet normal 0 0 1
    outer loop
      vertex -107 -48 16
      vertex -48.15 7.85 16
      vertex -107 48 16
    endloop
  endfacet
  facet normal 0 0 1
    outer loop
      vertex -107 48 16
      vertex -100.914 54.9401 16
      vertex -101.812 54.7615 16
    endloop
  endfacet
  facet normal 0 0 1
    outer loop
      vertex -48.15 7.85 16
      vertex -107 -48 16
      vertex -100 -55 16
    endloop
  endfacet
  facet normal 0 0 1
    outer loop
      vertex -107 48 16
      vertex -101.812 54.7615 16
      vertex -102.679 54.4672 16
    endloop
  endfacet
  facet normal 0 0 1
    outer loop
      vertex -100 -55 16
      vertex -107 -48 16
      vertex -100.914 -54.9401 16
    endloop
  endfacet
  facet normal 0 0 1
    outer loop
      vertex -107 48 16
      vertex -102.679 54.4672 16
      vertex -103.5 54.0622 16
    endloop
  endfacet
  facet normal 0 0 1
    outer loop
      vertex -100.914 -54.9401 16
      vertex -107 -48 16
      vertex -101.812 -54.7615 16
    endloop
  endfacet
  facet normal 0 0 1
    outer loop
      vertex -107 48 16
      vertex -103.5 54.0622 16
      vertex -104.261 53.5535 16
    endloop
  endfacet
  facet normal 0 0 1
    outer loop
      vertex -101.812 -54.7615 16
      vertex -107 -48 16
      vertex -102.679 -54.4672 16
    endloop
  endfacet
  facet normal 0 0 1
    outer loop
      vertex -107 48 16
      vertex -104.261 53.5535 16
      vertex -104.95 52.9498 16
    endloop
  endfacet
  facet normal 0 0 1
    outer loop
      vertex -102.679 -54.4672 16
      vertex -107 -48 16
      vertex -103.5 -54.0622 16
    endloop
  endfacet
  facet normal 0 0 1
    outer loop
      vertex -107 48 16
      vertex -104.95 52.9498 16
      vertex -105.553 52.2613 16
    endloop
  endfacet
  facet normal 0 0 1
    outer loop
      vertex -103.5 -54.0622 16
      vertex -107 -48 16
      vertex -104.261 -53.5535 16
    endloop
  endfacet
  facet normal 0 0 1
    outer loop
      vertex -107 48 16
      vertex -105.553 52.2613 16
      vertex -106.062 51.5 16
    endloop
  endfacet
  facet normal 0 0 1
    outer loop
      vertex -104.261 -53.5535 16
      vertex -107 -48 16
      vertex -104.95 -52.9498 16
    endloop
  endfacet
  facet normal 0 0 1
    outer loop
      vertex -107 48 16
      vertex -106.062 51.5 16
      vertex -106.467 50.6788 16
    endloop
  endfacet
  facet normal 0 0 1
    outer loop
      vertex -104.95 -52.9498 16
      vertex -107 -48 16
      vertex -105.553 -52.2613 16
    endloop
  endfacet
  facet normal 0 0 1
    outer loop
      vertex -107 48 16
      vertex -106.467 50.6788 16
      vertex -106.761 49.8117 16
    endloop
  endfacet
  facet normal 0 0 1
    outer loop
      vertex -105.553 -52.2613 16
      vertex -107 -48 16
      vertex -106.062 -51.5 16
    endloop
  endfacet
  facet normal 0 0 1
    outer loop
      vertex -107 48 16
      vertex -106.761 49.8117 16
      vertex -106.94 48.9137 16
    endloop
  endfacet
  facet normal 0 0 1
    outer loop
      vertex -106.062 -51.5 16
      vertex -107 -48 16
      vertex -106.467 -50.6788 16
    endloop
  endfacet
  facet normal 0 0 1
    outer loop
      vertex -106.467 -50.6788 16
      vertex -107 -48 16
      vertex -106.761 -49.8117 16
    endloop
  endfacet
  facet normal 0 0 1
    outer loop
      vertex -106.761 -49.8117 16
      vertex -107 -48 16
      vertex -106.94 -48.9137 16
    endloop
  endfacet
  facet normal -0.442401 -0.896817 0
    outer loop
      vertex -103.5 -54.0622 0
      vertex -102.679 -54.4672 16
      vertex -103.5 -54.0622 16
    endloop
  endfacet
  facet normal -0.442401 -0.896817 -0
    outer loop
      vertex -102.679 -54.4672 16
      vertex -103.5 -54.0622 0
      vertex -102.679 -54.4672 0
    endloop
  endfacet
  facet normal 0.195066 -0.98079 0
    outer loop
      vertex 100.914 -54.9401 0
      vertex 101.812 -54.7615 16
      vertex 100.914 -54.9401 16
    endloop
  endfacet
  facet normal 0.195066 -0.98079 0
    outer loop
      vertex 101.812 -54.7615 16
      vertex 100.914 -54.9401 0
      vertex 101.812 -54.7615 0
    endloop
  endfacet
  facet normal 0 1 -0
    outer loop
      vertex 100 55 0
      vertex -100 55 16
      vertex 100 55 16
    endloop
  endfacet
  facet normal 0 1 0
    outer loop
      vertex -100 55 16
      vertex 100 55 0
      vertex -100 55 0
    endloop
  endfacet
  facet normal 0 -1 0
    outer loop
      vertex -100 -55 0
      vertex 100 -55 16
      vertex -100 -55 16
    endloop
  endfacet
  facet normal 0 -1 -0
    outer loop
      vertex 100 -55 16
      vertex -100 -55 0
      vertex 100 -55 0
    endloop
  endfacet
  facet normal -0.997851 0.0655259 0
    outer loop
      vertex -107 48 0
      vertex -106.94 48.9137 16
      vertex -106.94 48.9137 0
    endloop
  endfacet
  facet normal -0.997851 0.0655259 0
    outer loop
      vertex -106.94 48.9137 16
      vertex -107 48 0
      vertex -107 48 16
    endloop
  endfacet
  facet normal -1 0 0
    outer loop
      vertex -107 -48 0
      vertex -107 48 16
      vertex -107 48 0
    endloop
  endfacet
  facet normal -1 -0 0
    outer loop
      vertex -107 48 16
      vertex -107 -48 0
      vertex -107 -48 16
    endloop
  endfacet
  facet normal -0.0653958 0.997859 0
    outer loop
      vertex -100 55 0
      vertex -100.914 54.9401 16
      vertex -100 55 16
    endloop
  endfacet
  facet normal -0.0653958 0.997859 0
    outer loop
      vertex -100.914 54.9401 16
      vertex -100 55 0
      vertex -100.914 54.9401 0
    endloop
  endfacet
  facet normal 0.0653958 -0.997859 0
    outer loop
      vertex 100 -55 0
      vertex 100.914 -54.9401 16
      vertex 100 -55 16
    endloop
  endfacet
  facet normal 0.0653958 -0.997859 0
    outer loop
      vertex 100.914 -54.9401 16
      vertex 100 -55 0
      vertex 100.914 -54.9401 0
    endloop
  endfacet
  facet normal -0.195066 -0.98079 0
    outer loop
      vertex -101.812 -54.7615 0
      vertex -100.914 -54.9401 16
      vertex -101.812 -54.7615 16
    endloop
  endfacet
  facet normal -0.195066 -0.98079 -0
    outer loop
      vertex -100.914 -54.9401 16
      vertex -101.812 -54.7615 0
      vertex -100.914 -54.9401 0
    endloop
  endfacet
  facet normal -0.83131 0.555808 0
    outer loop
      vertex -106.062 51.5 0
      vertex -105.553 52.2613 16
      vertex -105.553 52.2613 0
    endloop
  endfacet
  facet normal -0.83131 0.555808 0
    outer loop
      vertex -105.553 52.2613 16
      vertex -106.062 51.5 0
      vertex -106.062 51.5 16
    endloop
  endfacet
  facet normal -0.659015 -0.75213 0
    outer loop
      vertex -104.95 -52.9498 0
      vertex -104.261 -53.5535 16
      vertex -104.95 -52.9498 16
    endloop
  endfacet
  facet normal -0.659015 -0.75213 -0
    outer loop
      vertex -104.261 -53.5535 16
      vertex -104.95 -52.9498 0
      vertex -104.261 -53.5535 0
    endloop
  endfacet
  facet normal -0.321433 0.946932 0
    outer loop
      vertex -101.812 54.7615 0
      vertex -102.679 54.4672 16
      vertex -101.812 54.7615 16
    endloop
  endfacet
  facet normal -0.321433 0.946932 0
    outer loop
      vertex -102.679 54.4672 16
      vertex -101.812 54.7615 0
      vertex -102.679 54.4672 0
    endloop
  endfacet
  facet normal 0.0653958 0.997859 -0
    outer loop
      vertex 100.914 54.9401 0
      vertex 100 55 16
      vertex 100.914 54.9401 16
    endloop
  endfacet
  facet normal 0.0653958 0.997859 0
    outer loop
      vertex 100 55 16
      vertex 100.914 54.9401 0
      vertex 100 55 0
    endloop
  endfacet
  facet normal -0.195066 0.98079 0
    outer loop
      vertex -100.914 54.9401 0
      vertex -101.812 54.7615 16
      vertex -100.914 54.9401 16
    endloop
  endfacet
  facet normal -0.195066 0.98079 0
    outer loop
      vertex -101.812 54.7615 16
      vertex -100.914 54.9401 0
      vertex -101.812 54.7615 0
    endloop
  endfacet
  facet normal -0.0653958 -0.997859 0
    outer loop
      vertex -100.914 -54.9401 0
      vertex -100 -55 16
      vertex -100.914 -54.9401 16
    endloop
  endfacet
  facet normal -0.0653958 -0.997859 -0
    outer loop
      vertex -100 -55 16
      vertex -100.914 -54.9401 0
      vertex -100 -55 0
    endloop
  endfacet
  facet normal -0.980706 0.195486 0
    outer loop
      vertex -106.94 48.9137 0
      vertex -106.761 49.8117 16
      vertex -106.761 49.8117 0
    endloop
  endfacet
  facet normal -0.980706 0.195486 0
    outer loop
      vertex -106.761 49.8117 16
      vertex -106.94 48.9137 0
      vertex -106.94 48.9137 16
    endloop
  endfacet
  facet normal -0.947043 0.321106 0
    outer loop
      vertex -106.761 49.8117 0
      vertex -106.467 50.6788 16
      vertex -106.467 50.6788 0
    endloop
  endfacet
  facet normal -0.947043 0.321106 0
    outer loop
      vertex -106.467 50.6788 16
      vertex -106.761 49.8117 0
      vertex -106.761 49.8117 16
    endloop
  endfacet
  facet normal -0.89686 0.442314 0
    outer loop
      vertex -106.467 50.6788 0
      vertex -106.062 51.5 16
      vertex -106.062 51.5 0
    endloop
  endfacet
  facet normal -0.89686 0.442314 0
    outer loop
      vertex -106.062 51.5 16
      vertex -106.467 50.6788 0
      vertex -106.467 50.6788 16
    endloop
  endfacet
  facet normal -0.752272 0.658853 0
    outer loop
      vertex -105.553 52.2613 0
      vertex -104.95 52.9498 16
      vertex -104.95 52.9498 0
    endloop
  endfacet
  facet normal -0.752272 0.658853 0
    outer loop
      vertex -104.95 52.9498 16
      vertex -105.553 52.2613 0
      vertex -105.553 52.2613 16
    endloop
  endfacet
  facet normal -0.659015 0.75213 0
    outer loop
      vertex -104.261 53.5535 0
      vertex -104.95 52.9498 16
      vertex -104.261 53.5535 16
    endloop
  endfacet
  facet normal -0.659015 0.75213 0
    outer loop
      vertex -104.95 52.9498 16
      vertex -104.261 53.5535 0
      vertex -104.95 52.9498 0
    endloop
  endfacet
  facet normal -0.442401 0.896817 0
    outer loop
      vertex -102.679 54.4672 0
      vertex -103.5 54.0622 16
      vertex -102.679 54.4672 16
    endloop
  endfacet
  facet normal -0.442401 0.896817 0
    outer loop
      vertex -103.5 54.0622 16
      vertex -102.679 54.4672 0
      vertex -103.5 54.0622 0
    endloop
  endfacet
  facet normal -0.947043 -0.321106 0
    outer loop
      vertex -106.467 -50.6788 0
      vertex -106.761 -49.8117 16
      vertex -106.761 -49.8117 0
    endloop
  endfacet
  facet normal -0.947043 -0.321106 0
    outer loop
      vertex -106.761 -49.8117 16
      vertex -106.467 -50.6788 0
      vertex -106.467 -50.6788 16
    endloop
  endfacet
  facet normal -0.89686 -0.442314 0
    outer loop
      vertex -106.062 -51.5 0
      vertex -106.467 -50.6788 16
      vertex -106.467 -50.6788 0
    endloop
  endfacet
  facet normal -0.89686 -0.442314 0
    outer loop
      vertex -106.467 -50.6788 16
      vertex -106.062 -51.5 0
      vertex -106.062 -51.5 16
    endloop
  endfacet
  facet normal 0 0 -1
    outer loop
      vertex 100 -55 0
      vertex 107 -48 0
      vertex 106.94 -48.9137 0
    endloop
  endfacet
  facet normal 0 0 -1
    outer loop
      vertex 107 -48 0
      vertex 37.5706 19.3494 0
      vertex 107 48 0
    endloop
  endfacet
  facet normal 0 0 -1
    outer loop
      vertex 100 -55 0
      vertex 106.94 -48.9137 0
      vertex 106.761 -49.8117 0
    endloop
  endfacet
  facet normal 0 -0 -1
    outer loop
      vertex 37.6421 19.56 0
      vertex 107 48 0
      vertex 37.5706 19.3494 0
    endloop
  endfacet
  facet normal 0 0 -1
    outer loop
      vertex 100 -55 0
      vertex 106.761 -49.8117 0
      vertex 106.467 -50.6788 0
    endloop
  endfacet
  facet normal 0 -0 -1
    outer loop
      vertex 37.6855 19.7781 0
      vertex 107 48 0
      vertex 37.6421 19.56 0
    endloop
  endfacet
  facet normal 0 0 -1
    outer loop
      vertex 100 -55 0
      vertex 106.467 -50.6788 0
      vertex 106.062 -51.5 0
    endloop
  endfacet
  facet normal 0 -0 -1
    outer loop
      vertex 37.7 20 0
      vertex 107 48 0
      vertex 37.6855 19.7781 0
    endloop
  endfacet
  facet normal 0 0 -1
    outer loop
      vertex 100 -55 0
      vertex 106.062 -51.5 0
      vertex 105.553 -52.2613 0
    endloop
  endfacet
  facet normal 0 0 -1
    outer loop
      vertex 37.6855 20.2219 0
      vertex 107 48 0
      vertex 37.7 20 0
    endloop
  endfacet
  facet normal 0 0 -1
    outer loop
      vertex 100 -55 0
      vertex 105.553 -52.2613 0
      vertex 104.95 -52.9498 0
    endloop
  endfacet
  facet normal 0 0 -1
    outer loop
      vertex 107 48 0
      vertex 100 55 0
      vertex 106.94 48.9137 0
    endloop
  endfacet
  facet normal 0 0 -1
    outer loop
      vertex 100 -55 0
      vertex 104.95 -52.9498 0
      vertex 104.261 -53.5535 0
    endloop
  endfacet
  facet normal 0 0 -1
    outer loop
      vertex 106.94 48.9137 0
      vertex 100 55 0
      vertex 106.761 49.8117 0
    endloop
  endfacet
  facet normal 0 0 -1
    outer loop
      vertex 100 -55 0
      vertex 104.261 -53.5535 0
      vertex 103.5 -54.0622 0
    endloop
  endfacet
  facet normal 0 0 -1
    outer loop
      vertex 106.467 50.6788 0
      vertex 100 55 0
      vertex 106.062 51.5 0
    endloop
  endfacet
  facet normal 0 0 -1
    outer loop
      vertex 100 -55 0
      vertex 103.5 -54.0622 0
      vertex 102.679 -54.4672 0
    endloop
  endfacet
  facet normal -0 0 -1
    outer loop
      vertex 107 -48 0
      vertex 100 -55 0
      vertex 37.2021 18.7979 0
    endloop
  endfacet
  facet normal 0 0 -1
    outer loop
      vertex 100 -55 0
      vertex 102.679 -54.4672 0
      vertex 101.812 -54.7615 0
    endloop
  endfacet
  facet normal 0 0 -1
    outer loop
      vertex 105.553 52.2613 0
      vertex 100 55 0
      vertex 104.95 52.9498 0
    endloop
  endfacet
  facet normal 0 0 -1
    outer loop
      vertex 100 -55 0
      vertex 101.812 -54.7615 0
      vertex 100.914 -54.9401 0
    endloop
  endfacet
  facet normal 0 0 -1
    outer loop
      vertex 103.5 54.0622 0
      vertex 100 55 0
      vertex 102.679 54.4672 0
    endloop
  endfacet
  facet normal 0 0 -1
    outer loop
      vertex 102.679 54.4672 0
      vertex 100 55 0
      vertex 101.812 54.7615 0
    endloop
  endfacet
  facet normal 0 0 -1
    outer loop
      vertex 101.812 54.7615 0
      vertex 100 55 0
      vertex 100.914 54.9401 0
    endloop
  endfacet
  facet normal 0 0 -1
    outer loop
      vertex 104.95 52.9498 0
      vertex 100 55 0
      vertex 104.261 53.5535 0
    endloop
  endfacet
  facet normal 0 0 -1
    outer loop
      vertex 106.761 49.8117 0
      vertex 100 55 0
      vertex 106.467 50.6788 0
    endloop
  endfacet
  facet normal 0 0 -1
    outer loop
      vertex 106.062 51.5 0
      vertex 100 55 0
      vertex 105.553 52.2613 0
    endloop
  endfacet
  facet normal 0 0 -1
    outer loop
      vertex 104.261 53.5535 0
      vertex 100 55 0
      vertex 103.5 54.0622 0
    endloop
  endfacet
  facet normal 0 0 -1
    outer loop
      vertex 107 -48 0
      vertex 37.4722 19.15 0
      vertex 37.5706 19.3494 0
    endloop
  endfacet
  facet normal 0 0 -1
    outer loop
      vertex 107 -48 0
      vertex 37.3487 18.9651 0
      vertex 37.4722 19.15 0
    endloop
  endfacet
  facet normal 0 0 -1
    outer loop
      vertex 107 -48 0
      vertex 37.2021 18.7979 0
      vertex 37.3487 18.9651 0
    endloop
  endfacet
  facet normal 0 0 -1
    outer loop
      vertex 100 -55 0
      vertex 37.0349 18.6513 0
      vertex 37.2021 18.7979 0
    endloop
  endfacet
  facet normal 0 0 -1
    outer loop
      vertex 100 -55 0
      vertex 36.85 18.5278 0
      vertex 37.0349 18.6513 0
    endloop
  endfacet
  facet normal 0 0 -1
    outer loop
      vertex 100 -55 0
      vertex 36.6506 18.4294 0
      vertex 36.85 18.5278 0
    endloop
  endfacet
  facet normal 0 0 -1
    outer loop
      vertex 100 -55 0
      vertex 36.44 18.3579 0
      vertex 36.6506 18.4294 0
    endloop
  endfacet
  facet normal 0 0 -1
    outer loop
      vertex 100 -55 0
      vertex 36.2219 18.3145 0
      vertex 36.44 18.3579 0
    endloop
  endfacet
  facet normal 0 0 -1
    outer loop
      vertex 100 -55 0
      vertex 36 18.3 0
      vertex 36.2219 18.3145 0
    endloop
  endfacet
  facet normal 0 0 -1
    outer loop
      vertex 100 -55 0
      vertex 35.7781 18.3145 0
      vertex 36 18.3 0
    endloop
  endfacet
  facet normal 0 0 -1
    outer loop
      vertex 100 -55 0
      vertex 35.56 18.3579 0
      vertex 35.7781 18.3145 0
    endloop
  endfacet
  facet normal 0 0 -1
    outer loop
      vertex 100 -55 0
      vertex 35.3494 18.4294 0
      vertex 35.56 18.3579 0
    endloop
  endfacet
  facet normal 0 0 -1
    outer loop
      vertex -35.3494 18.4294 0
      vertex 35.3494 18.4294 0
      vertex 100 -55 0
    endloop
  endfacet
  facet normal 0 0 -1
    outer loop
      vertex 35.3494 18.4294 0
      vertex -35.3494 18.4294 0
      vertex 35.15 18.5278 0
    endloop
  endfacet
  facet normal 0 -0 -1
    outer loop
      vertex -35.15 18.5278 0
      vertex 35.15 18.5278 0
      vertex -35.3494 18.4294 0
    endloop
  endfacet
  facet normal 0 0 -1
    outer loop
      vertex 34.3145 19.7781 0
      vertex -34.3 20 0
      vertex 34.3 20 0
    endloop
  endfacet
  facet normal 0 0 -1
    outer loop
      vertex -34.3145 19.7781 0
      vertex 34.3145 19.7781 0
      vertex 34.3579 19.56 0
    endloop
  endfacet
  facet normal 0 0 -1
    outer loop
      vertex -34.3579 19.56 0
      vertex 34.3579 19.56 0
      vertex 34.4294 19.3494 0
    endloop
  endfacet
  facet normal 0 0 -1
    outer loop
      vertex -34.4294 19.3494 0
      vertex 34.4294 19.3494 0
      vertex 34.5278 19.15 0
    endloop
  endfacet
  facet normal 0 0 -1
    outer loop
      vertex -34.5278 19.15 0
      vertex 34.5278 19.15 0
      vertex 34.6513 18.9651 0
    endloop
  endfacet
  facet normal 0 0 -1
    outer loop
      vertex -34.6513 18.9651 0
      vertex 34.6513 18.9651 0
      vertex 34.7979 18.7979 0
    endloop
  endfacet
  facet normal 0 0 -1
    outer loop
      vertex 35.15 18.5278 0
      vertex -35.15 18.5278 0
      vertex 34.9651 18.6513 0
    endloop
  endfacet
  facet normal 0 0 -1
    outer loop
      vertex 34.3145 19.7781 0
      vertex -34.3145 19.7781 0
      vertex -34.3 20 0
    endloop
  endfacet
  facet normal 0 0 -1
    outer loop
      vertex 34.3579 19.56 0
      vertex -34.3579 19.56 0
      vertex -34.3145 19.7781 0
    endloop
  endfacet
  facet normal 0 0 -1
    outer loop
      vertex 34.4294 19.3494 0
      vertex -34.4294 19.3494 0
      vertex -34.3579 19.56 0
    endloop
  endfacet
  facet normal 0 0 -1
    outer loop
      vertex 34.5278 19.15 0
      vertex -34.5278 19.15 0
      vertex -34.4294 19.3494 0
    endloop
  endfacet
  facet normal 0 0 -1
    outer loop
      vertex 34.6513 18.9651 0
      vertex -34.6513 18.9651 0
      vertex -34.5278 19.15 0
    endloop
  endfacet
  facet normal 0 0 -1
    outer loop
      vertex 34.7979 18.7979 0
      vertex -34.7979 18.7979 0
      vertex -34.6513 18.9651 0
    endloop
  endfacet
  facet normal -0 0 -1
    outer loop
      vertex 34.7979 18.7979 0
      vertex -34.9651 18.6513 0
      vertex -34.7979 18.7979 0
    endloop
  endfacet
  facet normal 0 0 -1
    outer loop
      vertex 34.9651 18.6513 0
      vertex -34.9651 18.6513 0
      vertex 34.7979 18.7979 0
    endloop
  endfacet
  facet normal 0 -0 -1
    outer loop
      vertex -34.9651 18.6513 0
      vertex 34.9651 18.6513 0
      vertex -35.15 18.5278 0
    endloop
  endfacet
  facet normal 0 0 -1
    outer loop
      vertex -100 -55 0
      vertex -35.3494 18.4294 0
      vertex 100 -55 0
    endloop
  endfacet
  facet normal 0 0 -1
    outer loop
      vertex -35.3494 18.4294 0
      vertex -100 -55 0
      vertex -35.56 18.3579 0
    endloop
  endfacet
  facet normal 0 0 -1
    outer loop
      vertex -35.56 18.3579 0
      vertex -100 -55 0
      vertex -35.7781 18.3145 0
    endloop
  endfacet
  facet normal 0 0 -1
    outer loop
      vertex -35.7781 18.3145 0
      vertex -100 -55 0
      vertex -36 18.3 0
    endloop
  endfacet
  facet normal -0 0 -1
    outer loop
      vertex -36 18.3 0
      vertex -100 -55 0
      vertex -36.2219 18.3145 0
    endloop
  endfacet
  facet normal -0 0 -1
    outer loop
      vertex -36.2219 18.3145 0
      vertex -100 -55 0
      vertex -36.44 18.3579 0
    endloop
  endfacet
  facet normal -0 0 -1
    outer loop
      vertex -36.44 18.3579 0
      vertex -100 -55 0
      vertex -36.6506 18.4294 0
    endloop
  endfacet
  facet normal 0 0 -1
    outer loop
      vertex -37.5706 19.3494 0
      vertex -107 48 0
      vertex -37.6421 19.56 0
    endloop
  endfacet
  facet normal 0 0 -1
    outer loop
      vertex -107 48 0
      vertex -37.5706 19.3494 0
      vertex -107 -48 0
    endloop
  endfacet
  facet normal -0 0 -1
    outer loop
      vertex -37.4722 19.15 0
      vertex -107 -48 0
      vertex -37.5706 19.3494 0
    endloop
  endfacet
  facet normal -0 0 -1
    outer loop
      vertex -37.3487 18.9651 0
      vertex -107 -48 0
      vertex -37.4722 19.15 0
    endloop
  endfacet
  facet normal -0 0 -1
    outer loop
      vertex -37.2021 18.7979 0
      vertex -107 -48 0
      vertex -37.3487 18.9651 0
    endloop
  endfacet
  facet normal 0 0 -1
    outer loop
      vertex -107 -48 0
      vertex -37.2021 18.7979 0
      vertex -100 -55 0
    endloop
  endfacet
  facet normal -0 0 -1
    outer loop
      vertex -37.0349 18.6513 0
      vertex -100 -55 0
      vertex -37.2021 18.7979 0
    endloop
  endfacet
  facet normal -0 0 -1
    outer loop
      vertex -36.85 18.5278 0
      vertex -100 -55 0
      vertex -37.0349 18.6513 0
    endloop
  endfacet
  facet normal -0 0 -1
    outer loop
      vertex -36.6506 18.4294 0
      vertex -100 -55 0
      vertex -36.85 18.5278 0
    endloop
  endfacet
  facet normal -0 0 -1
    outer loop
      vertex 107 48 0
      vertex 37.6855 20.2219 0
      vertex 100 55 0
    endloop
  endfacet
  facet normal 0 0 -1
    outer loop
      vertex 37.6421 20.44 0
      vertex 100 55 0
      vertex 37.6855 20.2219 0
    endloop
  endfacet
  facet normal 0 0 -1
    outer loop
      vertex 37.5706 20.6506 0
      vertex 100 55 0
      vertex 37.6421 20.44 0
    endloop
  endfacet
  facet normal 0 0 -1
    outer loop
      vertex 37.4722 20.85 0
      vertex 100 55 0
      vertex 37.5706 20.6506 0
    endloop
  endfacet
  facet normal 0 0 -1
    outer loop
      vertex 37.3487 21.0349 0
      vertex 100 55 0
      vertex 37.4722 20.85 0
    endloop
  endfacet
  facet normal 0 0 -1
    outer loop
      vertex 37.2021 21.2021 0
      vertex 100 55 0
      vertex 37.3487 21.0349 0
    endloop
  endfacet
  facet normal 0 0 -1
    outer loop
      vertex 37.0349 21.3487 0
      vertex 100 55 0
      vertex 37.2021 21.2021 0
    endloop
  endfacet
  facet normal 0 0 -1
    outer loop
      vertex 36.85 21.4722 0
      vertex 100 55 0
      vertex 37.0349 21.3487 0
    endloop
  endfacet
  facet normal 0 0 -1
    outer loop
      vertex 36.6506 21.5706 0
      vertex 100 55 0
      vertex 36.85 21.4722 0
    endloop
  endfacet
  facet normal 0 0 -1
    outer loop
      vertex 36.44 21.6421 0
      vertex 100 55 0
      vertex 36.6506 21.5706 0
    endloop
  endfacet
  facet normal 0 0 -1
    outer loop
      vertex 36.2219 21.6855 0
      vertex 100 55 0
      vertex 36.44 21.6421 0
    endloop
  endfacet
  facet normal 0 0 -1
    outer loop
      vertex 36 21.7 0
      vertex 100 55 0
      vertex 36.2219 21.6855 0
    endloop
  endfacet
  facet normal 0 0 -1
    outer loop
      vertex 35.7781 21.6855 0
      vertex 100 55 0
      vertex 36 21.7 0
    endloop
  endfacet
  facet normal 0 0 -1
    outer loop
      vertex 35.56 21.6421 0
      vertex 100 55 0
      vertex 35.7781 21.6855 0
    endloop
  endfacet
  facet normal 0 0 -1
    outer loop
      vertex -35.56 21.6421 0
      vertex 35.56 21.6421 0
      vertex 35.3494 21.5706 0
    endloop
  endfacet
  facet normal 0 0 -1
    outer loop
      vertex -35.3494 21.5706 0
      vertex 35.3494 21.5706 0
      vertex 35.15 21.4722 0
    endloop
  endfacet
  facet normal 0 0 -1
    outer loop
      vertex -34.3 20 0
      vertex 34.3145 20.2219 0
      vertex 34.3 20 0
    endloop
  endfacet
  facet normal 0 0 -1
    outer loop
      vertex -34.3145 20.2219 0
      vertex 34.3145 20.2219 0
      vertex -34.3 20 0
    endloop
  endfacet
  facet normal 0 0 -1
    outer loop
      vertex 34.3145 20.2219 0
      vertex -34.3145 20.2219 0
      vertex 34.3579 20.44 0
    endloop
  endfacet
  facet normal 0 0 -1
    outer loop
      vertex -34.3579 20.44 0
      vertex 34.3579 20.44 0
      vertex -34.3145 20.2219 0
    endloop
  endfacet
  facet normal 0 0 -1
    outer loop
      vertex 34.3579 20.44 0
      vertex -34.3579 20.44 0
      vertex 34.4294 20.6506 0
    endloop
  endfacet
  facet normal 0 0 -1
    outer loop
      vertex -34.4294 20.6506 0
      vertex 34.4294 20.6506 0
      vertex -34.3579 20.44 0
    endloop
  endfacet
  facet normal 0 0 -1
    outer loop
      vertex 34.4294 20.6506 0
      vertex -34.4294 20.6506 0
      vertex 34.5278 20.85 0
    endloop
  endfacet
  facet normal 0 0 -1
    outer loop
      vertex -34.5278 20.85 0
      vertex 34.5278 20.85 0
      vertex -34.4294 20.6506 0
    endloop
  endfacet
  facet normal 0 0 -1
    outer loop
      vertex 34.5278 20.85 0
      vertex -34.5278 20.85 0
      vertex 34.6513 21.0349 0
    endloop
  endfacet
  facet normal 0 0 -1
    outer loop
      vertex -34.6513 21.0349 0
      vertex 34.6513 21.0349 0
      vertex -34.5278 20.85 0
    endloop
  endfacet
  facet normal 0 0 -1
    outer loop
      vertex 34.6513 21.0349 0
      vertex -34.6513 21.0349 0
      vertex 34.7979 21.2021 0
    endloop
  endfacet
  facet normal 0 0 -1
    outer loop
      vertex -34.7979 21.2021 0
      vertex 34.7979 21.2021 0
      vertex -34.6513 21.0349 0
    endloop
  endfacet
  facet normal 0 0 -1
    outer loop
      vertex 34.7979 21.2021 0
      vertex -34.7979 21.2021 0
      vertex 34.9651 21.3487 0
    endloop
  endfacet
  facet normal 0 0 -1
    outer loop
      vertex -34.9651 21.3487 0
      vertex 34.9651 21.3487 0
      vertex -34.7979 21.2021 0
    endloop
  endfacet
  facet normal 0 0 -1
    outer loop
      vertex 34.9651 21.3487 0
      vertex -34.9651 21.3487 0
      vertex 35.15 21.4722 0
    endloop
  endfacet
  facet normal 0 0 -1
    outer loop
      vertex -35.15 21.4722 0
      vertex 35.15 21.4722 0
      vertex -34.9651 21.3487 0
    endloop
  endfacet
  facet normal 0 0 -1
    outer loop
      vertex -35.3494 21.5706 0
      vertex 35.15 21.4722 0
      vertex -35.15 21.4722 0
    endloop
  endfacet
  facet normal 0 0 -1
    outer loop
      vertex 35.3494 21.5706 0
      vertex -35.3494 21.5706 0
      vertex -35.56 21.6421 0
    endloop
  endfacet
  facet normal 0 0 -1
    outer loop
      vertex 35.56 21.6421 0
      vertex -35.56 21.6421 0
      vertex 100 55 0
    endloop
  endfacet
  facet normal 0 0 -1
    outer loop
      vertex -100 55 0
      vertex -35.56 21.6421 0
      vertex -35.7781 21.6855 0
    endloop
  endfacet
  facet normal 0 0 -1
    outer loop
      vertex -100 55 0
      vertex -35.7781 21.6855 0
      vertex -36 21.7 0
    endloop
  endfacet
  facet normal 0 0 -1
    outer loop
      vertex -100 55 0
      vertex -36 21.7 0
      vertex -36.2219 21.6855 0
    endloop
  endfacet
  facet normal 0 0 -1
    outer loop
      vertex -100 55 0
      vertex -36.2219 21.6855 0
      vertex -36.44 21.6421 0
    endloop
  endfacet
  facet normal 0 0 -1
    outer loop
      vertex -37.6421 19.56 0
      vertex -107 48 0
      vertex -37.6855 19.7781 0
    endloop
  endfacet
  facet normal 0 0 -1
    outer loop
      vertex -37.6855 19.7781 0
      vertex -107 48 0
      vertex -37.7 20 0
    endloop
  endfacet
  facet normal 0 0 -1
    outer loop
      vertex -37.7 20 0
      vertex -107 48 0
      vertex -37.6855 20.2219 0
    endloop
  endfacet
  facet normal 0 -0 -1
    outer loop
      vertex -100 55 0
      vertex -37.6855 20.2219 0
      vertex -107 48 0
    endloop
  endfacet
  facet normal 0 0 -1
    outer loop
      vertex -37.6855 20.2219 0
      vertex -100 55 0
      vertex -37.6421 20.44 0
    endloop
  endfacet
  facet normal 0 0 -1
    outer loop
      vertex -35.56 21.6421 0
      vertex -100 55 0
      vertex 100 55 0
    endloop
  endfacet
  facet normal 0 0 -1
    outer loop
      vertex -36.6506 21.5706 0
      vertex -100 55 0
      vertex -36.44 21.6421 0
    endloop
  endfacet
  facet normal 0 0 -1
    outer loop
      vertex -36.85 21.4722 0
      vertex -100 55 0
      vertex -36.6506 21.5706 0
    endloop
  endfacet
  facet normal 0 0 -1
    outer loop
      vertex -37.0349 21.3487 0
      vertex -100 55 0
      vertex -36.85 21.4722 0
    endloop
  endfacet
  facet normal 0 0 -1
    outer loop
      vertex -37.2021 21.2021 0
      vertex -100 55 0
      vertex -37.0349 21.3487 0
    endloop
  endfacet
  facet normal 0 0 -1
    outer loop
      vertex -37.3487 21.0349 0
      vertex -100 55 0
      vertex -37.2021 21.2021 0
    endloop
  endfacet
  facet normal 0 0 -1
    outer loop
      vertex -37.6421 20.44 0
      vertex -100 55 0
      vertex -37.5706 20.6506 0
    endloop
  endfacet
  facet normal 0 0 -1
    outer loop
      vertex -107 -48 0
      vertex -100 -55 0
      vertex -100.914 -54.9401 0
    endloop
  endfacet
  facet normal 0 0 -1
    outer loop
      vertex -37.5706 20.6506 0
      vertex -100 55 0
      vertex -37.4722 20.85 0
    endloop
  endfacet
  facet normal 0 0 -1
    outer loop
      vertex -107 -48 0
      vertex -100.914 -54.9401 0
      vertex -101.812 -54.7615 0
    endloop
  endfacet
  facet normal 0 0 -1
    outer loop
      vertex -37.4722 20.85 0
      vertex -100 55 0
      vertex -37.3487 21.0349 0
    endloop
  endfacet
  facet normal 0 0 -1
    outer loop
      vertex -107 -48 0
      vertex -101.812 -54.7615 0
      vertex -102.679 -54.4672 0
    endloop
  endfacet
  facet normal 0 0 -1
    outer loop
      vertex -100 55 0
      vertex -107 48 0
      vertex -100.914 54.9401 0
    endloop
  endfacet
  facet normal 0 0 -1
    outer loop
      vertex -107 -48 0
      vertex -102.679 -54.4672 0
      vertex -103.5 -54.0622 0
    endloop
  endfacet
  facet normal 0 0 -1
    outer loop
      vertex -100.914 54.9401 0
      vertex -107 48 0
      vertex -101.812 54.7615 0
    endloop
  endfacet
  facet normal 0 0 -1
    outer loop
      vertex -107 -48 0
      vertex -103.5 -54.0622 0
      vertex -104.261 -53.5535 0
    endloop
  endfacet
  facet normal 0 0 -1
    outer loop
      vertex -101.812 54.7615 0
      vertex -107 48 0
      vertex -102.679 54.4672 0
    endloop
  endfacet
  facet normal 0 0 -1
    outer loop
      vertex -107 -48 0
      vertex -104.261 -53.5535 0
      vertex -104.95 -52.9498 0
    endloop
  endfacet
  facet normal 0 0 -1
    outer loop
      vertex -102.679 54.4672 0
      vertex -107 48 0
      vertex -103.5 54.0622 0
    endloop
  endfacet
  facet normal 0 0 -1
    outer loop
      vertex -107 -48 0
      vertex -104.95 -52.9498 0
      vertex -105.553 -52.2613 0
    endloop
  endfacet
  facet normal 0 0 -1
    outer loop
      vertex -103.5 54.0622 0
      vertex -107 48 0
      vertex -104.261 53.5535 0
    endloop
  endfacet
  facet normal 0 0 -1
    outer loop
      vertex -107 -48 0
      vertex -105.553 -52.2613 0
      vertex -106.062 -51.5 0
    endloop
  endfacet
  facet normal 0 0 -1
    outer loop
      vertex -104.261 53.5535 0
      vertex -107 48 0
      vertex -104.95 52.9498 0
    endloop
  endfacet
  facet normal 0 0 -1
    outer loop
      vertex -107 -48 0
      vertex -106.062 -51.5 0
      vertex -106.467 -50.6788 0
    endloop
  endfacet
  facet normal 0 0 -1
    outer loop
      vertex -104.95 52.9498 0
      vertex -107 48 0
      vertex -105.553 52.2613 0
    endloop
  endfacet
  facet normal 0 0 -1
    outer loop
      vertex -107 -48 0
      vertex -106.467 -50.6788 0
      vertex -106.761 -49.8117 0
    endloop
  endfacet
  facet normal 0 0 -1
    outer loop
      vertex -105.553 52.2613 0
      vertex -107 48 0
      vertex -106.062 51.5 0
    endloop
  endfacet
  facet normal 0 0 -1
    outer loop
      vertex -107 -48 0
      vertex -106.761 -49.8117 0
      vertex -106.94 -48.9137 0
    endloop
  endfacet
  facet normal 0 0 -1
    outer loop
      vertex -106.062 51.5 0
      vertex -107 48 0
      vertex -106.467 50.6788 0
    endloop
  endfacet
  facet normal 0 0 -1
    outer loop
      vertex -106.467 50.6788 0
      vertex -107 48 0
      vertex -106.761 49.8117 0
    endloop
  endfacet
  facet normal 0 0 -1
    outer loop
      vertex -106.761 49.8117 0
      vertex -107 48 0
      vertex -106.94 48.9137 0
    endloop
  endfacet
  facet normal -0.555733 -0.831361 0
    outer loop
      vertex -104.261 -53.5535 0
      vertex -103.5 -54.0622 16
      vertex -104.261 -53.5535 16
    endloop
  endfacet
  facet normal -0.555733 -0.831361 -0
    outer loop
      vertex -103.5 -54.0622 16
      vertex -104.261 -53.5535 0
      vertex -103.5 -54.0622 0
    endloop
  endfacet
  facet normal -0.321433 -0.946932 0
    outer loop
      vertex -102.679 -54.4672 0
      vertex -101.812 -54.7615 16
      vertex -102.679 -54.4672 16
    endloop
  endfacet
  facet normal -0.321433 -0.946932 -0
    outer loop
      vertex -101.812 -54.7615 16
      vertex -102.679 -54.4672 0
      vertex -101.812 -54.7615 0
    endloop
  endfacet
  facet normal 0.752272 0.658853 0
    outer loop
      vertex 105.553 52.2613 16
      vertex 104.95 52.9498 0
      vertex 104.95 52.9498 16
    endloop
  endfacet
  facet normal 0.752272 0.658853 0
    outer loop
      vertex 104.95 52.9498 0
      vertex 105.553 52.2613 16
      vertex 105.553 52.2613 0
    endloop
  endfacet
  facet normal 0.89686 0.442314 0
    outer loop
      vertex 106.467 50.6788 16
      vertex 106.062 51.5 0
      vertex 106.062 51.5 16
    endloop
  endfacet
  facet normal 0.89686 0.442314 0
    outer loop
      vertex 106.062 51.5 0
      vertex 106.467 50.6788 16
      vertex 106.467 50.6788 0
    endloop
  endfacet
  facet normal 0.997851 -0.0655259 0
    outer loop
      vertex 106.94 -48.9137 16
      vertex 107 -48 0
      vertex 107 -48 16
    endloop
  endfacet
  facet normal 0.997851 -0.0655259 0
    outer loop
      vertex 107 -48 0
      vertex 106.94 -48.9137 16
      vertex 106.94 -48.9137 0
    endloop
  endfacet
  facet normal 0.89686 -0.442314 0
    outer loop
      vertex 106.062 -51.5 16
      vertex 106.467 -50.6788 0
      vertex 106.467 -50.6788 16
    endloop
  endfacet
  facet normal 0.89686 -0.442314 0
    outer loop
      vertex 106.467 -50.6788 0
      vertex 106.062 -51.5 16
      vertex 106.062 -51.5 0
    endloop
  endfacet
  facet normal -0.555733 0.831361 0
    outer loop
      vertex -103.5 54.0622 0
      vertex -104.261 53.5535 16
      vertex -103.5 54.0622 16
    endloop
  endfacet
  facet normal -0.555733 0.831361 0
    outer loop
      vertex -104.261 53.5535 16
      vertex -103.5 54.0622 0
      vertex -104.261 53.5535 0
    endloop
  endfacet
  facet normal -0.980706 -0.195486 0
    outer loop
      vertex -106.761 -49.8117 0
      vertex -106.94 -48.9137 16
      vertex -106.94 -48.9137 0
    endloop
  endfacet
  facet normal -0.980706 -0.195486 0
    outer loop
      vertex -106.94 -48.9137 16
      vertex -106.761 -49.8117 0
      vertex -106.761 -49.8117 16
    endloop
  endfacet
  facet normal -0.997851 -0.0655259 0
    outer loop
      vertex -106.94 -48.9137 0
      vertex -107 -48 16
      vertex -107 -48 0
    endloop
  endfacet
  facet normal -0.997851 -0.0655259 0
    outer loop
      vertex -107 -48 16
      vertex -106.94 -48.9137 0
      vertex -106.94 -48.9137 16
    endloop
  endfacet
  facet normal -0.752272 -0.658853 0
    outer loop
      vertex -104.95 -52.9498 0
      vertex -105.553 -52.2613 16
      vertex -105.553 -52.2613 0
    endloop
  endfacet
  facet normal -0.752272 -0.658853 0
    outer loop
      vertex -105.553 -52.2613 16
      vertex -104.95 -52.9498 0
      vertex -104.95 -52.9498 16
    endloop
  endfacet
  facet normal -0.83131 -0.555808 0
    outer loop
      vertex -105.553 -52.2613 0
      vertex -106.062 -51.5 16
      vertex -106.062 -51.5 0
    endloop
  endfacet
  facet normal -0.83131 -0.555808 0
    outer loop
      vertex -106.062 -51.5 16
      vertex -105.553 -52.2613 0
      vertex -105.553 -52.2613 16
    endloop
  endfacet
  facet normal 0.442401 0.896817 -0
    outer loop
      vertex 103.5 54.0622 0
      vertex 102.679 54.4672 16
      vertex 103.5 54.0622 16
    endloop
  endfacet
  facet normal 0.442401 0.896817 0
    outer loop
      vertex 102.679 54.4672 16
      vertex 103.5 54.0622 0
      vertex 102.679 54.4672 0
    endloop
  endfacet
  facet normal 0.321433 0.946932 -0
    outer loop
      vertex 102.679 54.4672 0
      vertex 101.812 54.7615 16
      vertex 102.679 54.4672 16
    endloop
  endfacet
  facet normal 0.321433 0.946932 0
    outer loop
      vertex 101.812 54.7615 16
      vertex 102.679 54.4672 0
      vertex 101.812 54.7615 0
    endloop
  endfacet
  facet normal 0.83131 0.555808 0
    outer loop
      vertex 106.062 51.5 16
      vertex 105.553 52.2613 0
      vertex 105.553 52.2613 16
    endloop
  endfacet
  facet normal 0.83131 0.555808 0
    outer loop
      vertex 105.553 52.2613 0
      vertex 106.062 51.5 16
      vertex 106.062 51.5 0
    endloop
  endfacet
  facet normal 0.947043 0.321106 0
    outer loop
      vertex 106.761 49.8117 16
      vertex 106.467 50.6788 0
      vertex 106.467 50.6788 16
    endloop
  endfacet
  facet normal 0.947043 0.321106 0
    outer loop
      vertex 106.467 50.6788 0
      vertex 106.761 49.8117 16
      vertex 106.761 49.8117 0
    endloop
  endfacet
  facet normal 0.980706 -0.195486 0
    outer loop
      vertex 106.761 -49.8117 16
      vertex 106.94 -48.9137 0
      vertex 106.94 -48.9137 16
    endloop
  endfacet
  facet normal 0.980706 -0.195486 0
    outer loop
      vertex 106.94 -48.9137 0
      vertex 106.761 -49.8117 16
      vertex 106.761 -49.8117 0
    endloop
  endfacet
  facet normal 0.947043 -0.321106 0
    outer loop
      vertex 106.467 -50.6788 16
      vertex 106.761 -49.8117 0
      vertex 106.761 -49.8117 16
    endloop
  endfacet
  facet normal 0.947043 -0.321106 0
    outer loop
      vertex 106.761 -49.8117 0
      vertex 106.467 -50.6788 16
      vertex 106.467 -50.6788 0
    endloop
  endfacet
  facet normal 0.83131 -0.555808 0
    outer loop
      vertex 105.553 -52.2613 16
      vertex 106.062 -51.5 0
      vertex 106.062 -51.5 16
    endloop
  endfacet
  facet normal 0.83131 -0.555808 0
    outer loop
      vertex 106.062 -51.5 0
      vertex 105.553 -52.2613 16
      vertex 105.553 -52.2613 0
    endloop
  endfacet
  facet normal 0.195066 0.98079 -0
    outer loop
      vertex 101.812 54.7615 0
      vertex 100.914 54.9401 16
      vertex 101.812 54.7615 16
    endloop
  endfacet
  facet normal 0.195066 0.98079 0
    outer loop
      vertex 100.914 54.9401 16
      vertex 101.812 54.7615 0
      vertex 100.914 54.9401 0
    endloop
  endfacet
  facet normal 0.555733 0.831361 -0
    outer loop
      vertex 104.261 53.5535 0
      vertex 103.5 54.0622 16
      vertex 104.261 53.5535 16
    endloop
  endfacet
  facet normal 0.555733 0.831361 0
    outer loop
      vertex 103.5 54.0622 16
      vertex 104.261 53.5535 0
      vertex 103.5 54.0622 0
    endloop
  endfacet
  facet normal 0.659015 0.75213 -0
    outer loop
      vertex 104.95 52.9498 0
      vertex 104.261 53.5535 16
      vertex 104.95 52.9498 16
    endloop
  endfacet
  facet normal 0.659015 0.75213 0
    outer loop
      vertex 104.261 53.5535 16
      vertex 104.95 52.9498 0
      vertex 104.261 53.5535 0
    endloop
  endfacet
  facet normal 0.980706 0.195486 0
    outer loop
      vertex 106.94 48.9137 16
      vertex 106.761 49.8117 0
      vertex 106.761 49.8117 16
    endloop
  endfacet
  facet normal 0.980706 0.195486 0
    outer loop
      vertex 106.761 49.8117 0
      vertex 106.94 48.9137 16
      vertex 106.94 48.9137 0
    endloop
  endfacet
  facet normal 0.997851 0.0655259 0
    outer loop
      vertex 107 48 16
      vertex 106.94 48.9137 0
      vertex 106.94 48.9137 16
    endloop
  endfacet
  facet normal 0.997851 0.0655259 0
    outer loop
      vertex 106.94 48.9137 0
      vertex 107 48 16
      vertex 107 48 0
    endloop
  endfacet
  facet normal 0.752272 -0.658853 0
    outer loop
      vertex 104.95 -52.9498 16
      vertex 105.553 -52.2613 0
      vertex 105.553 -52.2613 16
    endloop
  endfacet
  facet normal 0.752272 -0.658853 0
    outer loop
      vertex 105.553 -52.2613 0
      vertex 104.95 -52.9498 16
      vertex 104.95 -52.9498 0
    endloop
  endfacet
  facet normal 0.659015 -0.75213 0
    outer loop
      vertex 104.261 -53.5535 0
      vertex 104.95 -52.9498 16
      vertex 104.261 -53.5535 16
    endloop
  endfacet
  facet normal 0.659015 -0.75213 0
    outer loop
      vertex 104.95 -52.9498 16
      vertex 104.261 -53.5535 0
      vertex 104.95 -52.9498 0
    endloop
  endfacet
  facet normal 1 -0 0
    outer loop
      vertex -48.15 7.85 16
      vertex -48.15 50.15 7.9
      vertex -48.15 50.15 16
    endloop
  endfacet
  facet normal 1 0 0
    outer loop
      vertex -48.15 50.15 7.9
      vertex -48.15 7.85 16
      vertex -48.15 7.85 7.9
    endloop
  endfacet
  facet normal -1 0 0
    outer loop
      vertex 48.15 7.85 7.9
      vertex 48.15 50.15 16
      vertex 48.15 50.15 7.9
    endloop
  endfacet
  facet normal -1 -0 0
    outer loop
      vertex 48.15 50.15 16
      vertex 48.15 7.85 7.9
      vertex 48.15 7.85 16
    endloop
  endfacet
  facet normal -0 0 1
    outer loop
      vertex 37.5706 20.6506 7.9
      vertex 48.15 7.85 7.9
      vertex 48.15 50.15 7.9
    endloop
  endfacet
  facet normal 0 0 1
    outer loop
      vertex 48.15 7.85 7.9
      vertex 37.6855 20.2219 7.9
      vertex 37.7 20 7.9
    endloop
  endfacet
  facet normal 0 0 1
    outer loop
      vertex 48.15 7.85 7.9
      vertex 37.6421 20.44 7.9
      vertex 37.6855 20.2219 7.9
    endloop
  endfacet
  facet normal 0 0 1
    outer loop
      vertex 48.15 7.85 7.9
      vertex 37.5706 20.6506 7.9
      vertex 37.6421 20.44 7.9
    endloop
  endfacet
  facet normal 0 0 1
    outer loop
      vertex 48.15 50.15 7.9
      vertex 37.4722 20.85 7.9
      vertex 37.5706 20.6506 7.9
    endloop
  endfacet
  facet normal 0 0 1
    outer loop
      vertex 48.15 50.15 7.9
      vertex 37.3487 21.0349 7.9
      vertex 37.4722 20.85 7.9
    endloop
  endfacet
  facet normal 0 0 1
    outer loop
      vertex 48.15 50.15 7.9
      vertex 37.2021 21.2021 7.9
      vertex 37.3487 21.0349 7.9
    endloop
  endfacet
  facet normal 0 0 1
    outer loop
      vertex 48.15 50.15 7.9
      vertex 37.0349 21.3487 7.9
      vertex 37.2021 21.2021 7.9
    endloop
  endfacet
  facet normal 0 0 1
    outer loop
      vertex 48.15 50.15 7.9
      vertex 36.85 21.4722 7.9
      vertex 37.0349 21.3487 7.9
    endloop
  endfacet
  facet normal 0 0 1
    outer loop
      vertex 48.15 50.15 7.9
      vertex 36.6506 21.5706 7.9
      vertex 36.85 21.4722 7.9
    endloop
  endfacet
  facet normal 0 0 1
    outer loop
      vertex 48.15 50.15 7.9
      vertex 36.44 21.6421 7.9
      vertex 36.6506 21.5706 7.9
    endloop
  endfacet
  facet normal 0 0 1
    outer loop
      vertex 48.15 50.15 7.9
      vertex 36.2219 21.6855 7.9
      vertex 36.44 21.6421 7.9
    endloop
  endfacet
  facet normal 0 0 1
    outer loop
      vertex 48.15 50.15 7.9
      vertex 36 21.7 7.9
      vertex 36.2219 21.6855 7.9
    endloop
  endfacet
  facet normal 0 0 1
    outer loop
      vertex 48.15 50.15 7.9
      vertex 35.7781 21.6855 7.9
      vertex 36 21.7 7.9
    endloop
  endfacet
  facet normal 0 0 1
    outer loop
      vertex 48.15 50.15 7.9
      vertex 35.56 21.6421 7.9
      vertex 35.7781 21.6855 7.9
    endloop
  endfacet
  facet normal 0 0 1
    outer loop
      vertex 48.15 50.15 7.9
      vertex 35.3494 21.5706 7.9
      vertex 35.56 21.6421 7.9
    endloop
  endfacet
  facet normal 0 0 1
    outer loop
      vertex 48.15 50.15 7.9
      vertex 35.15 21.4722 7.9
      vertex 35.3494 21.5706 7.9
    endloop
  endfacet
  facet normal 0 0 1
    outer loop
      vertex 48.15 50.15 7.9
      vertex 34.9651 21.3487 7.9
      vertex 35.15 21.4722 7.9
    endloop
  endfacet
  facet normal 0 0 1
    outer loop
      vertex 48.15 50.15 7.9
      vertex 34.7979 21.2021 7.9
      vertex 34.9651 21.3487 7.9
    endloop
  endfacet
  facet normal 0 0 1
    outer loop
      vertex -34.7979 21.2021 7.9
      vertex 34.7979 21.2021 7.9
      vertex 48.15 50.15 7.9
    endloop
  endfacet
  facet normal 0 0 1
    outer loop
      vertex 34.7979 21.2021 7.9
      vertex -34.7979 21.2021 7.9
      vertex 34.6513 21.0349 7.9
    endloop
  endfacet
  facet normal 0 -0 1
    outer loop
      vertex -34.6513 21.0349 7.9
      vertex 34.6513 21.0349 7.9
      vertex -34.7979 21.2021 7.9
    endloop
  endfacet
  facet normal 0 0 1
    outer loop
      vertex 34.3145 20.2219 7.9
      vertex -34.3 20 7.9
      vertex 34.3 20 7.9
    endloop
  endfacet
  facet normal 0 0 1
    outer loop
      vertex -34.3145 20.2219 7.9
      vertex 34.3145 20.2219 7.9
      vertex 34.3579 20.44 7.9
    endloop
  endfacet
  facet normal 0 0 1
    outer loop
      vertex -34.3579 20.44 7.9
      vertex 34.3579 20.44 7.9
      vertex 34.4294 20.6506 7.9
    endloop
  endfacet
  facet normal 0 0 1
    outer loop
      vertex 34.6513 21.0349 7.9
      vertex -34.6513 21.0349 7.9
      vertex 34.5278 20.85 7.9
    endloop
  endfacet
  facet normal 0 0 1
    outer loop
      vertex 34.3145 20.2219 7.9
      vertex -34.3145 20.2219 7.9
      vertex -34.3 20 7.9
    endloop
  endfacet
  facet normal 0 0 1
    outer loop
      vertex 34.3579 20.44 7.9
      vertex -34.3579 20.44 7.9
      vertex -34.3145 20.2219 7.9
    endloop
  endfacet
  facet normal 0 0 1
    outer loop
      vertex 34.4294 20.6506 7.9
      vertex -34.4294 20.6506 7.9
      vertex -34.3579 20.44 7.9
    endloop
  endfacet
  facet normal 0 0 1
    outer loop
      vertex 34.4294 20.6506 7.9
      vertex -34.5278 20.85 7.9
      vertex -34.4294 20.6506 7.9
    endloop
  endfacet
  facet normal 0 0 1
    outer loop
      vertex 34.5278 20.85 7.9
      vertex -34.5278 20.85 7.9
      vertex 34.4294 20.6506 7.9
    endloop
  endfacet
  facet normal 0 -0 1
    outer loop
      vertex -34.5278 20.85 7.9
      vertex 34.5278 20.85 7.9
      vertex -34.6513 21.0349 7.9
    endloop
  endfacet
  facet normal -0 0 1
    outer loop
      vertex -48.15 50.15 7.9
      vertex -34.7979 21.2021 7.9
      vertex 48.15 50.15 7.9
    endloop
  endfacet
  facet normal 0 0 1
    outer loop
      vertex -34.7979 21.2021 7.9
      vertex -48.15 50.15 7.9
      vertex -34.9651 21.3487 7.9
    endloop
  endfacet
  facet normal 0 0 1
    outer loop
      vertex -34.9651 21.3487 7.9
      vertex -48.15 50.15 7.9
      vertex -35.15 21.4722 7.9
    endloop
  endfacet
  facet normal 0 0 1
    outer loop
      vertex -35.15 21.4722 7.9
      vertex -48.15 50.15 7.9
      vertex -35.3494 21.5706 7.9
    endloop
  endfacet
  facet normal 0 0 1
    outer loop
      vertex -35.3494 21.5706 7.9
      vertex -48.15 50.15 7.9
      vertex -35.56 21.6421 7.9
    endloop
  endfacet
  facet normal 0 0 1
    outer loop
      vertex -35.56 21.6421 7.9
      vertex -48.15 50.15 7.9
      vertex -35.7781 21.6855 7.9
    endloop
  endfacet
  facet normal 0 0 1
    outer loop
      vertex -35.7781 21.6855 7.9
      vertex -48.15 50.15 7.9
      vertex -36 21.7 7.9
    endloop
  endfacet
  facet normal 0 0 1
    outer loop
      vertex -36 21.7 7.9
      vertex -48.15 50.15 7.9
      vertex -36.2219 21.6855 7.9
    endloop
  endfacet
  facet normal 0 0 1
    outer loop
      vertex -37.6421 20.44 7.9
      vertex -48.15 7.85 7.9
      vertex -37.6855 20.2219 7.9
    endloop
  endfacet
  facet normal 0 0 1
    outer loop
      vertex -37.5706 20.6506 7.9
      vertex -48.15 7.85 7.9
      vertex -37.6421 20.44 7.9
    endloop
  endfacet
  facet normal 0 0 1
    outer loop
      vertex -48.15 7.85 7.9
      vertex -37.5706 20.6506 7.9
      vertex -48.15 50.15 7.9
    endloop
  endfacet
  facet normal 0 0 1
    outer loop
      vertex -37.4722 20.85 7.9
      vertex -48.15 50.15 7.9
      vertex -37.5706 20.6506 7.9
    endloop
  endfacet
  facet normal 0 0 1
    outer loop
      vertex -37.3487 21.0349 7.9
      vertex -48.15 50.15 7.9
      vertex -37.4722 20.85 7.9
    endloop
  endfacet
  facet normal 0 0 1
    outer loop
      vertex -37.2021 21.2021 7.9
      vertex -48.15 50.15 7.9
      vertex -37.3487 21.0349 7.9
    endloop
  endfacet
  facet normal 0 0 1
    outer loop
      vertex -37.0349 21.3487 7.9
      vertex -48.15 50.15 7.9
      vertex -37.2021 21.2021 7.9
    endloop
  endfacet
  facet normal 0 0 1
    outer loop
      vertex -36.85 21.4722 7.9
      vertex -48.15 50.15 7.9
      vertex -37.0349 21.3487 7.9
    endloop
  endfacet
  facet normal 0 0 1
    outer loop
      vertex -36.6506 21.5706 7.9
      vertex -48.15 50.15 7.9
      vertex -36.85 21.4722 7.9
    endloop
  endfacet
  facet normal 0 0 1
    outer loop
      vertex -36.44 21.6421 7.9
      vertex -48.15 50.15 7.9
      vertex -36.6506 21.5706 7.9
    endloop
  endfacet
  facet normal 0 0 1
    outer loop
      vertex -36.2219 21.6855 7.9
      vertex -48.15 50.15 7.9
      vertex -36.44 21.6421 7.9
    endloop
  endfacet
  facet normal -0 0 1
    outer loop
      vertex 37.6855 19.7781 7.9
      vertex 48.15 7.85 7.9
      vertex 37.7 20 7.9
    endloop
  endfacet
  facet normal -0 0 1
    outer loop
      vertex 37.6421 19.56 7.9
      vertex 48.15 7.85 7.9
      vertex 37.6855 19.7781 7.9
    endloop
  endfacet
  facet normal -0 0 1
    outer loop
      vertex 37.5706 19.3494 7.9
      vertex 48.15 7.85 7.9
      vertex 37.6421 19.56 7.9
    endloop
  endfacet
  facet normal -0 0 1
    outer loop
      vertex 37.4722 19.15 7.9
      vertex 48.15 7.85 7.9
      vertex 37.5706 19.3494 7.9
    endloop
  endfacet
  facet normal -0 0 1
    outer loop
      vertex 37.3487 18.9651 7.9
      vertex 48.15 7.85 7.9
      vertex 37.4722 19.15 7.9
    endloop
  endfacet
  facet normal -0 0 1
    outer loop
      vertex 37.2021 18.7979 7.9
      vertex 48.15 7.85 7.9
      vertex 37.3487 18.9651 7.9
    endloop
  endfacet
  facet normal -0 0 1
    outer loop
      vertex 37.0349 18.6513 7.9
      vertex 48.15 7.85 7.9
      vertex 37.2021 18.7979 7.9
    endloop
  endfacet
  facet normal -0 0 1
    outer loop
      vertex 36.85 18.5278 7.9
      vertex 48.15 7.85 7.9
      vertex 37.0349 18.6513 7.9
    endloop
  endfacet
  facet normal -0 0 1
    outer loop
      vertex 36.6506 18.4294 7.9
      vertex 48.15 7.85 7.9
      vertex 36.85 18.5278 7.9
    endloop
  endfacet
  facet normal -0 0 1
    outer loop
      vertex 36.44 18.3579 7.9
      vertex 48.15 7.85 7.9
      vertex 36.6506 18.4294 7.9
    endloop
  endfacet
  facet normal -0 0 1
    outer loop
      vertex 36.2219 18.3145 7.9
      vertex 48.15 7.85 7.9
      vertex 36.44 18.3579 7.9
    endloop
  endfacet
  facet normal -0 0 1
    outer loop
      vertex 36 18.3 7.9
      vertex 48.15 7.85 7.9
      vertex 36.2219 18.3145 7.9
    endloop
  endfacet
  facet normal 0 0 1
    outer loop
      vertex 35.7781 18.3145 7.9
      vertex 48.15 7.85 7.9
      vertex 36 18.3 7.9
    endloop
  endfacet
  facet normal 0 0 1
    outer loop
      vertex 35.56 18.3579 7.9
      vertex 48.15 7.85 7.9
      vertex 35.7781 18.3145 7.9
    endloop
  endfacet
  facet normal 0 0 1
    outer loop
      vertex 35.3494 18.4294 7.9
      vertex 48.15 7.85 7.9
      vertex 35.56 18.3579 7.9
    endloop
  endfacet
  facet normal 0 0 1
    outer loop
      vertex 35.15 18.5278 7.9
      vertex 48.15 7.85 7.9
      vertex 35.3494 18.4294 7.9
    endloop
  endfacet
  facet normal 0 0 1
    outer loop
      vertex -35.15 18.5278 7.9
      vertex 35.15 18.5278 7.9
      vertex 34.9651 18.6513 7.9
    endloop
  endfacet
  facet normal -0 0 1
    outer loop
      vertex -34.3 20 7.9
      vertex 34.3145 19.7781 7.9
      vertex 34.3 20 7.9
    endloop
  endfacet
  facet normal 0 0 1
    outer loop
      vertex -34.3145 19.7781 7.9
      vertex 34.3145 19.7781 7.9
      vertex -34.3 20 7.9
    endloop
  endfacet
  facet normal 0 0 1
    outer loop
      vertex 34.3145 19.7781 7.9
      vertex -34.3145 19.7781 7.9
      vertex 34.3579 19.56 7.9
    endloop
  endfacet
  facet normal 0 0 1
    outer loop
      vertex -34.3579 19.56 7.9
      vertex 34.3579 19.56 7.9
      vertex -34.3145 19.7781 7.9
    endloop
  endfacet
  facet normal 0 0 1
    outer loop
      vertex 34.3579 19.56 7.9
      vertex -34.3579 19.56 7.9
      vertex 34.4294 19.3494 7.9
    endloop
  endfacet
  facet normal 0 0 1
    outer loop
      vertex -34.4294 19.3494 7.9
      vertex 34.4294 19.3494 7.9
      vertex -34.3579 19.56 7.9
    endloop
  endfacet
  facet normal 0 0 1
    outer loop
      vertex 34.4294 19.3494 7.9
      vertex -34.4294 19.3494 7.9
      vertex 34.5278 19.15 7.9
    endloop
  endfacet
  facet normal 0 0 1
    outer loop
      vertex -34.5278 19.15 7.9
      vertex 34.5278 19.15 7.9
      vertex -34.4294 19.3494 7.9
    endloop
  endfacet
  facet normal 0 0 1
    outer loop
      vertex 34.5278 19.15 7.9
      vertex -34.5278 19.15 7.9
      vertex 34.6513 18.9651 7.9
    endloop
  endfacet
  facet normal 0 0 1
    outer loop
      vertex -34.6513 18.9651 7.9
      vertex 34.6513 18.9651 7.9
      vertex -34.5278 19.15 7.9
    endloop
  endfacet
  facet normal 0 0 1
    outer loop
      vertex 34.6513 18.9651 7.9
      vertex -34.6513 18.9651 7.9
      vertex 34.7979 18.7979 7.9
    endloop
  endfacet
  facet normal 0 0 1
    outer loop
      vertex -34.7979 18.7979 7.9
      vertex 34.7979 18.7979 7.9
      vertex -34.6513 18.9651 7.9
    endloop
  endfacet
  facet normal 0 0 1
    outer loop
      vertex 34.7979 18.7979 7.9
      vertex -34.7979 18.7979 7.9
      vertex 34.9651 18.6513 7.9
    endloop
  endfacet
  facet normal 0 0 1
    outer loop
      vertex -34.9651 18.6513 7.9
      vertex 34.9651 18.6513 7.9
      vertex -34.7979 18.7979 7.9
    endloop
  endfacet
  facet normal 0 0 1
    outer loop
      vertex -35.15 18.5278 7.9
      vertex 34.9651 18.6513 7.9
      vertex -34.9651 18.6513 7.9
    endloop
  endfacet
  facet normal 0 0 1
    outer loop
      vertex 35.15 18.5278 7.9
      vertex -35.15 18.5278 7.9
      vertex 48.15 7.85 7.9
    endloop
  endfacet
  facet normal 0 0 1
    outer loop
      vertex -48.15 7.85 7.9
      vertex -35.15 18.5278 7.9
      vertex -35.3494 18.4294 7.9
    endloop
  endfacet
  facet normal 0 0 1
    outer loop
      vertex -48.15 7.85 7.9
      vertex -35.3494 18.4294 7.9
      vertex -35.56 18.3579 7.9
    endloop
  endfacet
  facet normal 0 0 1
    outer loop
      vertex -48.15 7.85 7.9
      vertex -35.56 18.3579 7.9
      vertex -35.7781 18.3145 7.9
    endloop
  endfacet
  facet normal 0 0 1
    outer loop
      vertex -48.15 7.85 7.9
      vertex -35.7781 18.3145 7.9
      vertex -36 18.3 7.9
    endloop
  endfacet
  facet normal 0 0 1
    outer loop
      vertex -48.15 7.85 7.9
      vertex -36 18.3 7.9
      vertex -36.2219 18.3145 7.9
    endloop
  endfacet
  facet normal 0 0 1
    outer loop
      vertex -37.6855 20.2219 7.9
      vertex -48.15 7.85 7.9
      vertex -37.7 20 7.9
    endloop
  endfacet
  facet normal 0 0 1
    outer loop
      vertex -37.7 20 7.9
      vertex -48.15 7.85 7.9
      vertex -37.6855 19.7781 7.9
    endloop
  endfacet
  facet normal 0 0 1
    outer loop
      vertex -37.6855 19.7781 7.9
      vertex -48.15 7.85 7.9
      vertex -37.6421 19.56 7.9
    endloop
  endfacet
  facet normal 0 0 1
    outer loop
      vertex -35.15 18.5278 7.9
      vertex -48.15 7.85 7.9
      vertex 48.15 7.85 7.9
    endloop
  endfacet
  facet normal 0 0 1
    outer loop
      vertex -36.44 18.3579 7.9
      vertex -48.15 7.85 7.9
      vertex -36.2219 18.3145 7.9
    endloop
  endfacet
  facet normal 0 0 1
    outer loop
      vertex -36.6506 18.4294 7.9
      vertex -48.15 7.85 7.9
      vertex -36.44 18.3579 7.9
    endloop
  endfacet
  facet normal 0 0 1
    outer loop
      vertex -36.85 18.5278 7.9
      vertex -48.15 7.85 7.9
      vertex -36.6506 18.4294 7.9
    endloop
  endfacet
  facet normal 0 0 1
    outer loop
      vertex -37.0349 18.6513 7.9
      vertex -48.15 7.85 7.9
      vertex -36.85 18.5278 7.9
    endloop
  endfacet
  facet normal 0 0 1
    outer loop
      vertex -37.2021 18.7979 7.9
      vertex -48.15 7.85 7.9
      vertex -37.0349 18.6513 7.9
    endloop
  endfacet
  facet normal 0 0 1
    outer loop
      vertex -37.3487 18.9651 7.9
      vertex -48.15 7.85 7.9
      vertex -37.2021 18.7979 7.9
    endloop
  endfacet
  facet normal 0 0 1
    outer loop
      vertex -37.4722 19.15 7.9
      vertex -48.15 7.85 7.9
      vertex -37.3487 18.9651 7.9
    endloop
  endfacet
  facet normal 0 0 1
    outer loop
      vertex -37.5706 19.3494 7.9
      vertex -48.15 7.85 7.9
      vertex -37.4722 19.15 7.9
    endloop
  endfacet
  facet normal 0 0 1
    outer loop
      vertex -37.6421 19.56 7.9
      vertex -48.15 7.85 7.9
      vertex -37.5706 19.3494 7.9
    endloop
  endfacet
  facet normal 0 1 -0
    outer loop
      vertex 48.15 7.85 7.9
      vertex -48.15 7.85 16
      vertex 48.15 7.85 16
    endloop
  endfacet
  facet normal 0 1 0
    outer loop
      vertex -48.15 7.85 16
      vertex 48.15 7.85 7.9
      vertex -48.15 7.85 7.9
    endloop
  endfacet
  facet normal 0 -1 0
    outer loop
      vertex -48.15 50.15 7.9
      vertex 48.15 50.15 16
      vertex -48.15 50.15 16
    endloop
  endfacet
  facet normal 0 -1 -0
    outer loop
      vertex 48.15 50.15 16
      vertex -48.15 50.15 7.9
      vertex 48.15 50.15 7.9
    endloop
  endfacet
endsolid OpenSCAD_Model
