solid OpenSCAD_Model
  facet normal 0.321574 -0.946885 0
    outer loop
      vertex 19.7765 -14.8978 0
      vertex 20.1481 -14.7716 2.4
      vertex 19.7765 -14.8978 2.4
    endloop
  endfacet
  facet normal 0.321574 -0.946885 0
    outer loop
      vertex 20.1481 -14.7716 2.4
      vertex 19.7765 -14.8978 0
      vertex 20.1481 -14.7716 0
    endloop
  endfacet
  facet normal -0.19494 0.980815 0
    outer loop
      vertex -19.3916 14.9743 0
      vertex -19.7765 14.8978 2.4
      vertex -19.3916 14.9743 2.4
    endloop
  endfacet
  facet normal -0.19494 0.980815 0
    outer loop
      vertex -19.7765 14.8978 2.4
      vertex -19.3916 14.9743 0
      vertex -19.7765 14.8978 0
    endloop
  endfacet
  facet normal 0.19494 -0.980815 0
    outer loop
      vertex 19.3916 -14.9743 0
      vertex 19.7765 -14.8978 2.4
      vertex 19.3916 -14.9743 2.4
    endloop
  endfacet
  facet normal 0.19494 -0.980815 0
    outer loop
      vertex 19.7765 -14.8978 2.4
      vertex 19.3916 -14.9743 0
      vertex 19.7765 -14.8978 0
    endloop
  endfacet
  facet normal 0.659478 0.751724 -0
    outer loop
      vertex 21.1213 14.1213 0
      vertex 20.8263 14.3801 2.4
      vertex 21.1213 14.1213 2.4
    endloop
  endfacet
  facet normal 0.659478 0.751724 0
    outer loop
      vertex 20.8263 14.3801 2.4
      vertex 21.1213 14.1213 0
      vertex 20.8263 14.3801 0
    endloop
  endfacet
  facet normal -0.997853 0.0654873 0
    outer loop
      vertex -22 12 0
      vertex -21.9743 12.3916 2.4
      vertex -21.9743 12.3916 0
    endloop
  endfacet
  facet normal -0.997853 0.0654873 0
    outer loop
      vertex -21.9743 12.3916 2.4
      vertex -22 12 0
      vertex -22 12 2.4
    endloop
  endfacet
  facet normal 0 0 1
    outer loop
      vertex 19 15 2.4
      vertex 22 12 2.4
      vertex 21.9743 12.3916 2.4
    endloop
  endfacet
  facet normal 0 0 1
    outer loop
      vertex 22 12 2.4
      vertex 19 15 2.4
      vertex 22 -12 2.4
    endloop
  endfacet
  facet normal 0 0 1
    outer loop
      vertex 19 15 2.4
      vertex 21.9743 12.3916 2.4
      vertex 21.8978 12.7765 2.4
    endloop
  endfacet
  facet normal 0 0 1
    outer loop
      vertex 19 -15 2.4
      vertex 22 -12 2.4
      vertex 19 15 2.4
    endloop
  endfacet
  facet normal 0 0 1
    outer loop
      vertex 19 15 2.4
      vertex 21.8978 12.7765 2.4
      vertex 21.7716 13.1481 2.4
    endloop
  endfacet
  facet normal 0 0 1
    outer loop
      vertex 22 -12 2.4
      vertex 19 -15 2.4
      vertex 21.9743 -12.3916 2.4
    endloop
  endfacet
  facet normal 0 0 1
    outer loop
      vertex 19 15 2.4
      vertex 21.7716 13.1481 2.4
      vertex 21.5981 13.5 2.4
    endloop
  endfacet
  facet normal 0 0 1
    outer loop
      vertex 21.9743 -12.3916 2.4
      vertex 19 -15 2.4
      vertex 21.8978 -12.7765 2.4
    endloop
  endfacet
  facet normal 0 0 1
    outer loop
      vertex 19 15 2.4
      vertex 21.5981 13.5 2.4
      vertex 21.3801 13.8263 2.4
    endloop
  endfacet
  facet normal 0 0 1
    outer loop
      vertex 21.8978 -12.7765 2.4
      vertex 19 -15 2.4
      vertex 21.7716 -13.1481 2.4
    endloop
  endfacet
  facet normal 0 0 1
    outer loop
      vertex 19 15 2.4
      vertex 21.3801 13.8263 2.4
      vertex 21.1213 14.1213 2.4
    endloop
  endfacet
  facet normal 0 0 1
    outer loop
      vertex 21.7716 -13.1481 2.4
      vertex 19 -15 2.4
      vertex 21.5981 -13.5 2.4
    endloop
  endfacet
  facet normal 0 0 1
    outer loop
      vertex 19 15 2.4
      vertex 21.1213 14.1213 2.4
      vertex 20.8263 14.3801 2.4
    endloop
  endfacet
  facet normal 0 0 1
    outer loop
      vertex 21.5981 -13.5 2.4
      vertex 19 -15 2.4
      vertex 21.3801 -13.8263 2.4
    endloop
  endfacet
  facet normal 0 0 1
    outer loop
      vertex 19 15 2.4
      vertex 20.8263 14.3801 2.4
      vertex 20.5 14.5981 2.4
    endloop
  endfacet
  facet normal 0 0 1
    outer loop
      vertex 21.3801 -13.8263 2.4
      vertex 19 -15 2.4
      vertex 21.1213 -14.1213 2.4
    endloop
  endfacet
  facet normal 0 0 1
    outer loop
      vertex 19 15 2.4
      vertex 20.5 14.5981 2.4
      vertex 20.1481 14.7716 2.4
    endloop
  endfacet
  facet normal 0 0 1
    outer loop
      vertex 21.1213 -14.1213 2.4
      vertex 19 -15 2.4
      vertex 20.8263 -14.3801 2.4
    endloop
  endfacet
  facet normal 0 0 1
    outer loop
      vertex 19 15 2.4
      vertex 20.1481 14.7716 2.4
      vertex 19.7765 14.8978 2.4
    endloop
  endfacet
  facet normal 0 0 1
    outer loop
      vertex 20.8263 -14.3801 2.4
      vertex 19 -15 2.4
      vertex 20.5 -14.5981 2.4
    endloop
  endfacet
  facet normal 0 0 1
    outer loop
      vertex 19 15 2.4
      vertex 19.7765 14.8978 2.4
      vertex 19.3916 14.9743 2.4
    endloop
  endfacet
  facet normal 0 0 1
    outer loop
      vertex 20.5 -14.5981 2.4
      vertex 19 -15 2.4
      vertex 20.1481 -14.7716 2.4
    endloop
  endfacet
  facet normal 0 0 1
    outer loop
      vertex 20.1481 -14.7716 2.4
      vertex 19 -15 2.4
      vertex 19.7765 -14.8978 2.4
    endloop
  endfacet
  facet normal 0 0 1
    outer loop
      vertex 19.7765 -14.8978 2.4
      vertex 19 -15 2.4
      vertex 19.3916 -14.9743 2.4
    endloop
  endfacet
  facet normal -0 0 1
    outer loop
      vertex -19 15 2.4
      vertex 19 -15 2.4
      vertex 19 15 2.4
    endloop
  endfacet
  facet normal 0 0 1
    outer loop
      vertex -19 15 2.4
      vertex -19 -15 2.4
      vertex 19 -15 2.4
    endloop
  endfacet
  facet normal 0 0 1
    outer loop
      vertex -22 12 2.4
      vertex -19 15 2.4
      vertex -19.3916 14.9743 2.4
    endloop
  endfacet
  facet normal 0 0 1
    outer loop
      vertex -19 15 2.4
      vertex -22 12 2.4
      vertex -19 -15 2.4
    endloop
  endfacet
  facet normal 0 0 1
    outer loop
      vertex -22 12 2.4
      vertex -19.3916 14.9743 2.4
      vertex -19.7765 14.8978 2.4
    endloop
  endfacet
  facet normal -0 0 1
    outer loop
      vertex -22 -12 2.4
      vertex -19 -15 2.4
      vertex -22 12 2.4
    endloop
  endfacet
  facet normal 0 0 1
    outer loop
      vertex -22 12 2.4
      vertex -19.7765 14.8978 2.4
      vertex -20.1481 14.7716 2.4
    endloop
  endfacet
  facet normal 0 0 1
    outer loop
      vertex -19 -15 2.4
      vertex -22 -12 2.4
      vertex -19.3916 -14.9743 2.4
    endloop
  endfacet
  facet normal 0 0 1
    outer loop
      vertex -22 12 2.4
      vertex -20.1481 14.7716 2.4
      vertex -20.5 14.5981 2.4
    endloop
  endfacet
  facet normal 0 0 1
    outer loop
      vertex -19.3916 -14.9743 2.4
      vertex -22 -12 2.4
      vertex -19.7765 -14.8978 2.4
    endloop
  endfacet
  facet normal 0 0 1
    outer loop
      vertex -22 12 2.4
      vertex -20.5 14.5981 2.4
      vertex -20.8263 14.3801 2.4
    endloop
  endfacet
  facet normal 0 0 1
    outer loop
      vertex -19.7765 -14.8978 2.4
      vertex -22 -12 2.4
      vertex -20.1481 -14.7716 2.4
    endloop
  endfacet
  facet normal 0 0 1
    outer loop
      vertex -22 12 2.4
      vertex -20.8263 14.3801 2.4
      vertex -21.1213 14.1213 2.4
    endloop
  endfacet
  facet normal 0 0 1
    outer loop
      vertex -20.1481 -14.7716 2.4
      vertex -22 -12 2.4
      vertex -20.5 -14.5981 2.4
    endloop
  endfacet
  facet normal 0 0 1
    outer loop
      vertex -22 12 2.4
      vertex -21.1213 14.1213 2.4
      vertex -21.3801 13.8263 2.4
    endloop
  endfacet
  facet normal 0 0 1
    outer loop
      vertex -20.5 -14.5981 2.4
      vertex -22 -12 2.4
      vertex -20.8263 -14.3801 2.4
    endloop
  endfacet
  facet normal 0 0 1
    outer loop
      vertex -22 12 2.4
      vertex -21.3801 13.8263 2.4
      vertex -21.5981 13.5 2.4
    endloop
  endfacet
  facet normal 0 0 1
    outer loop
      vertex -20.8263 -14.3801 2.4
      vertex -22 -12 2.4
      vertex -21.1213 -14.1213 2.4
    endloop
  endfacet
  facet normal 0 0 1
    outer loop
      vertex -22 12 2.4
      vertex -21.5981 13.5 2.4
      vertex -21.7716 13.1481 2.4
    endloop
  endfacet
  facet normal 0 0 1
    outer loop
      vertex -21.1213 -14.1213 2.4
      vertex -22 -12 2.4
      vertex -21.3801 -13.8263 2.4
    endloop
  endfacet
  facet normal 0 0 1
    outer loop
      vertex -22 12 2.4
      vertex -21.7716 13.1481 2.4
      vertex -21.8978 12.7765 2.4
    endloop
  endfacet
  facet normal 0 0 1
    outer loop
      vertex -21.3801 -13.8263 2.4
      vertex -22 -12 2.4
      vertex -21.5981 -13.5 2.4
    endloop
  endfacet
  facet normal 0 0 1
    outer loop
      vertex -22 12 2.4
      vertex -21.8978 12.7765 2.4
      vertex -21.9743 12.3916 2.4
    endloop
  endfacet
  facet normal 0 0 1
    outer loop
      vertex -21.5981 -13.5 2.4
      vertex -22 -12 2.4
      vertex -21.7716 -13.1481 2.4
    endloop
  endfacet
  facet normal 0 0 1
    outer loop
      vertex -21.7716 -13.1481 2.4
      vertex -22 -12 2.4
      vertex -21.8978 -12.7765 2.4
    endloop
  endfacet
  facet normal 0 0 1
    outer loop
      vertex -21.8978 -12.7765 2.4
      vertex -22 -12 2.4
      vertex -21.9743 -12.3916 2.4
    endloop
  endfacet
  facet normal -1 0 0
    outer loop
      vertex -22 -12 0
      vertex -22 12 2.4
      vertex -22 12 0
    endloop
  endfacet
  facet normal -1 -0 0
    outer loop
      vertex -22 12 2.4
      vertex -22 -12 0
      vertex -22 -12 2.4
    endloop
  endfacet
  facet normal 0 -1 0
    outer loop
      vertex -19 -15 0
      vertex 19 -15 2.4
      vertex -19 -15 2.4
    endloop
  endfacet
  facet normal 0 -1 -0
    outer loop
      vertex 19 -15 2.4
      vertex -19 -15 0
      vertex 19 -15 0
    endloop
  endfacet
  facet normal 0.0654873 0.997853 -0
    outer loop
      vertex 19.3916 14.9743 0
      vertex 19 15 2.4
      vertex 19.3916 14.9743 2.4
    endloop
  endfacet
  facet normal 0.0654873 0.997853 0
    outer loop
      vertex 19 15 2.4
      vertex 19.3916 14.9743 0
      vertex 19 15 0
    endloop
  endfacet
  facet normal 0 1 -0
    outer loop
      vertex 19 15 0
      vertex -19 15 2.4
      vertex 19 15 2.4
    endloop
  endfacet
  facet normal 0 1 0
    outer loop
      vertex -19 15 2.4
      vertex 19 15 0
      vertex -19 15 0
    endloop
  endfacet
  facet normal 1 -0 0
    outer loop
      vertex 22 -12 2.4
      vertex 22 12 0
      vertex 22 12 2.4
    endloop
  endfacet
  facet normal 1 0 0
    outer loop
      vertex 22 12 0
      vertex 22 -12 2.4
      vertex 22 -12 0
    endloop
  endfacet
  facet normal -0.751724 0.659478 0
    outer loop
      vertex -21.3801 13.8263 0
      vertex -21.1213 14.1213 2.4
      vertex -21.1213 14.1213 0
    endloop
  endfacet
  facet normal -0.751724 0.659478 0
    outer loop
      vertex -21.1213 14.1213 2.4
      vertex -21.3801 13.8263 0
      vertex -21.3801 13.8263 2.4
    endloop
  endfacet
  facet normal -0.555523 -0.831501 0
    outer loop
      vertex -20.8263 -14.3801 0
      vertex -20.5 -14.5981 2.4
      vertex -20.8263 -14.3801 2.4
    endloop
  endfacet
  facet normal -0.555523 -0.831501 -0
    outer loop
      vertex -20.5 -14.5981 2.4
      vertex -20.8263 -14.3801 0
      vertex -20.5 -14.5981 0
    endloop
  endfacet
  facet normal -0.19494 -0.980815 0
    outer loop
      vertex -19.7765 -14.8978 0
      vertex -19.3916 -14.9743 2.4
      vertex -19.7765 -14.8978 2.4
    endloop
  endfacet
  facet normal -0.19494 -0.980815 -0
    outer loop
      vertex -19.3916 -14.9743 2.4
      vertex -19.7765 -14.8978 0
      vertex -19.3916 -14.9743 0
    endloop
  endfacet
  facet normal 0.0654873 -0.997853 0
    outer loop
      vertex 19 -15 0
      vertex 19.3916 -14.9743 2.4
      vertex 19 -15 2.4
    endloop
  endfacet
  facet normal 0.0654873 -0.997853 0
    outer loop
      vertex 19.3916 -14.9743 2.4
      vertex 19 -15 0
      vertex 19.3916 -14.9743 0
    endloop
  endfacet
  facet normal 0.321574 0.946885 -0
    outer loop
      vertex 20.1481 14.7716 0
      vertex 19.7765 14.8978 2.4
      vertex 20.1481 14.7716 2.4
    endloop
  endfacet
  facet normal 0.321574 0.946885 0
    outer loop
      vertex 19.7765 14.8978 2.4
      vertex 20.1481 14.7716 0
      vertex 19.7765 14.8978 0
    endloop
  endfacet
  facet normal 0.555523 0.831501 -0
    outer loop
      vertex 20.8263 14.3801 0
      vertex 20.5 14.5981 2.4
      vertex 20.8263 14.3801 2.4
    endloop
  endfacet
  facet normal 0.555523 0.831501 0
    outer loop
      vertex 20.5 14.5981 2.4
      vertex 20.8263 14.3801 0
      vertex 20.5 14.5981 0
    endloop
  endfacet
  facet normal 0.19494 0.980815 -0
    outer loop
      vertex 19.7765 14.8978 0
      vertex 19.3916 14.9743 2.4
      vertex 19.7765 14.8978 2.4
    endloop
  endfacet
  facet normal 0.19494 0.980815 0
    outer loop
      vertex 19.3916 14.9743 2.4
      vertex 19.7765 14.8978 0
      vertex 19.3916 14.9743 0
    endloop
  endfacet
  facet normal -0.0654873 0.997853 0
    outer loop
      vertex -19 15 0
      vertex -19.3916 14.9743 2.4
      vertex -19 15 2.4
    endloop
  endfacet
  facet normal -0.0654873 0.997853 0
    outer loop
      vertex -19.3916 14.9743 2.4
      vertex -19 15 0
      vertex -19.3916 14.9743 0
    endloop
  endfacet
  facet normal -0.442211 0.896911 0
    outer loop
      vertex -20.1481 14.7716 0
      vertex -20.5 14.5981 2.4
      vertex -20.1481 14.7716 2.4
    endloop
  endfacet
  facet normal -0.442211 0.896911 0
    outer loop
      vertex -20.5 14.5981 2.4
      vertex -20.1481 14.7716 0
      vertex -20.5 14.5981 0
    endloop
  endfacet
  facet normal -0.321574 0.946885 0
    outer loop
      vertex -19.7765 14.8978 0
      vertex -20.1481 14.7716 2.4
      vertex -19.7765 14.8978 2.4
    endloop
  endfacet
  facet normal -0.321574 0.946885 0
    outer loop
      vertex -20.1481 14.7716 2.4
      vertex -19.7765 14.8978 0
      vertex -20.1481 14.7716 0
    endloop
  endfacet
  facet normal -0.946885 0.321574 0
    outer loop
      vertex -21.8978 12.7765 0
      vertex -21.7716 13.1481 2.4
      vertex -21.7716 13.1481 0
    endloop
  endfacet
  facet normal -0.946885 0.321574 0
    outer loop
      vertex -21.7716 13.1481 2.4
      vertex -21.8978 12.7765 0
      vertex -21.8978 12.7765 2.4
    endloop
  endfacet
  facet normal -0.980815 0.19494 0
    outer loop
      vertex -21.9743 12.3916 0
      vertex -21.8978 12.7765 2.4
      vertex -21.8978 12.7765 0
    endloop
  endfacet
  facet normal -0.980815 0.19494 0
    outer loop
      vertex -21.8978 12.7765 2.4
      vertex -21.9743 12.3916 0
      vertex -21.9743 12.3916 2.4
    endloop
  endfacet
  facet normal -0.831501 0.555523 0
    outer loop
      vertex -21.5981 13.5 0
      vertex -21.3801 13.8263 2.4
      vertex -21.3801 13.8263 0
    endloop
  endfacet
  facet normal -0.831501 0.555523 0
    outer loop
      vertex -21.3801 13.8263 2.4
      vertex -21.5981 13.5 0
      vertex -21.5981 13.5 2.4
    endloop
  endfacet
  facet normal 0 0 -1
    outer loop
      vertex 19 -15 0
      vertex 22 -12 0
      vertex 21.9743 -12.3916 0
    endloop
  endfacet
  facet normal 0 0 -1
    outer loop
      vertex 22 -12 0
      vertex 14 -8 0
      vertex 22 12 0
    endloop
  endfacet
  facet normal 0 0 -1
    outer loop
      vertex 19 -15 0
      vertex 21.9743 -12.3916 0
      vertex 21.8978 -12.7765 0
    endloop
  endfacet
  facet normal 0 0 -1
    outer loop
      vertex 14 8 0
      vertex 22 12 0
      vertex 14 -8 0
    endloop
  endfacet
  facet normal 0 0 -1
    outer loop
      vertex 19 -15 0
      vertex 21.8978 -12.7765 0
      vertex 21.7716 -13.1481 0
    endloop
  endfacet
  facet normal 0 -0 -1
    outer loop
      vertex 19 15 0
      vertex 22 12 0
      vertex 14 8 0
    endloop
  endfacet
  facet normal 0 0 -1
    outer loop
      vertex 19 -15 0
      vertex 21.7716 -13.1481 0
      vertex 21.5981 -13.5 0
    endloop
  endfacet
  facet normal 0 0 -1
    outer loop
      vertex 22 12 0
      vertex 19 15 0
      vertex 21.9743 12.3916 0
    endloop
  endfacet
  facet normal 0 0 -1
    outer loop
      vertex 19 -15 0
      vertex 21.5981 -13.5 0
      vertex 21.3801 -13.8263 0
    endloop
  endfacet
  facet normal 0 0 -1
    outer loop
      vertex 21.9743 12.3916 0
      vertex 19 15 0
      vertex 21.8978 12.7765 0
    endloop
  endfacet
  facet normal 0 0 -1
    outer loop
      vertex 19 -15 0
      vertex 21.3801 -13.8263 0
      vertex 21.1213 -14.1213 0
    endloop
  endfacet
  facet normal 0 0 -1
    outer loop
      vertex 21.8978 12.7765 0
      vertex 19 15 0
      vertex 21.7716 13.1481 0
    endloop
  endfacet
  facet normal 0 0 -1
    outer loop
      vertex 19 -15 0
      vertex 21.1213 -14.1213 0
      vertex 20.8263 -14.3801 0
    endloop
  endfacet
  facet normal 0 0 -1
    outer loop
      vertex 21.7716 13.1481 0
      vertex 19 15 0
      vertex 21.5981 13.5 0
    endloop
  endfacet
  facet normal 0 0 -1
    outer loop
      vertex 19 -15 0
      vertex 20.8263 -14.3801 0
      vertex 20.5 -14.5981 0
    endloop
  endfacet
  facet normal 0 0 -1
    outer loop
      vertex 21.5981 13.5 0
      vertex 19 15 0
      vertex 21.3801 13.8263 0
    endloop
  endfacet
  facet normal 0 0 -1
    outer loop
      vertex 19 -15 0
      vertex 20.5 -14.5981 0
      vertex 20.1481 -14.7716 0
    endloop
  endfacet
  facet normal 0 0 -1
    outer loop
      vertex 21.3801 13.8263 0
      vertex 19 15 0
      vertex 21.1213 14.1213 0
    endloop
  endfacet
  facet normal 0 0 -1
    outer loop
      vertex 19 -15 0
      vertex 20.1481 -14.7716 0
      vertex 19.7765 -14.8978 0
    endloop
  endfacet
  facet normal 0 0 -1
    outer loop
      vertex 21.1213 14.1213 0
      vertex 19 15 0
      vertex 20.8263 14.3801 0
    endloop
  endfacet
  facet normal 0 0 -1
    outer loop
      vertex 19 -15 0
      vertex 19.7765 -14.8978 0
      vertex 19.3916 -14.9743 0
    endloop
  endfacet
  facet normal 0 0 -1
    outer loop
      vertex 20.8263 14.3801 0
      vertex 19 15 0
      vertex 20.5 14.5981 0
    endloop
  endfacet
  facet normal -0 0 -1
    outer loop
      vertex 22 -12 0
      vertex 19 -15 0
      vertex 14 -8 0
    endloop
  endfacet
  facet normal 0 0 -1
    outer loop
      vertex 20.5 14.5981 0
      vertex 19 15 0
      vertex 20.1481 14.7716 0
    endloop
  endfacet
  facet normal 0 0 -1
    outer loop
      vertex 20.1481 14.7716 0
      vertex 19 15 0
      vertex 19.7765 14.8978 0
    endloop
  endfacet
  facet normal 0 0 -1
    outer loop
      vertex 19 -15 0
      vertex -14 -8 0
      vertex 14 -8 0
    endloop
  endfacet
  facet normal 0 0 -1
    outer loop
      vertex -22 -12 0
      vertex -14 -8 0
      vertex -19 -15 0
    endloop
  endfacet
  facet normal 0 0 -1
    outer loop
      vertex -19 -15 0
      vertex -14 -8 0
      vertex 19 -15 0
    endloop
  endfacet
  facet normal 0 0 -1
    outer loop
      vertex 19.7765 14.8978 0
      vertex 19 15 0
      vertex 19.3916 14.9743 0
    endloop
  endfacet
  facet normal 0 0 -1
    outer loop
      vertex -14 8 0
      vertex 19 15 0
      vertex 14 8 0
    endloop
  endfacet
  facet normal 0 0 -1
    outer loop
      vertex -14 8 0
      vertex -19 15 0
      vertex 19 15 0
    endloop
  endfacet
  facet normal -0 0 -1
    outer loop
      vertex -14 -8 0
      vertex -22 -12 0
      vertex -14 8 0
    endloop
  endfacet
  facet normal 0 0 -1
    outer loop
      vertex -22 -12 0
      vertex -19 -15 0
      vertex -19.3916 -14.9743 0
    endloop
  endfacet
  facet normal 0 0 -1
    outer loop
      vertex -22 12 0
      vertex -14 8 0
      vertex -22 -12 0
    endloop
  endfacet
  facet normal 0 0 -1
    outer loop
      vertex -22 -12 0
      vertex -19.3916 -14.9743 0
      vertex -19.7765 -14.8978 0
    endloop
  endfacet
  facet normal 0 0 -1
    outer loop
      vertex -14 8 0
      vertex -22 12 0
      vertex -19 15 0
    endloop
  endfacet
  facet normal 0 0 -1
    outer loop
      vertex -22 -12 0
      vertex -19.7765 -14.8978 0
      vertex -20.1481 -14.7716 0
    endloop
  endfacet
  facet normal 0 0 -1
    outer loop
      vertex -19 15 0
      vertex -22 12 0
      vertex -19.3916 14.9743 0
    endloop
  endfacet
  facet normal 0 0 -1
    outer loop
      vertex -22 -12 0
      vertex -20.1481 -14.7716 0
      vertex -20.5 -14.5981 0
    endloop
  endfacet
  facet normal 0 0 -1
    outer loop
      vertex -19.3916 14.9743 0
      vertex -22 12 0
      vertex -19.7765 14.8978 0
    endloop
  endfacet
  facet normal 0 0 -1
    outer loop
      vertex -22 -12 0
      vertex -20.5 -14.5981 0
      vertex -20.8263 -14.3801 0
    endloop
  endfacet
  facet normal 0 0 -1
    outer loop
      vertex -19.7765 14.8978 0
      vertex -22 12 0
      vertex -20.1481 14.7716 0
    endloop
  endfacet
  facet normal 0 0 -1
    outer loop
      vertex -22 -12 0
      vertex -20.8263 -14.3801 0
      vertex -21.1213 -14.1213 0
    endloop
  endfacet
  facet normal 0 0 -1
    outer loop
      vertex -20.1481 14.7716 0
      vertex -22 12 0
      vertex -20.5 14.5981 0
    endloop
  endfacet
  facet normal 0 0 -1
    outer loop
      vertex -22 -12 0
      vertex -21.1213 -14.1213 0
      vertex -21.3801 -13.8263 0
    endloop
  endfacet
  facet normal 0 0 -1
    outer loop
      vertex -20.5 14.5981 0
      vertex -22 12 0
      vertex -20.8263 14.3801 0
    endloop
  endfacet
  facet normal 0 0 -1
    outer loop
      vertex -22 -12 0
      vertex -21.3801 -13.8263 0
      vertex -21.5981 -13.5 0
    endloop
  endfacet
  facet normal 0 0 -1
    outer loop
      vertex -20.8263 14.3801 0
      vertex -22 12 0
      vertex -21.1213 14.1213 0
    endloop
  endfacet
  facet normal 0 0 -1
    outer loop
      vertex -22 -12 0
      vertex -21.5981 -13.5 0
      vertex -21.7716 -13.1481 0
    endloop
  endfacet
  facet normal 0 0 -1
    outer loop
      vertex -21.1213 14.1213 0
      vertex -22 12 0
      vertex -21.3801 13.8263 0
    endloop
  endfacet
  facet normal 0 0 -1
    outer loop
      vertex -22 -12 0
      vertex -21.7716 -13.1481 0
      vertex -21.8978 -12.7765 0
    endloop
  endfacet
  facet normal 0 0 -1
    outer loop
      vertex -21.3801 13.8263 0
      vertex -22 12 0
      vertex -21.5981 13.5 0
    endloop
  endfacet
  facet normal 0 0 -1
    outer loop
      vertex -22 -12 0
      vertex -21.8978 -12.7765 0
      vertex -21.9743 -12.3916 0
    endloop
  endfacet
  facet normal 0 0 -1
    outer loop
      vertex -21.5981 13.5 0
      vertex -22 12 0
      vertex -21.7716 13.1481 0
    endloop
  endfacet
  facet normal 0 0 -1
    outer loop
      vertex -21.7716 13.1481 0
      vertex -22 12 0
      vertex -21.8978 12.7765 0
    endloop
  endfacet
  facet normal 0 0 -1
    outer loop
      vertex -21.8978 12.7765 0
      vertex -22 12 0
      vertex -21.9743 12.3916 0
    endloop
  endfacet
  facet normal -0.442211 -0.896911 0
    outer loop
      vertex -20.5 -14.5981 0
      vertex -20.1481 -14.7716 2.4
      vertex -20.5 -14.5981 2.4
    endloop
  endfacet
  facet normal -0.442211 -0.896911 -0
    outer loop
      vertex -20.1481 -14.7716 2.4
      vertex -20.5 -14.5981 0
      vertex -20.1481 -14.7716 0
    endloop
  endfacet
  facet normal -0.0654873 -0.997853 0
    outer loop
      vertex -19.3916 -14.9743 0
      vertex -19 -15 2.4
      vertex -19.3916 -14.9743 2.4
    endloop
  endfacet
  facet normal -0.0654873 -0.997853 -0
    outer loop
      vertex -19 -15 2.4
      vertex -19.3916 -14.9743 0
      vertex -19 -15 0
    endloop
  endfacet
  facet normal 0.442211 0.896911 -0
    outer loop
      vertex 20.5 14.5981 0
      vertex 20.1481 14.7716 2.4
      vertex 20.5 14.5981 2.4
    endloop
  endfacet
  facet normal 0.442211 0.896911 0
    outer loop
      vertex 20.1481 14.7716 2.4
      vertex 20.5 14.5981 0
      vertex 20.1481 14.7716 0
    endloop
  endfacet
  facet normal 0.896911 0.442211 0
    outer loop
      vertex 21.7716 13.1481 2.4
      vertex 21.5981 13.5 0
      vertex 21.5981 13.5 2.4
    endloop
  endfacet
  facet normal 0.896911 0.442211 0
    outer loop
      vertex 21.5981 13.5 0
      vertex 21.7716 13.1481 2.4
      vertex 21.7716 13.1481 0
    endloop
  endfacet
  facet normal 0.896911 -0.442211 0
    outer loop
      vertex 21.5981 -13.5 2.4
      vertex 21.7716 -13.1481 0
      vertex 21.7716 -13.1481 2.4
    endloop
  endfacet
  facet normal 0.896911 -0.442211 0
    outer loop
      vertex 21.7716 -13.1481 0
      vertex 21.5981 -13.5 2.4
      vertex 21.5981 -13.5 0
    endloop
  endfacet
  facet normal 0.980815 -0.19494 0
    outer loop
      vertex 21.8978 -12.7765 2.4
      vertex 21.9743 -12.3916 0
      vertex 21.9743 -12.3916 2.4
    endloop
  endfacet
  facet normal 0.980815 -0.19494 0
    outer loop
      vertex 21.9743 -12.3916 0
      vertex 21.8978 -12.7765 2.4
      vertex 21.8978 -12.7765 0
    endloop
  endfacet
  facet normal 0.751724 -0.659478 0
    outer loop
      vertex 21.1213 -14.1213 2.4
      vertex 21.3801 -13.8263 0
      vertex 21.3801 -13.8263 2.4
    endloop
  endfacet
  facet normal 0.751724 -0.659478 0
    outer loop
      vertex 21.3801 -13.8263 0
      vertex 21.1213 -14.1213 2.4
      vertex 21.1213 -14.1213 0
    endloop
  endfacet
  facet normal 0.442211 -0.896911 0
    outer loop
      vertex 20.1481 -14.7716 0
      vertex 20.5 -14.5981 2.4
      vertex 20.1481 -14.7716 2.4
    endloop
  endfacet
  facet normal 0.442211 -0.896911 0
    outer loop
      vertex 20.5 -14.5981 2.4
      vertex 20.1481 -14.7716 0
      vertex 20.5 -14.5981 0
    endloop
  endfacet
  facet normal -0.659478 0.751724 0
    outer loop
      vertex -20.8263 14.3801 0
      vertex -21.1213 14.1213 2.4
      vertex -20.8263 14.3801 2.4
    endloop
  endfacet
  facet normal -0.659478 0.751724 0
    outer loop
      vertex -21.1213 14.1213 2.4
      vertex -20.8263 14.3801 0
      vertex -21.1213 14.1213 0
    endloop
  endfacet
  facet normal -0.555523 0.831501 0
    outer loop
      vertex -20.5 14.5981 0
      vertex -20.8263 14.3801 2.4
      vertex -20.5 14.5981 2.4
    endloop
  endfacet
  facet normal -0.555523 0.831501 0
    outer loop
      vertex -20.8263 14.3801 2.4
      vertex -20.5 14.5981 0
      vertex -20.8263 14.3801 0
    endloop
  endfacet
  facet normal -0.896911 0.442211 0
    outer loop
      vertex -21.7716 13.1481 0
      vertex -21.5981 13.5 2.4
      vertex -21.5981 13.5 0
    endloop
  endfacet
  facet normal -0.896911 0.442211 0
    outer loop
      vertex -21.5981 13.5 2.4
      vertex -21.7716 13.1481 0
      vertex -21.7716 13.1481 2.4
    endloop
  endfacet
  facet normal -0.997853 -0.0654873 0
    outer loop
      vertex -21.9743 -12.3916 0
      vertex -22 -12 2.4
      vertex -22 -12 0
    endloop
  endfacet
  facet normal -0.997853 -0.0654873 0
    outer loop
      vertex -22 -12 2.4
      vertex -21.9743 -12.3916 0
      vertex -21.9743 -12.3916 2.4
    endloop
  endfacet
  facet normal -0.946885 -0.321574 0
    outer loop
      vertex -21.7716 -13.1481 0
      vertex -21.8978 -12.7765 2.4
      vertex -21.8978 -12.7765 0
    endloop
  endfacet
  facet normal -0.946885 -0.321574 0
    outer loop
      vertex -21.8978 -12.7765 2.4
      vertex -21.7716 -13.1481 0
      vertex -21.7716 -13.1481 2.4
    endloop
  endfacet
  facet normal -0.831501 -0.555523 0
    outer loop
      vertex -21.3801 -13.8263 0
      vertex -21.5981 -13.5 2.4
      vertex -21.5981 -13.5 0
    endloop
  endfacet
  facet normal -0.831501 -0.555523 0
    outer loop
      vertex -21.5981 -13.5 2.4
      vertex -21.3801 -13.8263 0
      vertex -21.3801 -13.8263 2.4
    endloop
  endfacet
  facet normal -0.659478 -0.751724 0
    outer loop
      vertex -21.1213 -14.1213 0
      vertex -20.8263 -14.3801 2.4
      vertex -21.1213 -14.1213 2.4
    endloop
  endfacet
  facet normal -0.659478 -0.751724 -0
    outer loop
      vertex -20.8263 -14.3801 2.4
      vertex -21.1213 -14.1213 0
      vertex -20.8263 -14.3801 0
    endloop
  endfacet
  facet normal -0.321574 -0.946885 0
    outer loop
      vertex -20.1481 -14.7716 0
      vertex -19.7765 -14.8978 2.4
      vertex -20.1481 -14.7716 2.4
    endloop
  endfacet
  facet normal -0.321574 -0.946885 -0
    outer loop
      vertex -19.7765 -14.8978 2.4
      vertex -20.1481 -14.7716 0
      vertex -19.7765 -14.8978 0
    endloop
  endfacet
  facet normal 0.980815 0.19494 0
    outer loop
      vertex 21.9743 12.3916 2.4
      vertex 21.8978 12.7765 0
      vertex 21.8978 12.7765 2.4
    endloop
  endfacet
  facet normal 0.980815 0.19494 0
    outer loop
      vertex 21.8978 12.7765 0
      vertex 21.9743 12.3916 2.4
      vertex 21.9743 12.3916 0
    endloop
  endfacet
  facet normal 0.997853 0.0654873 0
    outer loop
      vertex 22 12 2.4
      vertex 21.9743 12.3916 0
      vertex 21.9743 12.3916 2.4
    endloop
  endfacet
  facet normal 0.997853 0.0654873 0
    outer loop
      vertex 21.9743 12.3916 0
      vertex 22 12 2.4
      vertex 22 12 0
    endloop
  endfacet
  facet normal 0.946885 0.321574 0
    outer loop
      vertex 21.8978 12.7765 2.4
      vertex 21.7716 13.1481 0
      vertex 21.7716 13.1481 2.4
    endloop
  endfacet
  facet normal 0.946885 0.321574 0
    outer loop
      vertex 21.7716 13.1481 0
      vertex 21.8978 12.7765 2.4
      vertex 21.8978 12.7765 0
    endloop
  endfacet
  facet normal 0.831501 0.555523 0
    outer loop
      vertex 21.5981 13.5 2.4
      vertex 21.3801 13.8263 0
      vertex 21.3801 13.8263 2.4
    endloop
  endfacet
  facet normal 0.831501 0.555523 0
    outer loop
      vertex 21.3801 13.8263 0
      vertex 21.5981 13.5 2.4
      vertex 21.5981 13.5 0
    endloop
  endfacet
  facet normal 0.751724 0.659478 0
    outer loop
      vertex 21.3801 13.8263 2.4
      vertex 21.1213 14.1213 0
      vertex 21.1213 14.1213 2.4
    endloop
  endfacet
  facet normal 0.751724 0.659478 0
    outer loop
      vertex 21.1213 14.1213 0
      vertex 21.3801 13.8263 2.4
      vertex 21.3801 13.8263 0
    endloop
  endfacet
  facet normal 0.946885 -0.321574 0
    outer loop
      vertex 21.7716 -13.1481 2.4
      vertex 21.8978 -12.7765 0
      vertex 21.8978 -12.7765 2.4
    endloop
  endfacet
  facet normal 0.946885 -0.321574 0
    outer loop
      vertex 21.8978 -12.7765 0
      vertex 21.7716 -13.1481 2.4
      vertex 21.7716 -13.1481 0
    endloop
  endfacet
  facet normal 0.997853 -0.0654873 0
    outer loop
      vertex 21.9743 -12.3916 2.4
      vertex 22 -12 0
      vertex 22 -12 2.4
    endloop
  endfacet
  facet normal 0.997853 -0.0654873 0
    outer loop
      vertex 22 -12 0
      vertex 21.9743 -12.3916 2.4
      vertex 21.9743 -12.3916 0
    endloop
  endfacet
  facet normal 0.831501 -0.555523 0
    outer loop
      vertex 21.3801 -13.8263 2.4
      vertex 21.5981 -13.5 0
      vertex 21.5981 -13.5 2.4
    endloop
  endfacet
  facet normal 0.831501 -0.555523 0
    outer loop
      vertex 21.5981 -13.5 0
      vertex 21.3801 -13.8263 2.4
      vertex 21.3801 -13.8263 0
    endloop
  endfacet
  facet normal 0.555523 -0.831501 0
    outer loop
      vertex 20.5 -14.5981 0
      vertex 20.8263 -14.3801 2.4
      vertex 20.5 -14.5981 2.4
    endloop
  endfacet
  facet normal 0.555523 -0.831501 0
    outer loop
      vertex 20.8263 -14.3801 2.4
      vertex 20.5 -14.5981 0
      vertex 20.8263 -14.3801 0
    endloop
  endfacet
  facet normal -0.980815 -0.19494 0
    outer loop
      vertex -21.8978 -12.7765 0
      vertex -21.9743 -12.3916 2.4
      vertex -21.9743 -12.3916 0
    endloop
  endfacet
  facet normal -0.980815 -0.19494 0
    outer loop
      vertex -21.9743 -12.3916 2.4
      vertex -21.8978 -12.7765 0
      vertex -21.8978 -12.7765 2.4
    endloop
  endfacet
  facet normal -0.896911 -0.442211 0
    outer loop
      vertex -21.5981 -13.5 0
      vertex -21.7716 -13.1481 2.4
      vertex -21.7716 -13.1481 0
    endloop
  endfacet
  facet normal -0.896911 -0.442211 0
    outer loop
      vertex -21.7716 -13.1481 2.4
      vertex -21.5981 -13.5 0
      vertex -21.5981 -13.5 2.4
    endloop
  endfacet
  facet normal -0.751724 -0.659478 0
    outer loop
      vertex -21.1213 -14.1213 0
      vertex -21.3801 -13.8263 2.4
      vertex -21.3801 -13.8263 0
    endloop
  endfacet
  facet normal -0.751724 -0.659478 0
    outer loop
      vertex -21.3801 -13.8263 2.4
      vertex -21.1213 -14.1213 0
      vertex -21.1213 -14.1213 2.4
    endloop
  endfacet
  facet normal 0.659478 -0.751724 0
    outer loop
      vertex 20.8263 -14.3801 0
      vertex 21.1213 -14.1213 2.4
      vertex 20.8263 -14.3801 2.4
    endloop
  endfacet
  facet normal 0.659478 -0.751724 0
    outer loop
      vertex 21.1213 -14.1213 2.4
      vertex 20.8263 -14.3801 0
      vertex 21.1213 -14.1213 0
    endloop
  endfacet
  facet normal 1 -0 0
    outer loop
      vertex -14 -8 1.2
      vertex -14 8 0
      vertex -14 8 1.2
    endloop
  endfacet
  facet normal 1 0 0
    outer loop
      vertex -14 8 0
      vertex -14 -8 1.2
      vertex -14 -8 0
    endloop
  endfacet
  facet normal 0 0 -1
    outer loop
      vertex -14 -8 1.2
      vertex 14 8 1.2
      vertex 14 -8 1.2
    endloop
  endfacet
  facet normal -0 0 -1
    outer loop
      vertex 14 8 1.2
      vertex -14 -8 1.2
      vertex -14 8 1.2
    endloop
  endfacet
  facet normal -1 0 0
    outer loop
      vertex 14 -8 0
      vertex 14 8 1.2
      vertex 14 8 0
    endloop
  endfacet
  facet normal -1 -0 0
    outer loop
      vertex 14 8 1.2
      vertex 14 -8 0
      vertex 14 -8 1.2
    endloop
  endfacet
  facet normal 0 -1 0
    outer loop
      vertex -14 8 0
      vertex 14 8 1.2
      vertex -14 8 1.2
    endloop
  endfacet
  facet normal 0 -1 -0
    outer loop
      vertex 14 8 1.2
      vertex -14 8 0
      vertex 14 8 0
    endloop
  endfacet
  facet normal 0 1 -0
    outer loop
      vertex 14 -8 0
      vertex -14 -8 1.2
      vertex 14 -8 1.2
    endloop
  endfacet
  facet normal 0 1 0
    outer loop
      vertex -14 -8 1.2
      vertex 14 -8 0
      vertex -14 -8 0
    endloop
  endfacet
endsolid OpenSCAD_Model
