solid OpenSCAD_Model
  facet normal 1 -0 0
    outer loop
      vertex -16.6 -11 1.5
      vertex -16.6 11 0
      vertex -16.6 11 1.5
    endloop
  endfacet
  facet normal 1 0 0
    outer loop
      vertex -16.6 11 0
      vertex -16.6 -11 1.5
      vertex -16.6 -11 0
    endloop
  endfacet
  facet normal 0 0 -1
    outer loop
      vertex -16.6 -11 1.5
      vertex -13.6 11 1.5
      vertex -13.6 -11 1.5
    endloop
  endfacet
  facet normal -0 0 -1
    outer loop
      vertex -13.6 11 1.5
      vertex -16.6 -11 1.5
      vertex -16.6 11 1.5
    endloop
  endfacet
  facet normal -1 0 0
    outer loop
      vertex -13.6 -11 0
      vertex -13.6 11 1.5
      vertex -13.6 11 0
    endloop
  endfacet
  facet normal -1 -0 0
    outer loop
      vertex -13.6 11 1.5
      vertex -13.6 -11 0
      vertex -13.6 -11 1.5
    endloop
  endfacet
  facet normal 0 1 -0
    outer loop
      vertex -13.6 -11 0
      vertex -16.6 -11 1.5
      vertex -13.6 -11 1.5
    endloop
  endfacet
  facet normal 0 1 0
    outer loop
      vertex -16.6 -11 1.5
      vertex -13.6 -11 0
      vertex -16.6 -11 0
    endloop
  endfacet
  facet normal 0 -1 0
    outer loop
      vertex -16.6 11 0
      vertex -13.6 11 1.5
      vertex -16.6 11 1.5
    endloop
  endfacet
  facet normal 0 -1 -0
    outer loop
      vertex -13.6 11 1.5
      vertex -16.6 11 0
      vertex -13.6 11 0
    endloop
  endfacet
  facet normal 1 -0 0
    outer loop
      vertex 13.6 -11 1.5
      vertex 13.6 11 0
      vertex 13.6 11 1.5
    endloop
  endfacet
  facet normal 1 0 0
    outer loop
      vertex 13.6 11 0
      vertex 13.6 -11 1.5
      vertex 13.6 -11 0
    endloop
  endfacet
  facet normal 0 0 -1
    outer loop
      vertex 13.6 -11 1.5
      vertex 16.6 11 1.5
      vertex 16.6 -11 1.5
    endloop
  endfacet
  facet normal -0 0 -1
    outer loop
      vertex 16.6 11 1.5
      vertex 13.6 -11 1.5
      vertex 13.6 11 1.5
    endloop
  endfacet
  facet normal -1 0 0
    outer loop
      vertex 16.6 -11 0
      vertex 16.6 11 1.5
      vertex 16.6 11 0
    endloop
  endfacet
  facet normal -1 -0 0
    outer loop
      vertex 16.6 11 1.5
      vertex 16.6 -11 0
      vertex 16.6 -11 1.5
    endloop
  endfacet
  facet normal 0 1 -0
    outer loop
      vertex 16.6 -11 0
      vertex 13.6 -11 1.5
      vertex 16.6 -11 1.5
    endloop
  endfacet
  facet normal 0 1 0
    outer loop
      vertex 13.6 -11 1.5
      vertex 16.6 -11 0
      vertex 13.6 -11 0
    endloop
  endfacet
  facet normal 0 -1 0
    outer loop
      vertex 13.6 11 0
      vertex 16.6 11 1.5
      vertex 13.6 11 1.5
    endloop
  endfacet
  facet normal 0 -1 -0
    outer loop
      vertex 16.6 11 1.5
      vertex 13.6 11 0
      vertex 16.6 11 0
    endloop
  endfacet
  facet normal 0.321574 -0.946885 0
    outer loop
      vertex 16.8764 -24.4978 0
      vertex 17.248 -24.3716 3
      vertex 16.8764 -24.4978 3
    endloop
  endfacet
  facet normal 0.321574 -0.946885 0
    outer loop
      vertex 17.248 -24.3716 3
      vertex 16.8764 -24.4978 0
      vertex 17.248 -24.3716 0
    endloop
  endfacet
  facet normal 0.0654873 -0.997853 0
    outer loop
      vertex 16.1 -24.6 0
      vertex 16.4916 -24.5743 3
      vertex 16.1 -24.6 3
    endloop
  endfacet
  facet normal 0.0654873 -0.997853 0
    outer loop
      vertex 16.4916 -24.5743 3
      vertex 16.1 -24.6 0
      vertex 16.4916 -24.5743 0
    endloop
  endfacet
  facet normal -0.194989 0.980806 0
    outer loop
      vertex -16.4916 24.5743 0
      vertex -16.8764 24.4978 3
      vertex -16.4916 24.5743 3
    endloop
  endfacet
  facet normal -0.194989 0.980806 0
    outer loop
      vertex -16.8764 24.4978 3
      vertex -16.4916 24.5743 0
      vertex -16.8764 24.4978 0
    endloop
  endfacet
  facet normal 0.194989 -0.980806 0
    outer loop
      vertex 16.4916 -24.5743 0
      vertex 16.8764 -24.4978 3
      vertex 16.4916 -24.5743 3
    endloop
  endfacet
  facet normal 0.194989 -0.980806 0
    outer loop
      vertex 16.8764 -24.4978 3
      vertex 16.4916 -24.5743 0
      vertex 16.8764 -24.4978 0
    endloop
  endfacet
  facet normal 0.831501 0.555523 0
    outer loop
      vertex 18.6981 23.1 3
      vertex 18.4801 23.4263 0
      vertex 18.4801 23.4263 3
    endloop
  endfacet
  facet normal 0.831501 0.555523 0
    outer loop
      vertex 18.4801 23.4263 0
      vertex 18.6981 23.1 3
      vertex 18.6981 23.1 0
    endloop
  endfacet
  facet normal -0.997853 0.0654873 0
    outer loop
      vertex -19.1 21.6 0
      vertex -19.0743 21.9916 3
      vertex -19.0743 21.9916 0
    endloop
  endfacet
  facet normal -0.997853 0.0654873 0
    outer loop
      vertex -19.0743 21.9916 3
      vertex -19.1 21.6 0
      vertex -19.1 21.6 3
    endloop
  endfacet
  facet normal -0 0 1
    outer loop
      vertex -14.1 20.4 3
      vertex 14.1 -20.4 3
      vertex 14.1 20.4 3
    endloop
  endfacet
  facet normal 0 0 1
    outer loop
      vertex 14.1 -20.4 3
      vertex -14.1 20.4 3
      vertex -14.1 -20.4 3
    endloop
  endfacet
  facet normal -0 0 1
    outer loop
      vertex -16.5 -21.6 3
      vertex -14.1 -22.8 3
      vertex -14.1 -21.6 3
    endloop
  endfacet
  facet normal 0 0 1
    outer loop
      vertex -14.1 -22.8 3
      vertex -16.5 -21.6 3
      vertex -16.1 -24.6 3
    endloop
  endfacet
  facet normal 0 0 1
    outer loop
      vertex -16.1 -24.6 3
      vertex -16.5 -21.6 3
      vertex -16.4916 -24.5743 3
    endloop
  endfacet
  facet normal 0 0 1
    outer loop
      vertex -16.5 21.6 3
      vertex -19.1 21.6 3
      vertex -16.5 -21.6 3
    endloop
  endfacet
  facet normal 0 0 1
    outer loop
      vertex -19.1 -21.6 3
      vertex -16.5 -21.6 3
      vertex -19.1 21.6 3
    endloop
  endfacet
  facet normal 0 0 1
    outer loop
      vertex -19.1 21.6 3
      vertex -16.8764 24.4978 3
      vertex -17.248 24.3716 3
    endloop
  endfacet
  facet normal 0 -0 1
    outer loop
      vertex -19.0743 -21.9916 3
      vertex -16.5 -21.6 3
      vertex -19.1 -21.6 3
    endloop
  endfacet
  facet normal 0 0 1
    outer loop
      vertex -19.1 21.6 3
      vertex -17.248 24.3716 3
      vertex -17.6 24.1981 3
    endloop
  endfacet
  facet normal 0 0 1
    outer loop
      vertex -16.5 -21.6 3
      vertex -16.8764 -24.4978 3
      vertex -16.4916 -24.5743 3
    endloop
  endfacet
  facet normal 0 0 1
    outer loop
      vertex -19.1 21.6 3
      vertex -17.6 24.1981 3
      vertex -17.9263 23.9801 3
    endloop
  endfacet
  facet normal 0 0 1
    outer loop
      vertex -16.5 -21.6 3
      vertex -17.248 -24.3716 3
      vertex -16.8764 -24.4978 3
    endloop
  endfacet
  facet normal 0 0 1
    outer loop
      vertex -19.1 21.6 3
      vertex -17.9263 23.9801 3
      vertex -18.2213 23.7213 3
    endloop
  endfacet
  facet normal 0 0 1
    outer loop
      vertex -16.5 -21.6 3
      vertex -17.6 -24.1981 3
      vertex -17.248 -24.3716 3
    endloop
  endfacet
  facet normal 0 0 1
    outer loop
      vertex -19.1 21.6 3
      vertex -18.2213 23.7213 3
      vertex -18.4801 23.4263 3
    endloop
  endfacet
  facet normal 0 0 1
    outer loop
      vertex -16.5 -21.6 3
      vertex -17.9263 -23.9801 3
      vertex -17.6 -24.1981 3
    endloop
  endfacet
  facet normal 0 0 1
    outer loop
      vertex -19.1 21.6 3
      vertex -18.4801 23.4263 3
      vertex -18.6981 23.1 3
    endloop
  endfacet
  facet normal 0 0 1
    outer loop
      vertex -16.5 -21.6 3
      vertex -18.2213 -23.7213 3
      vertex -17.9263 -23.9801 3
    endloop
  endfacet
  facet normal 0 0 1
    outer loop
      vertex -19.1 21.6 3
      vertex -18.6981 23.1 3
      vertex -18.8716 22.748 3
    endloop
  endfacet
  facet normal 0 0 1
    outer loop
      vertex -16.5 -21.6 3
      vertex -18.4801 -23.4263 3
      vertex -18.2213 -23.7213 3
    endloop
  endfacet
  facet normal 0 0 1
    outer loop
      vertex -19.1 21.6 3
      vertex -18.8716 22.748 3
      vertex -18.9978 22.3764 3
    endloop
  endfacet
  facet normal 0 0 1
    outer loop
      vertex -16.5 -21.6 3
      vertex -18.6981 -23.1 3
      vertex -18.4801 -23.4263 3
    endloop
  endfacet
  facet normal 0 0 1
    outer loop
      vertex -19.1 21.6 3
      vertex -18.9978 22.3764 3
      vertex -19.0743 21.9916 3
    endloop
  endfacet
  facet normal 0 0 1
    outer loop
      vertex -16.5 -21.6 3
      vertex -18.8716 -22.748 3
      vertex -18.6981 -23.1 3
    endloop
  endfacet
  facet normal 0 0 1
    outer loop
      vertex -16.5 -21.6 3
      vertex -18.9978 -22.3764 3
      vertex -18.8716 -22.748 3
    endloop
  endfacet
  facet normal 0 0 1
    outer loop
      vertex -16.5 -21.6 3
      vertex -19.0743 -21.9916 3
      vertex -18.9978 -22.3764 3
    endloop
  endfacet
  facet normal 0 0 1
    outer loop
      vertex 16.1 24.6 3
      vertex -14.1 22.8 3
      vertex 14.1 22.8 3
    endloop
  endfacet
  facet normal -0 0 1
    outer loop
      vertex -16.1 24.6 3
      vertex -14.1 22.8 3
      vertex 16.1 24.6 3
    endloop
  endfacet
  facet normal 0 0 1
    outer loop
      vertex -16.5 21.6 3
      vertex -14.1 22.8 3
      vertex -16.1 24.6 3
    endloop
  endfacet
  facet normal 0 0 1
    outer loop
      vertex -16.5 21.6 3
      vertex -16.1 24.6 3
      vertex -16.4916 24.5743 3
    endloop
  endfacet
  facet normal 0 0 1
    outer loop
      vertex -14.1 22.8 3
      vertex -16.5 21.6 3
      vertex -14.1 21.6 3
    endloop
  endfacet
  facet normal 0 0 1
    outer loop
      vertex -19.1 21.6 3
      vertex -16.5 21.6 3
      vertex -16.8764 24.4978 3
    endloop
  endfacet
  facet normal -0 0 1
    outer loop
      vertex -16.8764 24.4978 3
      vertex -16.5 21.6 3
      vertex -16.4916 24.5743 3
    endloop
  endfacet
  facet normal 0 0 1
    outer loop
      vertex 16.5 21.6 3
      vertex 19.1 21.6 3
      vertex 19.0743 21.9916 3
    endloop
  endfacet
  facet normal 0 0 1
    outer loop
      vertex 19.1 21.6 3
      vertex 16.5 21.6 3
      vertex 19.1 -21.6 3
    endloop
  endfacet
  facet normal 0 0 1
    outer loop
      vertex 16.5 21.6 3
      vertex 19.0743 21.9916 3
      vertex 18.9978 22.3764 3
    endloop
  endfacet
  facet normal 0 0 1
    outer loop
      vertex 16.5 -21.6 3
      vertex 19.1 -21.6 3
      vertex 16.5 21.6 3
    endloop
  endfacet
  facet normal 0 0 1
    outer loop
      vertex 16.5 21.6 3
      vertex 18.9978 22.3764 3
      vertex 18.8716 22.748 3
    endloop
  endfacet
  facet normal 0 0 1
    outer loop
      vertex 19.1 -21.6 3
      vertex 16.5 -21.6 3
      vertex 19.0743 -21.9916 3
    endloop
  endfacet
  facet normal 0 0 1
    outer loop
      vertex 16.5 21.6 3
      vertex 18.8716 22.748 3
      vertex 18.6981 23.1 3
    endloop
  endfacet
  facet normal 0 0 1
    outer loop
      vertex 19.0743 -21.9916 3
      vertex 16.5 -21.6 3
      vertex 18.9978 -22.3764 3
    endloop
  endfacet
  facet normal 0 0 1
    outer loop
      vertex 16.5 21.6 3
      vertex 18.6981 23.1 3
      vertex 18.4801 23.4263 3
    endloop
  endfacet
  facet normal 0 0 1
    outer loop
      vertex 18.9978 -22.3764 3
      vertex 16.5 -21.6 3
      vertex 18.8716 -22.748 3
    endloop
  endfacet
  facet normal 0 0 1
    outer loop
      vertex 16.5 21.6 3
      vertex 18.4801 23.4263 3
      vertex 18.2213 23.7213 3
    endloop
  endfacet
  facet normal 0 0 1
    outer loop
      vertex 18.8716 -22.748 3
      vertex 16.5 -21.6 3
      vertex 18.6981 -23.1 3
    endloop
  endfacet
  facet normal 0 0 1
    outer loop
      vertex 16.5 21.6 3
      vertex 18.2213 23.7213 3
      vertex 17.9263 23.9801 3
    endloop
  endfacet
  facet normal 0 0 1
    outer loop
      vertex 18.6981 -23.1 3
      vertex 16.5 -21.6 3
      vertex 18.4801 -23.4263 3
    endloop
  endfacet
  facet normal 0 0 1
    outer loop
      vertex 16.5 21.6 3
      vertex 17.9263 23.9801 3
      vertex 17.6 24.1981 3
    endloop
  endfacet
  facet normal 0 0 1
    outer loop
      vertex 18.4801 -23.4263 3
      vertex 16.5 -21.6 3
      vertex 18.2213 -23.7213 3
    endloop
  endfacet
  facet normal 0 0 1
    outer loop
      vertex 16.5 21.6 3
      vertex 17.6 24.1981 3
      vertex 17.248 24.3716 3
    endloop
  endfacet
  facet normal 0 0 1
    outer loop
      vertex 18.2213 -23.7213 3
      vertex 16.5 -21.6 3
      vertex 17.9263 -23.9801 3
    endloop
  endfacet
  facet normal 0 0 1
    outer loop
      vertex 16.5 21.6 3
      vertex 17.248 24.3716 3
      vertex 16.8764 24.4978 3
    endloop
  endfacet
  facet normal 0 0 1
    outer loop
      vertex 17.9263 -23.9801 3
      vertex 16.5 -21.6 3
      vertex 17.6 -24.1981 3
    endloop
  endfacet
  facet normal 0 0 1
    outer loop
      vertex 17.6 -24.1981 3
      vertex 16.5 -21.6 3
      vertex 17.248 -24.3716 3
    endloop
  endfacet
  facet normal 0 0 1
    outer loop
      vertex 16.4916 24.5743 3
      vertex 16.5 21.6 3
      vertex 16.8764 24.4978 3
    endloop
  endfacet
  facet normal 0 0 1
    outer loop
      vertex 16.1 24.6 3
      vertex 16.5 21.6 3
      vertex 16.4916 24.5743 3
    endloop
  endfacet
  facet normal -0 0 1
    outer loop
      vertex 14.1 22.8 3
      vertex 16.5 21.6 3
      vertex 16.1 24.6 3
    endloop
  endfacet
  facet normal 0 0 1
    outer loop
      vertex 16.5 21.6 3
      vertex 14.1 22.8 3
      vertex 14.1 21.6 3
    endloop
  endfacet
  facet normal 0 0 1
    outer loop
      vertex 17.248 -24.3716 3
      vertex 16.5 -21.6 3
      vertex 16.8764 -24.4978 3
    endloop
  endfacet
  facet normal 0 0 1
    outer loop
      vertex 16.5 -21.6 3
      vertex 16.4916 -24.5743 3
      vertex 16.8764 -24.4978 3
    endloop
  endfacet
  facet normal 0 0 1
    outer loop
      vertex 16.5 -21.6 3
      vertex 16.1 -24.6 3
      vertex 16.4916 -24.5743 3
    endloop
  endfacet
  facet normal 0 0 1
    outer loop
      vertex 14.1 -22.8 3
      vertex 16.5 -21.6 3
      vertex 14.1 -21.6 3
    endloop
  endfacet
  facet normal 0 0 1
    outer loop
      vertex 16.5 -21.6 3
      vertex 14.1 -22.8 3
      vertex 16.1 -24.6 3
    endloop
  endfacet
  facet normal -0 0 1
    outer loop
      vertex -14.1 -22.8 3
      vertex 16.1 -24.6 3
      vertex 14.1 -22.8 3
    endloop
  endfacet
  facet normal 0 0 1
    outer loop
      vertex 16.1 -24.6 3
      vertex -14.1 -22.8 3
      vertex -16.1 -24.6 3
    endloop
  endfacet
  facet normal -1 0 0
    outer loop
      vertex -19.1 -21.6 0
      vertex -19.1 21.6 3
      vertex -19.1 21.6 0
    endloop
  endfacet
  facet normal -1 -0 0
    outer loop
      vertex -19.1 21.6 3
      vertex -19.1 -21.6 0
      vertex -19.1 -21.6 3
    endloop
  endfacet
  facet normal 0 -1 0
    outer loop
      vertex -16.1 -24.6 0
      vertex 16.1 -24.6 3
      vertex -16.1 -24.6 3
    endloop
  endfacet
  facet normal 0 -1 -0
    outer loop
      vertex 16.1 -24.6 3
      vertex -16.1 -24.6 0
      vertex 16.1 -24.6 0
    endloop
  endfacet
  facet normal 0.0654873 0.997853 -0
    outer loop
      vertex 16.4916 24.5743 0
      vertex 16.1 24.6 3
      vertex 16.4916 24.5743 3
    endloop
  endfacet
  facet normal 0.0654873 0.997853 0
    outer loop
      vertex 16.1 24.6 3
      vertex 16.4916 24.5743 0
      vertex 16.1 24.6 0
    endloop
  endfacet
  facet normal 0 1 -0
    outer loop
      vertex 16.1 24.6 0
      vertex -16.1 24.6 3
      vertex 16.1 24.6 3
    endloop
  endfacet
  facet normal 0 1 0
    outer loop
      vertex -16.1 24.6 3
      vertex 16.1 24.6 0
      vertex -16.1 24.6 0
    endloop
  endfacet
  facet normal 1 -0 0
    outer loop
      vertex 19.1 -21.6 3
      vertex 19.1 21.6 0
      vertex 19.1 21.6 3
    endloop
  endfacet
  facet normal 1 0 0
    outer loop
      vertex 19.1 21.6 0
      vertex 19.1 -21.6 3
      vertex 19.1 -21.6 0
    endloop
  endfacet
  facet normal 0.831501 -0.555523 0
    outer loop
      vertex 18.4801 -23.4263 3
      vertex 18.6981 -23.1 0
      vertex 18.6981 -23.1 3
    endloop
  endfacet
  facet normal 0.831501 -0.555523 0
    outer loop
      vertex 18.6981 -23.1 0
      vertex 18.4801 -23.4263 3
      vertex 18.4801 -23.4263 0
    endloop
  endfacet
  facet normal -0.751724 0.659478 0
    outer loop
      vertex -18.4801 23.4263 0
      vertex -18.2213 23.7213 3
      vertex -18.2213 23.7213 0
    endloop
  endfacet
  facet normal -0.751724 0.659478 0
    outer loop
      vertex -18.2213 23.7213 3
      vertex -18.4801 23.4263 0
      vertex -18.4801 23.4263 3
    endloop
  endfacet
  facet normal 0 0 -1
    outer loop
      vertex 16.1 -24.6 0
      vertex 19.1 -21.6 0
      vertex 19.0743 -21.9916 0
    endloop
  endfacet
  facet normal 0 0 -1
    outer loop
      vertex 19.1 -21.6 0
      vertex 16.6 -11 0
      vertex 19.1 21.6 0
    endloop
  endfacet
  facet normal 0 0 -1
    outer loop
      vertex 16.1 -24.6 0
      vertex 19.0743 -21.9916 0
      vertex 18.9978 -22.3764 0
    endloop
  endfacet
  facet normal 0 0 -1
    outer loop
      vertex 16.6 11 0
      vertex 19.1 21.6 0
      vertex 16.6 -11 0
    endloop
  endfacet
  facet normal 0 0 -1
    outer loop
      vertex 16.1 -24.6 0
      vertex 18.9978 -22.3764 0
      vertex 18.8716 -22.748 0
    endloop
  endfacet
  facet normal 0 0 -1
    outer loop
      vertex 9.5 17 0
      vertex 19.1 21.6 0
      vertex 16.6 11 0
    endloop
  endfacet
  facet normal 0 0 -1
    outer loop
      vertex 16.1 -24.6 0
      vertex 18.8716 -22.748 0
      vertex 18.6981 -23.1 0
    endloop
  endfacet
  facet normal 0 -0 -1
    outer loop
      vertex 16.1 24.6 0
      vertex 19.1 21.6 0
      vertex 9.5 17 0
    endloop
  endfacet
  facet normal 0 0 -1
    outer loop
      vertex 16.1 -24.6 0
      vertex 18.6981 -23.1 0
      vertex 18.4801 -23.4263 0
    endloop
  endfacet
  facet normal 0 0 -1
    outer loop
      vertex 19.1 21.6 0
      vertex 16.1 24.6 0
      vertex 19.0743 21.9916 0
    endloop
  endfacet
  facet normal 0 0 -1
    outer loop
      vertex 16.1 -24.6 0
      vertex 18.4801 -23.4263 0
      vertex 18.2213 -23.7213 0
    endloop
  endfacet
  facet normal 0 0 -1
    outer loop
      vertex 19.0743 21.9916 0
      vertex 16.1 24.6 0
      vertex 18.9978 22.3764 0
    endloop
  endfacet
  facet normal 0 0 -1
    outer loop
      vertex 16.1 -24.6 0
      vertex 18.2213 -23.7213 0
      vertex 17.9263 -23.9801 0
    endloop
  endfacet
  facet normal 0 0 -1
    outer loop
      vertex 18.9978 22.3764 0
      vertex 16.1 24.6 0
      vertex 18.8716 22.748 0
    endloop
  endfacet
  facet normal 0 0 -1
    outer loop
      vertex 16.1 -24.6 0
      vertex 17.9263 -23.9801 0
      vertex 17.6 -24.1981 0
    endloop
  endfacet
  facet normal 0 0 -1
    outer loop
      vertex 18.8716 22.748 0
      vertex 16.1 24.6 0
      vertex 18.6981 23.1 0
    endloop
  endfacet
  facet normal 0 0 -1
    outer loop
      vertex 16.1 -24.6 0
      vertex 17.6 -24.1981 0
      vertex 17.248 -24.3716 0
    endloop
  endfacet
  facet normal 0 0 -1
    outer loop
      vertex 18.6981 23.1 0
      vertex 16.1 24.6 0
      vertex 18.4801 23.4263 0
    endloop
  endfacet
  facet normal 0 0 -1
    outer loop
      vertex 16.1 -24.6 0
      vertex 17.248 -24.3716 0
      vertex 16.8764 -24.4978 0
    endloop
  endfacet
  facet normal 0 0 -1
    outer loop
      vertex 18.4801 23.4263 0
      vertex 16.1 24.6 0
      vertex 18.2213 23.7213 0
    endloop
  endfacet
  facet normal 0 0 -1
    outer loop
      vertex 18.2213 23.7213 0
      vertex 16.1 24.6 0
      vertex 17.9263 23.9801 0
    endloop
  endfacet
  facet normal 0 0 -1
    outer loop
      vertex 16.1 -24.6 0
      vertex 16.8764 -24.4978 0
      vertex 16.4916 -24.5743 0
    endloop
  endfacet
  facet normal -0 0 -1
    outer loop
      vertex 19.1 -21.6 0
      vertex 16.1 -24.6 0
      vertex 9.5 -17 0
    endloop
  endfacet
  facet normal 0 0 -1
    outer loop
      vertex 19.1 -21.6 0
      vertex 9.5 -17 0
      vertex 16.6 -11 0
    endloop
  endfacet
  facet normal -0 0 -1
    outer loop
      vertex 13.6 -11 0
      vertex 9.5 -17 0
      vertex 13.6 11 0
    endloop
  endfacet
  facet normal -0 0 -1
    outer loop
      vertex 16.6 -11 0
      vertex 9.5 -17 0
      vertex 13.6 -11 0
    endloop
  endfacet
  facet normal 0 0 -1
    outer loop
      vertex 16.1 -24.6 0
      vertex -9.5 -17 0
      vertex 9.5 -17 0
    endloop
  endfacet
  facet normal 0 0 -1
    outer loop
      vertex -9.5 -17 0
      vertex -13.6 -11 0
      vertex -9.5 17 0
    endloop
  endfacet
  facet normal 0 0 -1
    outer loop
      vertex -16.1 -24.6 0
      vertex -9.5 -17 0
      vertex 16.1 -24.6 0
    endloop
  endfacet
  facet normal 0 0 -1
    outer loop
      vertex -19.1 -21.6 0
      vertex -9.5 -17 0
      vertex -16.1 -24.6 0
    endloop
  endfacet
  facet normal 0 0 -1
    outer loop
      vertex -19.1 -21.6 0
      vertex -16.1 -24.6 0
      vertex -16.4916 -24.5743 0
    endloop
  endfacet
  facet normal 0 -0 -1
    outer loop
      vertex -16.6 -11 0
      vertex -9.5 -17 0
      vertex -19.1 -21.6 0
    endloop
  endfacet
  facet normal 0 0 -1
    outer loop
      vertex -9.5 -17 0
      vertex -16.6 -11 0
      vertex -13.6 -11 0
    endloop
  endfacet
  facet normal 0 0 -1
    outer loop
      vertex -19.1 -21.6 0
      vertex -16.4916 -24.5743 0
      vertex -16.8764 -24.4978 0
    endloop
  endfacet
  facet normal 0 0 -1
    outer loop
      vertex 17.9263 23.9801 0
      vertex 16.1 24.6 0
      vertex 17.6 24.1981 0
    endloop
  endfacet
  facet normal 0 0 -1
    outer loop
      vertex 17.6 24.1981 0
      vertex 16.1 24.6 0
      vertex 17.248 24.3716 0
    endloop
  endfacet
  facet normal 0 0 -1
    outer loop
      vertex 17.248 24.3716 0
      vertex 16.1 24.6 0
      vertex 16.8764 24.4978 0
    endloop
  endfacet
  facet normal 0 0 -1
    outer loop
      vertex 9.5 17 0
      vertex 16.6 11 0
      vertex 13.6 11 0
    endloop
  endfacet
  facet normal 0 0 -1
    outer loop
      vertex 9.5 17 0
      vertex 13.6 11 0
      vertex 9.5 -17 0
    endloop
  endfacet
  facet normal 0 0 -1
    outer loop
      vertex 16.8764 24.4978 0
      vertex 16.1 24.6 0
      vertex 16.4916 24.5743 0
    endloop
  endfacet
  facet normal 0 0 -1
    outer loop
      vertex -9.5 17 0
      vertex 16.1 24.6 0
      vertex 9.5 17 0
    endloop
  endfacet
  facet normal 0 0 -1
    outer loop
      vertex -13.6 11 0
      vertex -9.5 17 0
      vertex -13.6 -11 0
    endloop
  endfacet
  facet normal 0 0 -1
    outer loop
      vertex -9.5 17 0
      vertex -16.1 24.6 0
      vertex 16.1 24.6 0
    endloop
  endfacet
  facet normal 0 0 -1
    outer loop
      vertex -16.6 11 0
      vertex -9.5 17 0
      vertex -13.6 11 0
    endloop
  endfacet
  facet normal 0 0 -1
    outer loop
      vertex -9.5 17 0
      vertex -19.1 21.6 0
      vertex -16.1 24.6 0
    endloop
  endfacet
  facet normal -0 0 -1
    outer loop
      vertex -9.5 17 0
      vertex -16.6 11 0
      vertex -19.1 21.6 0
    endloop
  endfacet
  facet normal 0 0 -1
    outer loop
      vertex -16.1 24.6 0
      vertex -19.1 21.6 0
      vertex -16.4916 24.5743 0
    endloop
  endfacet
  facet normal -0 0 -1
    outer loop
      vertex -16.6 -11 0
      vertex -19.1 -21.6 0
      vertex -16.6 11 0
    endloop
  endfacet
  facet normal 0 0 -1
    outer loop
      vertex -19.1 -21.6 0
      vertex -16.8764 -24.4978 0
      vertex -17.248 -24.3716 0
    endloop
  endfacet
  facet normal 0 0 -1
    outer loop
      vertex -19.1 21.6 0
      vertex -16.6 11 0
      vertex -19.1 -21.6 0
    endloop
  endfacet
  facet normal 0 0 -1
    outer loop
      vertex -19.1 -21.6 0
      vertex -17.248 -24.3716 0
      vertex -17.6 -24.1981 0
    endloop
  endfacet
  facet normal 0 0 -1
    outer loop
      vertex -16.4916 24.5743 0
      vertex -19.1 21.6 0
      vertex -16.8764 24.4978 0
    endloop
  endfacet
  facet normal 0 0 -1
    outer loop
      vertex -19.1 -21.6 0
      vertex -17.6 -24.1981 0
      vertex -17.9263 -23.9801 0
    endloop
  endfacet
  facet normal 0 0 -1
    outer loop
      vertex -16.8764 24.4978 0
      vertex -19.1 21.6 0
      vertex -17.248 24.3716 0
    endloop
  endfacet
  facet normal 0 0 -1
    outer loop
      vertex -19.1 -21.6 0
      vertex -17.9263 -23.9801 0
      vertex -18.2213 -23.7213 0
    endloop
  endfacet
  facet normal 0 0 -1
    outer loop
      vertex -17.248 24.3716 0
      vertex -19.1 21.6 0
      vertex -17.6 24.1981 0
    endloop
  endfacet
  facet normal 0 0 -1
    outer loop
      vertex -19.1 -21.6 0
      vertex -18.2213 -23.7213 0
      vertex -18.4801 -23.4263 0
    endloop
  endfacet
  facet normal 0 0 -1
    outer loop
      vertex -17.6 24.1981 0
      vertex -19.1 21.6 0
      vertex -17.9263 23.9801 0
    endloop
  endfacet
  facet normal 0 0 -1
    outer loop
      vertex -19.1 -21.6 0
      vertex -18.4801 -23.4263 0
      vertex -18.6981 -23.1 0
    endloop
  endfacet
  facet normal 0 0 -1
    outer loop
      vertex -17.9263 23.9801 0
      vertex -19.1 21.6 0
      vertex -18.2213 23.7213 0
    endloop
  endfacet
  facet normal 0 0 -1
    outer loop
      vertex -19.1 -21.6 0
      vertex -18.6981 -23.1 0
      vertex -18.8716 -22.748 0
    endloop
  endfacet
  facet normal 0 0 -1
    outer loop
      vertex -18.2213 23.7213 0
      vertex -19.1 21.6 0
      vertex -18.4801 23.4263 0
    endloop
  endfacet
  facet normal 0 0 -1
    outer loop
      vertex -19.1 -21.6 0
      vertex -18.8716 -22.748 0
      vertex -18.9978 -22.3764 0
    endloop
  endfacet
  facet normal 0 0 -1
    outer loop
      vertex -18.4801 23.4263 0
      vertex -19.1 21.6 0
      vertex -18.6981 23.1 0
    endloop
  endfacet
  facet normal 0 0 -1
    outer loop
      vertex -19.1 -21.6 0
      vertex -18.9978 -22.3764 0
      vertex -19.0743 -21.9916 0
    endloop
  endfacet
  facet normal 0 0 -1
    outer loop
      vertex -18.6981 23.1 0
      vertex -19.1 21.6 0
      vertex -18.8716 22.748 0
    endloop
  endfacet
  facet normal 0 0 -1
    outer loop
      vertex -18.8716 22.748 0
      vertex -19.1 21.6 0
      vertex -18.9978 22.3764 0
    endloop
  endfacet
  facet normal 0 0 -1
    outer loop
      vertex -18.9978 22.3764 0
      vertex -19.1 21.6 0
      vertex -19.0743 21.9916 0
    endloop
  endfacet
  facet normal -0.751724 -0.659478 0
    outer loop
      vertex -18.2213 -23.7213 0
      vertex -18.4801 -23.4263 3
      vertex -18.4801 -23.4263 0
    endloop
  endfacet
  facet normal -0.751724 -0.659478 0
    outer loop
      vertex -18.4801 -23.4263 3
      vertex -18.2213 -23.7213 0
      vertex -18.2213 -23.7213 3
    endloop
  endfacet
  facet normal 0.555523 0.831501 -0
    outer loop
      vertex 17.9263 23.9801 0
      vertex 17.6 24.1981 3
      vertex 17.9263 23.9801 3
    endloop
  endfacet
  facet normal 0.555523 0.831501 0
    outer loop
      vertex 17.6 24.1981 3
      vertex 17.9263 23.9801 0
      vertex 17.6 24.1981 0
    endloop
  endfacet
  facet normal 0.751724 0.659478 0
    outer loop
      vertex 18.4801 23.4263 3
      vertex 18.2213 23.7213 0
      vertex 18.2213 23.7213 3
    endloop
  endfacet
  facet normal 0.751724 0.659478 0
    outer loop
      vertex 18.2213 23.7213 0
      vertex 18.4801 23.4263 3
      vertex 18.4801 23.4263 0
    endloop
  endfacet
  facet normal -0.0654873 0.997853 0
    outer loop
      vertex -16.1 24.6 0
      vertex -16.4916 24.5743 3
      vertex -16.1 24.6 3
    endloop
  endfacet
  facet normal -0.0654873 0.997853 0
    outer loop
      vertex -16.4916 24.5743 3
      vertex -16.1 24.6 0
      vertex -16.4916 24.5743 0
    endloop
  endfacet
  facet normal -0.44211 0.896961 0
    outer loop
      vertex -17.248 24.3716 0
      vertex -17.6 24.1981 3
      vertex -17.248 24.3716 3
    endloop
  endfacet
  facet normal -0.44211 0.896961 0
    outer loop
      vertex -17.6 24.1981 3
      vertex -17.248 24.3716 0
      vertex -17.6 24.1981 0
    endloop
  endfacet
  facet normal -0.321574 0.946885 0
    outer loop
      vertex -16.8764 24.4978 0
      vertex -17.248 24.3716 3
      vertex -16.8764 24.4978 3
    endloop
  endfacet
  facet normal -0.321574 0.946885 0
    outer loop
      vertex -17.248 24.3716 3
      vertex -16.8764 24.4978 0
      vertex -17.248 24.3716 0
    endloop
  endfacet
  facet normal -0.946885 0.321574 0
    outer loop
      vertex -18.9978 22.3764 0
      vertex -18.8716 22.748 3
      vertex -18.8716 22.748 0
    endloop
  endfacet
  facet normal -0.946885 0.321574 0
    outer loop
      vertex -18.8716 22.748 3
      vertex -18.9978 22.3764 0
      vertex -18.9978 22.3764 3
    endloop
  endfacet
  facet normal -0.980806 0.194989 0
    outer loop
      vertex -19.0743 21.9916 0
      vertex -18.9978 22.3764 3
      vertex -18.9978 22.3764 0
    endloop
  endfacet
  facet normal -0.980806 0.194989 0
    outer loop
      vertex -18.9978 22.3764 3
      vertex -19.0743 21.9916 0
      vertex -19.0743 21.9916 3
    endloop
  endfacet
  facet normal -0.831501 0.555523 0
    outer loop
      vertex -18.6981 23.1 0
      vertex -18.4801 23.4263 3
      vertex -18.4801 23.4263 0
    endloop
  endfacet
  facet normal -0.831501 0.555523 0
    outer loop
      vertex -18.4801 23.4263 3
      vertex -18.6981 23.1 0
      vertex -18.6981 23.1 3
    endloop
  endfacet
  facet normal -0.997853 -0.0654873 0
    outer loop
      vertex -19.0743 -21.9916 0
      vertex -19.1 -21.6 3
      vertex -19.1 -21.6 0
    endloop
  endfacet
  facet normal -0.997853 -0.0654873 0
    outer loop
      vertex -19.1 -21.6 3
      vertex -19.0743 -21.9916 0
      vertex -19.0743 -21.9916 3
    endloop
  endfacet
  facet normal -0.659478 -0.751724 0
    outer loop
      vertex -18.2213 -23.7213 0
      vertex -17.9263 -23.9801 3
      vertex -18.2213 -23.7213 3
    endloop
  endfacet
  facet normal -0.659478 -0.751724 -0
    outer loop
      vertex -17.9263 -23.9801 3
      vertex -18.2213 -23.7213 0
      vertex -17.9263 -23.9801 0
    endloop
  endfacet
  facet normal -0.194989 -0.980806 0
    outer loop
      vertex -16.8764 -24.4978 0
      vertex -16.4916 -24.5743 3
      vertex -16.8764 -24.4978 3
    endloop
  endfacet
  facet normal -0.194989 -0.980806 -0
    outer loop
      vertex -16.4916 -24.5743 3
      vertex -16.8764 -24.4978 0
      vertex -16.4916 -24.5743 0
    endloop
  endfacet
  facet normal -0.44211 -0.896961 0
    outer loop
      vertex -17.6 -24.1981 0
      vertex -17.248 -24.3716 3
      vertex -17.6 -24.1981 3
    endloop
  endfacet
  facet normal -0.44211 -0.896961 -0
    outer loop
      vertex -17.248 -24.3716 3
      vertex -17.6 -24.1981 0
      vertex -17.248 -24.3716 0
    endloop
  endfacet
  facet normal 0.659478 0.751724 -0
    outer loop
      vertex 18.2213 23.7213 0
      vertex 17.9263 23.9801 3
      vertex 18.2213 23.7213 3
    endloop
  endfacet
  facet normal 0.659478 0.751724 0
    outer loop
      vertex 17.9263 23.9801 3
      vertex 18.2213 23.7213 0
      vertex 17.9263 23.9801 0
    endloop
  endfacet
  facet normal 0.321574 0.946885 -0
    outer loop
      vertex 17.248 24.3716 0
      vertex 16.8764 24.4978 3
      vertex 17.248 24.3716 3
    endloop
  endfacet
  facet normal 0.321574 0.946885 0
    outer loop
      vertex 16.8764 24.4978 3
      vertex 17.248 24.3716 0
      vertex 16.8764 24.4978 0
    endloop
  endfacet
  facet normal 0.194989 0.980806 -0
    outer loop
      vertex 16.8764 24.4978 0
      vertex 16.4916 24.5743 3
      vertex 16.8764 24.4978 3
    endloop
  endfacet
  facet normal 0.194989 0.980806 0
    outer loop
      vertex 16.4916 24.5743 3
      vertex 16.8764 24.4978 0
      vertex 16.4916 24.5743 0
    endloop
  endfacet
  facet normal 0.44211 0.896961 -0
    outer loop
      vertex 17.6 24.1981 0
      vertex 17.248 24.3716 3
      vertex 17.6 24.1981 3
    endloop
  endfacet
  facet normal 0.44211 0.896961 0
    outer loop
      vertex 17.248 24.3716 3
      vertex 17.6 24.1981 0
      vertex 17.248 24.3716 0
    endloop
  endfacet
  facet normal 0.980806 0.194989 0
    outer loop
      vertex 19.0743 21.9916 3
      vertex 18.9978 22.3764 0
      vertex 18.9978 22.3764 3
    endloop
  endfacet
  facet normal 0.980806 0.194989 0
    outer loop
      vertex 18.9978 22.3764 0
      vertex 19.0743 21.9916 3
      vertex 19.0743 21.9916 0
    endloop
  endfacet
  facet normal 0.997853 0.0654873 0
    outer loop
      vertex 19.1 21.6 3
      vertex 19.0743 21.9916 0
      vertex 19.0743 21.9916 3
    endloop
  endfacet
  facet normal 0.997853 0.0654873 0
    outer loop
      vertex 19.0743 21.9916 0
      vertex 19.1 21.6 3
      vertex 19.1 21.6 0
    endloop
  endfacet
  facet normal 0.896961 0.44211 0
    outer loop
      vertex 18.8716 22.748 3
      vertex 18.6981 23.1 0
      vertex 18.6981 23.1 3
    endloop
  endfacet
  facet normal 0.896961 0.44211 0
    outer loop
      vertex 18.6981 23.1 0
      vertex 18.8716 22.748 3
      vertex 18.8716 22.748 0
    endloop
  endfacet
  facet normal 0.896961 -0.44211 0
    outer loop
      vertex 18.6981 -23.1 3
      vertex 18.8716 -22.748 0
      vertex 18.8716 -22.748 3
    endloop
  endfacet
  facet normal 0.896961 -0.44211 0
    outer loop
      vertex 18.8716 -22.748 0
      vertex 18.6981 -23.1 3
      vertex 18.6981 -23.1 0
    endloop
  endfacet
  facet normal 0.980806 -0.194989 0
    outer loop
      vertex 18.9978 -22.3764 3
      vertex 19.0743 -21.9916 0
      vertex 19.0743 -21.9916 3
    endloop
  endfacet
  facet normal 0.980806 -0.194989 0
    outer loop
      vertex 19.0743 -21.9916 0
      vertex 18.9978 -22.3764 3
      vertex 18.9978 -22.3764 0
    endloop
  endfacet
  facet normal 0.751724 -0.659478 0
    outer loop
      vertex 18.2213 -23.7213 3
      vertex 18.4801 -23.4263 0
      vertex 18.4801 -23.4263 3
    endloop
  endfacet
  facet normal 0.751724 -0.659478 0
    outer loop
      vertex 18.4801 -23.4263 0
      vertex 18.2213 -23.7213 3
      vertex 18.2213 -23.7213 0
    endloop
  endfacet
  facet normal 0.44211 -0.896961 0
    outer loop
      vertex 17.248 -24.3716 0
      vertex 17.6 -24.1981 3
      vertex 17.248 -24.3716 3
    endloop
  endfacet
  facet normal 0.44211 -0.896961 0
    outer loop
      vertex 17.6 -24.1981 3
      vertex 17.248 -24.3716 0
      vertex 17.6 -24.1981 0
    endloop
  endfacet
  facet normal -0.659478 0.751724 0
    outer loop
      vertex -17.9263 23.9801 0
      vertex -18.2213 23.7213 3
      vertex -17.9263 23.9801 3
    endloop
  endfacet
  facet normal -0.659478 0.751724 0
    outer loop
      vertex -18.2213 23.7213 3
      vertex -17.9263 23.9801 0
      vertex -18.2213 23.7213 0
    endloop
  endfacet
  facet normal -0.555523 0.831501 0
    outer loop
      vertex -17.6 24.1981 0
      vertex -17.9263 23.9801 3
      vertex -17.6 24.1981 3
    endloop
  endfacet
  facet normal -0.555523 0.831501 0
    outer loop
      vertex -17.9263 23.9801 3
      vertex -17.6 24.1981 0
      vertex -17.9263 23.9801 0
    endloop
  endfacet
  facet normal -0.896961 0.44211 0
    outer loop
      vertex -18.8716 22.748 0
      vertex -18.6981 23.1 3
      vertex -18.6981 23.1 0
    endloop
  endfacet
  facet normal -0.896961 0.44211 0
    outer loop
      vertex -18.6981 23.1 3
      vertex -18.8716 22.748 0
      vertex -18.8716 22.748 3
    endloop
  endfacet
  facet normal -0.980806 -0.194989 0
    outer loop
      vertex -18.9978 -22.3764 0
      vertex -19.0743 -21.9916 3
      vertex -19.0743 -21.9916 0
    endloop
  endfacet
  facet normal -0.980806 -0.194989 0
    outer loop
      vertex -19.0743 -21.9916 3
      vertex -18.9978 -22.3764 0
      vertex -18.9978 -22.3764 3
    endloop
  endfacet
  facet normal -0.946885 -0.321574 0
    outer loop
      vertex -18.8716 -22.748 0
      vertex -18.9978 -22.3764 3
      vertex -18.9978 -22.3764 0
    endloop
  endfacet
  facet normal -0.946885 -0.321574 0
    outer loop
      vertex -18.9978 -22.3764 3
      vertex -18.8716 -22.748 0
      vertex -18.8716 -22.748 3
    endloop
  endfacet
  facet normal -0.831501 -0.555523 0
    outer loop
      vertex -18.4801 -23.4263 0
      vertex -18.6981 -23.1 3
      vertex -18.6981 -23.1 0
    endloop
  endfacet
  facet normal -0.831501 -0.555523 0
    outer loop
      vertex -18.6981 -23.1 3
      vertex -18.4801 -23.4263 0
      vertex -18.4801 -23.4263 3
    endloop
  endfacet
  facet normal -0.555523 -0.831501 0
    outer loop
      vertex -17.9263 -23.9801 0
      vertex -17.6 -24.1981 3
      vertex -17.9263 -23.9801 3
    endloop
  endfacet
  facet normal -0.555523 -0.831501 -0
    outer loop
      vertex -17.6 -24.1981 3
      vertex -17.9263 -23.9801 0
      vertex -17.6 -24.1981 0
    endloop
  endfacet
  facet normal -0.0654873 -0.997853 0
    outer loop
      vertex -16.4916 -24.5743 0
      vertex -16.1 -24.6 3
      vertex -16.4916 -24.5743 3
    endloop
  endfacet
  facet normal -0.0654873 -0.997853 -0
    outer loop
      vertex -16.1 -24.6 3
      vertex -16.4916 -24.5743 0
      vertex -16.1 -24.6 0
    endloop
  endfacet
  facet normal -0.321574 -0.946885 0
    outer loop
      vertex -17.248 -24.3716 0
      vertex -16.8764 -24.4978 3
      vertex -17.248 -24.3716 3
    endloop
  endfacet
  facet normal -0.321574 -0.946885 -0
    outer loop
      vertex -16.8764 -24.4978 3
      vertex -17.248 -24.3716 0
      vertex -16.8764 -24.4978 0
    endloop
  endfacet
  facet normal 0.946885 -0.321574 0
    outer loop
      vertex 18.8716 -22.748 3
      vertex 18.9978 -22.3764 0
      vertex 18.9978 -22.3764 3
    endloop
  endfacet
  facet normal 0.946885 -0.321574 0
    outer loop
      vertex 18.9978 -22.3764 0
      vertex 18.8716 -22.748 3
      vertex 18.8716 -22.748 0
    endloop
  endfacet
  facet normal 0.997853 -0.0654873 0
    outer loop
      vertex 19.0743 -21.9916 3
      vertex 19.1 -21.6 0
      vertex 19.1 -21.6 3
    endloop
  endfacet
  facet normal 0.997853 -0.0654873 0
    outer loop
      vertex 19.1 -21.6 0
      vertex 19.0743 -21.9916 3
      vertex 19.0743 -21.9916 0
    endloop
  endfacet
  facet normal 0.555523 -0.831501 0
    outer loop
      vertex 17.6 -24.1981 0
      vertex 17.9263 -23.9801 3
      vertex 17.6 -24.1981 3
    endloop
  endfacet
  facet normal 0.555523 -0.831501 0
    outer loop
      vertex 17.9263 -23.9801 3
      vertex 17.6 -24.1981 0
      vertex 17.9263 -23.9801 0
    endloop
  endfacet
  facet normal 0.659478 -0.751724 0
    outer loop
      vertex 17.9263 -23.9801 0
      vertex 18.2213 -23.7213 3
      vertex 17.9263 -23.9801 3
    endloop
  endfacet
  facet normal 0.659478 -0.751724 0
    outer loop
      vertex 18.2213 -23.7213 3
      vertex 17.9263 -23.9801 0
      vertex 18.2213 -23.7213 0
    endloop
  endfacet
  facet normal -0.896961 -0.44211 0
    outer loop
      vertex -18.6981 -23.1 0
      vertex -18.8716 -22.748 3
      vertex -18.8716 -22.748 0
    endloop
  endfacet
  facet normal -0.896961 -0.44211 0
    outer loop
      vertex -18.8716 -22.748 3
      vertex -18.6981 -23.1 0
      vertex -18.6981 -23.1 3
    endloop
  endfacet
  facet normal 0.946885 0.321574 0
    outer loop
      vertex 18.9978 22.3764 3
      vertex 18.8716 22.748 0
      vertex 18.8716 22.748 3
    endloop
  endfacet
  facet normal 0.946885 0.321574 0
    outer loop
      vertex 18.8716 22.748 0
      vertex 18.9978 22.3764 3
      vertex 18.9978 22.3764 0
    endloop
  endfacet
  facet normal 1 -0 0
    outer loop
      vertex -9.5 -17 1.5
      vertex -9.5 17 0
      vertex -9.5 17 1.5
    endloop
  endfacet
  facet normal 1 0 0
    outer loop
      vertex -9.5 17 0
      vertex -9.5 -17 1.5
      vertex -9.5 -17 0
    endloop
  endfacet
  facet normal 0 0 -1
    outer loop
      vertex -9.5 -17 1.5
      vertex 9.5 17 1.5
      vertex 9.5 -17 1.5
    endloop
  endfacet
  facet normal -0 0 -1
    outer loop
      vertex 9.5 17 1.5
      vertex -9.5 -17 1.5
      vertex -9.5 17 1.5
    endloop
  endfacet
  facet normal -1 0 0
    outer loop
      vertex 9.5 -17 0
      vertex 9.5 17 1.5
      vertex 9.5 17 0
    endloop
  endfacet
  facet normal -1 -0 0
    outer loop
      vertex 9.5 17 1.5
      vertex 9.5 -17 0
      vertex 9.5 -17 1.5
    endloop
  endfacet
  facet normal 0 -1 0
    outer loop
      vertex -9.5 17 0
      vertex 9.5 17 1.5
      vertex -9.5 17 1.5
    endloop
  endfacet
  facet normal 0 -1 -0
    outer loop
      vertex 9.5 17 1.5
      vertex -9.5 17 0
      vertex 9.5 17 0
    endloop
  endfacet
  facet normal 0 1 -0
    outer loop
      vertex 9.5 -17 0
      vertex -9.5 -17 1.5
      vertex 9.5 -17 1.5
    endloop
  endfacet
  facet normal 0 1 0
    outer loop
      vertex -9.5 -17 1.5
      vertex 9.5 -17 0
      vertex -9.5 -17 0
    endloop
  endfacet
  facet normal -1 0 0
    outer loop
      vertex -16.5 -21.6 3
      vertex -16.5 21.6 22
      vertex -16.5 21.6 3
    endloop
  endfacet
  facet normal -1 -0 0
    outer loop
      vertex -16.5 21.6 22
      vertex -16.5 -21.6 3
      vertex -16.5 -21.6 22
    endloop
  endfacet
  facet normal -0 0 1
    outer loop
      vertex -16.5 21.6 22
      vertex -14.1 -21.6 22
      vertex -14.1 21.6 22
    endloop
  endfacet
  facet normal 0 0 1
    outer loop
      vertex -14.1 -21.6 22
      vertex -16.5 21.6 22
      vertex -16.5 -21.6 22
    endloop
  endfacet
  facet normal 1 0 0
    outer loop
      vertex -14.1 21.6 22
      vertex -14.1 20.4 9
      vertex -14.1 21.6 9
    endloop
  endfacet
  facet normal 1 0 0
    outer loop
      vertex -14.1 20.4 9
      vertex -14.1 -20.4 9
      vertex -14.1 20.4 3
    endloop
  endfacet
  facet normal 1 0 0
    outer loop
      vertex -14.1 21.6 22
      vertex -14.1 -20.4 9
      vertex -14.1 20.4 9
    endloop
  endfacet
  facet normal 1 -0 0
    outer loop
      vertex -14.1 -21.6 22
      vertex -14.1 -20.4 9
      vertex -14.1 21.6 22
    endloop
  endfacet
  facet normal 1 0 0
    outer loop
      vertex -14.1 -20.4 9
      vertex -14.1 -21.6 22
      vertex -14.1 -21.6 9
    endloop
  endfacet
  facet normal 1 0 0
    outer loop
      vertex -14.1 20.4 3
      vertex -14.1 -20.4 9
      vertex -14.1 -20.4 3
    endloop
  endfacet
  facet normal -1 0 0
    outer loop
      vertex -14.1 21.6 3
      vertex -14.1 22.8 9
      vertex -14.1 22.8 3
    endloop
  endfacet
  facet normal -1 -0 0
    outer loop
      vertex -14.1 22.8 9
      vertex -14.1 21.6 3
      vertex -14.1 21.6 9
    endloop
  endfacet
  facet normal -1 0 0
    outer loop
      vertex -14.1 -22.8 3
      vertex -14.1 -21.6 9
      vertex -14.1 -21.6 3
    endloop
  endfacet
  facet normal -1 -0 0
    outer loop
      vertex -14.1 -21.6 9
      vertex -14.1 -22.8 3
      vertex -14.1 -22.8 9
    endloop
  endfacet
  facet normal 0 1 -0
    outer loop
      vertex -14.1 21.6 9
      vertex -16.5 21.6 22
      vertex -14.1 21.6 22
    endloop
  endfacet
  facet normal 0 1 0
    outer loop
      vertex -16.5 21.6 3
      vertex -14.1 21.6 9
      vertex -14.1 21.6 3
    endloop
  endfacet
  facet normal 0 1 0
    outer loop
      vertex -14.1 21.6 9
      vertex -16.5 21.6 3
      vertex -16.5 21.6 22
    endloop
  endfacet
  facet normal 0 -1 0
    outer loop
      vertex -16.5 -21.6 22
      vertex -14.1 -21.6 9
      vertex -14.1 -21.6 22
    endloop
  endfacet
  facet normal 0 -1 0
    outer loop
      vertex -16.5 -21.6 3
      vertex -14.1 -21.6 9
      vertex -16.5 -21.6 22
    endloop
  endfacet
  facet normal 0 -1 -0
    outer loop
      vertex -14.1 -21.6 9
      vertex -16.5 -21.6 3
      vertex -14.1 -21.6 3
    endloop
  endfacet
  facet normal 1 -0 0
    outer loop
      vertex 14.1 -22.8 9
      vertex 14.1 -21.6 3
      vertex 14.1 -21.6 9
    endloop
  endfacet
  facet normal 1 0 0
    outer loop
      vertex 14.1 -21.6 3
      vertex 14.1 -22.8 9
      vertex 14.1 -22.8 3
    endloop
  endfacet
  facet normal -1 0 0
    outer loop
      vertex 14.1 20.4 3
      vertex 14.1 -20.4 3
      vertex 14.1 20.4 9
    endloop
  endfacet
  facet normal -1 0 0
    outer loop
      vertex 14.1 20.4 9
      vertex 14.1 21.6 22
      vertex 14.1 21.6 9
    endloop
  endfacet
  facet normal -1 0 0
    outer loop
      vertex 14.1 -20.4 9
      vertex 14.1 20.4 9
      vertex 14.1 -20.4 3
    endloop
  endfacet
  facet normal -1 0 0
    outer loop
      vertex 14.1 20.4 9
      vertex 14.1 -20.4 9
      vertex 14.1 21.6 22
    endloop
  endfacet
  facet normal -1 0 0
    outer loop
      vertex 14.1 -21.6 22
      vertex 14.1 -20.4 9
      vertex 14.1 -21.6 9
    endloop
  endfacet
  facet normal -1 0 0
    outer loop
      vertex 14.1 -20.4 9
      vertex 14.1 -21.6 22
      vertex 14.1 21.6 22
    endloop
  endfacet
  facet normal 1 -0 0
    outer loop
      vertex 14.1 21.6 9
      vertex 14.1 22.8 3
      vertex 14.1 22.8 9
    endloop
  endfacet
  facet normal 1 0 0
    outer loop
      vertex 14.1 22.8 3
      vertex 14.1 21.6 9
      vertex 14.1 21.6 3
    endloop
  endfacet
  facet normal -0 0 1
    outer loop
      vertex 14.1 21.6 22
      vertex 16.5 -21.6 22
      vertex 16.5 21.6 22
    endloop
  endfacet
  facet normal 0 0 1
    outer loop
      vertex 16.5 -21.6 22
      vertex 14.1 21.6 22
      vertex 14.1 -21.6 22
    endloop
  endfacet
  facet normal 1 -0 0
    outer loop
      vertex 16.5 -21.6 22
      vertex 16.5 21.6 3
      vertex 16.5 21.6 22
    endloop
  endfacet
  facet normal 1 0 0
    outer loop
      vertex 16.5 21.6 3
      vertex 16.5 -21.6 22
      vertex 16.5 -21.6 3
    endloop
  endfacet
  facet normal 0 -1 0
    outer loop
      vertex 14.1 -21.6 9
      vertex 16.5 -21.6 22
      vertex 14.1 -21.6 22
    endloop
  endfacet
  facet normal 0 -1 0
    outer loop
      vertex 16.5 -21.6 3
      vertex 14.1 -21.6 9
      vertex 14.1 -21.6 3
    endloop
  endfacet
  facet normal 0 -1 0
    outer loop
      vertex 14.1 -21.6 9
      vertex 16.5 -21.6 3
      vertex 16.5 -21.6 22
    endloop
  endfacet
  facet normal 0 1 0
    outer loop
      vertex 16.5 21.6 22
      vertex 14.1 21.6 9
      vertex 14.1 21.6 22
    endloop
  endfacet
  facet normal 0 1 -0
    outer loop
      vertex 16.5 21.6 3
      vertex 14.1 21.6 9
      vertex 16.5 21.6 22
    endloop
  endfacet
  facet normal 0 1 0
    outer loop
      vertex 14.1 21.6 9
      vertex 16.5 21.6 3
      vertex 14.1 21.6 3
    endloop
  endfacet
  facet normal 0 0 1
    outer loop
      vertex -14.1 -21.6 9
      vertex 14.1 -21.6 9
      vertex 14.1 -20.4 9
    endloop
  endfacet
  facet normal 0 0 1
    outer loop
      vertex -14.1 -21.6 9
      vertex 14.1 -20.4 9
      vertex -14.1 -20.4 9
    endloop
  endfacet
  facet normal 0 0 1
    outer loop
      vertex 14.1 -21.6 9
      vertex -14.1 -21.6 9
      vertex 14.1 -22.8 9
    endloop
  endfacet
  facet normal 0 0 1
    outer loop
      vertex 14.1 -22.8 9
      vertex -14.1 -21.6 9
      vertex -14.1 -22.8 9
    endloop
  endfacet
  facet normal 0 1 -0
    outer loop
      vertex 14.1 -20.4 3
      vertex -14.1 -20.4 9
      vertex 14.1 -20.4 9
    endloop
  endfacet
  facet normal 0 1 0
    outer loop
      vertex -14.1 -20.4 9
      vertex 14.1 -20.4 3
      vertex -14.1 -20.4 3
    endloop
  endfacet
  facet normal 0 -1 0
    outer loop
      vertex -14.1 -22.8 3
      vertex 14.1 -22.8 9
      vertex -14.1 -22.8 9
    endloop
  endfacet
  facet normal 0 -1 -0
    outer loop
      vertex 14.1 -22.8 9
      vertex -14.1 -22.8 3
      vertex 14.1 -22.8 3
    endloop
  endfacet
  facet normal 0 0 1
    outer loop
      vertex -14.1 21.6 9
      vertex 14.1 21.6 9
      vertex 14.1 22.8 9
    endloop
  endfacet
  facet normal 0 0 1
    outer loop
      vertex -14.1 21.6 9
      vertex 14.1 22.8 9
      vertex -14.1 22.8 9
    endloop
  endfacet
  facet normal 0 0 1
    outer loop
      vertex 14.1 21.6 9
      vertex -14.1 21.6 9
      vertex 14.1 20.4 9
    endloop
  endfacet
  facet normal 0 0 1
    outer loop
      vertex 14.1 20.4 9
      vertex -14.1 21.6 9
      vertex -14.1 20.4 9
    endloop
  endfacet
  facet normal 0 1 -0
    outer loop
      vertex 14.1 22.8 3
      vertex -14.1 22.8 9
      vertex 14.1 22.8 9
    endloop
  endfacet
  facet normal 0 1 0
    outer loop
      vertex -14.1 22.8 9
      vertex 14.1 22.8 3
      vertex -14.1 22.8 3
    endloop
  endfacet
  facet normal 0 -1 0
    outer loop
      vertex -14.1 20.4 3
      vertex 14.1 20.4 9
      vertex -14.1 20.4 9
    endloop
  endfacet
  facet normal 0 -1 -0
    outer loop
      vertex 14.1 20.4 9
      vertex -14.1 20.4 3
      vertex 14.1 20.4 3
    endloop
  endfacet
endsolid OpenSCAD_Model
