solid OpenSCAD_Model
  facet normal 0.321574 -0.946885 0
    outer loop
      vertex 49.7765 -79.3978 0
      vertex 50.1481 -79.2716 2
      vertex 49.7765 -79.3978 2
    endloop
  endfacet
  facet normal 0.321574 -0.946885 0
    outer loop
      vertex 50.1481 -79.2716 2
      vertex 49.7765 -79.3978 0
      vertex 50.1481 -79.2716 0
    endloop
  endfacet
  facet normal 0.0654873 -0.997853 0
    outer loop
      vertex 49 -79.5 0
      vertex 49.3916 -79.4743 2
      vertex 49 -79.5 2
    endloop
  endfacet
  facet normal 0.0654873 -0.997853 0
    outer loop
      vertex 49.3916 -79.4743 2
      vertex 49 -79.5 0
      vertex 49.3916 -79.4743 0
    endloop
  endfacet
  facet normal -0.19494 0.980815 0
    outer loop
      vertex -49.3916 79.4743 0
      vertex -49.7765 79.3978 2
      vertex -49.3916 79.4743 2
    endloop
  endfacet
  facet normal -0.19494 0.980815 0
    outer loop
      vertex -49.7765 79.3978 2
      vertex -49.3916 79.4743 0
      vertex -49.7765 79.3978 0
    endloop
  endfacet
  facet normal 0.19494 -0.980815 0
    outer loop
      vertex 49.3916 -79.4743 0
      vertex 49.7765 -79.3978 2
      vertex 49.3916 -79.4743 2
    endloop
  endfacet
  facet normal 0.19494 -0.980815 0
    outer loop
      vertex 49.7765 -79.3978 2
      vertex 49.3916 -79.4743 0
      vertex 49.7765 -79.3978 0
    endloop
  endfacet
  facet normal 0.896911 0.442211 0
    outer loop
      vertex 51.7716 77.6481 2
      vertex 51.5981 78 0
      vertex 51.5981 78 2
    endloop
  endfacet
  facet normal 0.896911 0.442211 0
    outer loop
      vertex 51.5981 78 0
      vertex 51.7716 77.6481 2
      vertex 51.7716 77.6481 0
    endloop
  endfacet
  facet normal -0.997853 0.0654873 0
    outer loop
      vertex -52 76.5 0
      vertex -51.9743 76.8916 2
      vertex -51.9743 76.8916 0
    endloop
  endfacet
  facet normal -0.997853 0.0654873 0
    outer loop
      vertex -51.9743 76.8916 2
      vertex -52 76.5 0
      vertex -52 76.5 2
    endloop
  endfacet
  facet normal -1 0 0
    outer loop
      vertex -52 -76.5 0
      vertex -52 76.5 2
      vertex -52 76.5 0
    endloop
  endfacet
  facet normal -1 -0 0
    outer loop
      vertex -52 76.5 2
      vertex -52 -76.5 0
      vertex -52 -76.5 2
    endloop
  endfacet
  facet normal 0 -1 0
    outer loop
      vertex -49 -79.5 2
      vertex -4 -79.5 1
      vertex 49 -79.5 2
    endloop
  endfacet
  facet normal 0 -1 0
    outer loop
      vertex -49 -79.5 0
      vertex -4 -79.5 1
      vertex -49 -79.5 2
    endloop
  endfacet
  facet normal 0 -1 -0
    outer loop
      vertex -4 -79.5 1
      vertex -49 -79.5 0
      vertex -4 -79.5 0
    endloop
  endfacet
  facet normal 0 -1 0
    outer loop
      vertex 4 -79.5 1
      vertex 49 -79.5 2
      vertex -4 -79.5 1
    endloop
  endfacet
  facet normal 0 -1 0
    outer loop
      vertex 49 -79.5 0
      vertex 4 -79.5 1
      vertex 4 -79.5 0
    endloop
  endfacet
  facet normal 0 -1 0
    outer loop
      vertex 4 -79.5 1
      vertex 49 -79.5 0
      vertex 49 -79.5 2
    endloop
  endfacet
  facet normal 0.0654873 0.997853 -0
    outer loop
      vertex 49.3916 79.4743 0
      vertex 49 79.5 2
      vertex 49.3916 79.4743 2
    endloop
  endfacet
  facet normal 0.0654873 0.997853 0
    outer loop
      vertex 49 79.5 2
      vertex 49.3916 79.4743 0
      vertex 49 79.5 0
    endloop
  endfacet
  facet normal 0 1 -0
    outer loop
      vertex 49 79.5 0
      vertex -49 79.5 2
      vertex 49 79.5 2
    endloop
  endfacet
  facet normal 0 1 0
    outer loop
      vertex -49 79.5 2
      vertex 49 79.5 0
      vertex -49 79.5 0
    endloop
  endfacet
  facet normal 1 -0 0
    outer loop
      vertex 52 -76.5 2
      vertex 52 76.5 0
      vertex 52 76.5 2
    endloop
  endfacet
  facet normal 1 0 0
    outer loop
      vertex 52 76.5 0
      vertex 52 -76.5 2
      vertex 52 -76.5 0
    endloop
  endfacet
  facet normal -0.751724 0.659478 0
    outer loop
      vertex -51.3801 78.3263 0
      vertex -51.1213 78.6213 2
      vertex -51.1213 78.6213 0
    endloop
  endfacet
  facet normal -0.751724 0.659478 0
    outer loop
      vertex -51.1213 78.6213 2
      vertex -51.3801 78.3263 0
      vertex -51.3801 78.3263 2
    endloop
  endfacet
  facet normal 0 0 -1
    outer loop
      vertex -49 -79.5 0
      vertex -4 -77.5 0
      vertex -4 -79.5 0
    endloop
  endfacet
  facet normal 0 0 -1
    outer loop
      vertex -4 -77.5 0
      vertex -52 -76.5 0
      vertex -4.24264 54.2574 0
    endloop
  endfacet
  facet normal 0 0 -1
    outer loop
      vertex -52 76.5 0
      vertex -4.24264 54.2574 0
      vertex -52 -76.5 0
    endloop
  endfacet
  facet normal 0 0 -1
    outer loop
      vertex -4.24264 54.2574 0
      vertex -52 76.5 0
      vertex -4.76012 54.8474 0
    endloop
  endfacet
  facet normal 0 0 -1
    outer loop
      vertex -4.76012 54.8474 0
      vertex -52 76.5 0
      vertex -5.19615 55.5 0
    endloop
  endfacet
  facet normal 0 0 -1
    outer loop
      vertex -5.19615 55.5 0
      vertex -52 76.5 0
      vertex -5.54328 56.2039 0
    endloop
  endfacet
  facet normal 0 0 -1
    outer loop
      vertex -5.54328 56.2039 0
      vertex -52 76.5 0
      vertex -5.79555 56.9471 0
    endloop
  endfacet
  facet normal -0 0 -1
    outer loop
      vertex -4 -77.5 0
      vertex -49 -79.5 0
      vertex -52 -76.5 0
    endloop
  endfacet
  facet normal 0 0 -1
    outer loop
      vertex 49 -79.5 0
      vertex 52 -76.5 0
      vertex 51.9743 -76.8916 0
    endloop
  endfacet
  facet normal 0 0 -1
    outer loop
      vertex 52 -76.5 0
      vertex 4.24264 54.2574 0
      vertex 52 76.5 0
    endloop
  endfacet
  facet normal 0 0 -1
    outer loop
      vertex 49 -79.5 0
      vertex 51.9743 -76.8916 0
      vertex 51.8978 -77.2765 0
    endloop
  endfacet
  facet normal 0 -0 -1
    outer loop
      vertex 4.76012 54.8474 0
      vertex 52 76.5 0
      vertex 4.24264 54.2574 0
    endloop
  endfacet
  facet normal 0 0 -1
    outer loop
      vertex 49 -79.5 0
      vertex 51.8978 -77.2765 0
      vertex 51.7716 -77.6481 0
    endloop
  endfacet
  facet normal 0 -0 -1
    outer loop
      vertex 5.19615 55.5 0
      vertex 52 76.5 0
      vertex 4.76012 54.8474 0
    endloop
  endfacet
  facet normal 0 0 -1
    outer loop
      vertex 49 -79.5 0
      vertex 51.7716 -77.6481 0
      vertex 51.5981 -78 0
    endloop
  endfacet
  facet normal 0 -0 -1
    outer loop
      vertex 5.54328 56.2039 0
      vertex 52 76.5 0
      vertex 5.19615 55.5 0
    endloop
  endfacet
  facet normal 0 0 -1
    outer loop
      vertex 49 -79.5 0
      vertex 51.5981 -78 0
      vertex 51.3801 -78.3263 0
    endloop
  endfacet
  facet normal 0 -0 -1
    outer loop
      vertex 5.79555 56.9471 0
      vertex 52 76.5 0
      vertex 5.54328 56.2039 0
    endloop
  endfacet
  facet normal 0 0 -1
    outer loop
      vertex 49 -79.5 0
      vertex 51.3801 -78.3263 0
      vertex 51.1213 -78.6213 0
    endloop
  endfacet
  facet normal 0 -0 -1
    outer loop
      vertex 5.94867 57.7168 0
      vertex 52 76.5 0
      vertex 5.79555 56.9471 0
    endloop
  endfacet
  facet normal 0 0 -1
    outer loop
      vertex 49 -79.5 0
      vertex 51.1213 -78.6213 0
      vertex 50.8263 -78.8801 0
    endloop
  endfacet
  facet normal 0 -0 -1
    outer loop
      vertex 6 58.5 0
      vertex 52 76.5 0
      vertex 5.94867 57.7168 0
    endloop
  endfacet
  facet normal 0 0 -1
    outer loop
      vertex 49 -79.5 0
      vertex 50.8263 -78.8801 0
      vertex 50.5 -79.0981 0
    endloop
  endfacet
  facet normal 0 -0 -1
    outer loop
      vertex 49 79.5 0
      vertex 52 76.5 0
      vertex 6 58.5 0
    endloop
  endfacet
  facet normal 0 0 -1
    outer loop
      vertex 49 -79.5 0
      vertex 50.5 -79.0981 0
      vertex 50.1481 -79.2716 0
    endloop
  endfacet
  facet normal 0 0 -1
    outer loop
      vertex 51.9743 76.8916 0
      vertex 49 79.5 0
      vertex 51.8978 77.2765 0
    endloop
  endfacet
  facet normal 0 0 -1
    outer loop
      vertex 49 -79.5 0
      vertex 50.1481 -79.2716 0
      vertex 49.7765 -79.3978 0
    endloop
  endfacet
  facet normal 0 0 -1
    outer loop
      vertex 51.8978 77.2765 0
      vertex 49 79.5 0
      vertex 51.7716 77.6481 0
    endloop
  endfacet
  facet normal 0 0 -1
    outer loop
      vertex 49 -79.5 0
      vertex 49.7765 -79.3978 0
      vertex 49.3916 -79.4743 0
    endloop
  endfacet
  facet normal 0 0 -1
    outer loop
      vertex 51.5981 78 0
      vertex 49 79.5 0
      vertex 51.3801 78.3263 0
    endloop
  endfacet
  facet normal 0 0 -1
    outer loop
      vertex 52 -76.5 0
      vertex 49 -79.5 0
      vertex 4 -77.5 0
    endloop
  endfacet
  facet normal 0 0 -1
    outer loop
      vertex 51.3801 78.3263 0
      vertex 49 79.5 0
      vertex 51.1213 78.6213 0
    endloop
  endfacet
  facet normal 0 0 -1
    outer loop
      vertex 50.8263 78.8801 0
      vertex 49 79.5 0
      vertex 50.5 79.0981 0
    endloop
  endfacet
  facet normal 0 0 -1
    outer loop
      vertex 52 76.5 0
      vertex 49 79.5 0
      vertex 51.9743 76.8916 0
    endloop
  endfacet
  facet normal 0 0 -1
    outer loop
      vertex 51.7716 77.6481 0
      vertex 49 79.5 0
      vertex 51.5981 78 0
    endloop
  endfacet
  facet normal 0 0 -1
    outer loop
      vertex 51.1213 78.6213 0
      vertex 49 79.5 0
      vertex 50.8263 78.8801 0
    endloop
  endfacet
  facet normal 0 0 -1
    outer loop
      vertex 50.5 79.0981 0
      vertex 49 79.5 0
      vertex 50.1481 79.2716 0
    endloop
  endfacet
  facet normal 0 0 -1
    outer loop
      vertex 49.7765 79.3978 0
      vertex 49 79.5 0
      vertex 49.3916 79.4743 0
    endloop
  endfacet
  facet normal 0 0 -1
    outer loop
      vertex 50.1481 79.2716 0
      vertex 49 79.5 0
      vertex 49.7765 79.3978 0
    endloop
  endfacet
  facet normal 0 0 -1
    outer loop
      vertex 4 -77.5 0
      vertex 49 -79.5 0
      vertex 4 -79.5 0
    endloop
  endfacet
  facet normal -0 0 -1
    outer loop
      vertex 52 -76.5 0
      vertex 4 -77.5 0
      vertex 2.2961 52.9567 0
    endloop
  endfacet
  facet normal 0 0 -1
    outer loop
      vertex 52 -76.5 0
      vertex 3.65257 53.7399 0
      vertex 4.24264 54.2574 0
    endloop
  endfacet
  facet normal 0 0 -1
    outer loop
      vertex 52 -76.5 0
      vertex 3 53.3038 0
      vertex 3.65257 53.7399 0
    endloop
  endfacet
  facet normal 0 0 -1
    outer loop
      vertex 52 -76.5 0
      vertex 2.2961 52.9567 0
      vertex 3 53.3038 0
    endloop
  endfacet
  facet normal 0 0 -1
    outer loop
      vertex 4 -77.5 0
      vertex 1.55291 52.7044 0
      vertex 2.2961 52.9567 0
    endloop
  endfacet
  facet normal 0 0 -1
    outer loop
      vertex 4 -77.5 0
      vertex 0.783156 52.5513 0
      vertex 1.55291 52.7044 0
    endloop
  endfacet
  facet normal 0 0 -1
    outer loop
      vertex 4 -77.5 0
      vertex 0 52.5 0
      vertex 0.783156 52.5513 0
    endloop
  endfacet
  facet normal 0 0 -1
    outer loop
      vertex -4 -77.5 0
      vertex 0 52.5 0
      vertex 4 -77.5 0
    endloop
  endfacet
  facet normal -0 0 -1
    outer loop
      vertex 0 52.5 0
      vertex -4 -77.5 0
      vertex -0.783156 52.5513 0
    endloop
  endfacet
  facet normal -0 0 -1
    outer loop
      vertex -0.783156 52.5513 0
      vertex -4 -77.5 0
      vertex -1.55291 52.7044 0
    endloop
  endfacet
  facet normal -0 0 -1
    outer loop
      vertex -1.55291 52.7044 0
      vertex -4 -77.5 0
      vertex -2.2961 52.9567 0
    endloop
  endfacet
  facet normal -0 0 -1
    outer loop
      vertex -2.2961 52.9567 0
      vertex -4 -77.5 0
      vertex -3 53.3038 0
    endloop
  endfacet
  facet normal -0 0 -1
    outer loop
      vertex -3 53.3038 0
      vertex -4 -77.5 0
      vertex -3.65257 53.7399 0
    endloop
  endfacet
  facet normal -0 0 -1
    outer loop
      vertex -3.65257 53.7399 0
      vertex -4 -77.5 0
      vertex -4.24264 54.2574 0
    endloop
  endfacet
  facet normal 0 0 -1
    outer loop
      vertex 5.94867 59.2832 0
      vertex 49 79.5 0
      vertex 6 58.5 0
    endloop
  endfacet
  facet normal 0 0 -1
    outer loop
      vertex 5.79555 60.0529 0
      vertex 49 79.5 0
      vertex 5.94867 59.2832 0
    endloop
  endfacet
  facet normal 0 0 -1
    outer loop
      vertex 5.54328 60.7961 0
      vertex 49 79.5 0
      vertex 5.79555 60.0529 0
    endloop
  endfacet
  facet normal 0 0 -1
    outer loop
      vertex 5.19615 61.5 0
      vertex 49 79.5 0
      vertex 5.54328 60.7961 0
    endloop
  endfacet
  facet normal 0 0 -1
    outer loop
      vertex 4.76012 62.1526 0
      vertex 49 79.5 0
      vertex 5.19615 61.5 0
    endloop
  endfacet
  facet normal 0 0 -1
    outer loop
      vertex 4.24264 62.7426 0
      vertex 49 79.5 0
      vertex 4.76012 62.1526 0
    endloop
  endfacet
  facet normal 0 0 -1
    outer loop
      vertex 3.65257 63.2601 0
      vertex 49 79.5 0
      vertex 4.24264 62.7426 0
    endloop
  endfacet
  facet normal 0 0 -1
    outer loop
      vertex 3 63.6962 0
      vertex 49 79.5 0
      vertex 3.65257 63.2601 0
    endloop
  endfacet
  facet normal 0 0 -1
    outer loop
      vertex 2.2961 64.0433 0
      vertex 49 79.5 0
      vertex 3 63.6962 0
    endloop
  endfacet
  facet normal 0 0 -1
    outer loop
      vertex 1.55291 64.2956 0
      vertex 49 79.5 0
      vertex 2.2961 64.0433 0
    endloop
  endfacet
  facet normal 0 0 -1
    outer loop
      vertex 0.783156 64.4487 0
      vertex 49 79.5 0
      vertex 1.55291 64.2956 0
    endloop
  endfacet
  facet normal 0 0 -1
    outer loop
      vertex 0 64.5 0
      vertex 49 79.5 0
      vertex 0.783156 64.4487 0
    endloop
  endfacet
  facet normal 0 0 -1
    outer loop
      vertex -49 79.5 0
      vertex 0 64.5 0
      vertex -0.783156 64.4487 0
    endloop
  endfacet
  facet normal 0 0 -1
    outer loop
      vertex -49 79.5 0
      vertex -0.783156 64.4487 0
      vertex -1.55291 64.2956 0
    endloop
  endfacet
  facet normal 0 0 -1
    outer loop
      vertex -5.79555 56.9471 0
      vertex -52 76.5 0
      vertex -5.94867 57.7168 0
    endloop
  endfacet
  facet normal 0 0 -1
    outer loop
      vertex -5.94867 57.7168 0
      vertex -52 76.5 0
      vertex -6 58.5 0
    endloop
  endfacet
  facet normal 0 0 -1
    outer loop
      vertex 0 64.5 0
      vertex -49 79.5 0
      vertex 49 79.5 0
    endloop
  endfacet
  facet normal 0 0 -1
    outer loop
      vertex -2.2961 64.0433 0
      vertex -49 79.5 0
      vertex -1.55291 64.2956 0
    endloop
  endfacet
  facet normal 0 0 -1
    outer loop
      vertex -3 63.6962 0
      vertex -49 79.5 0
      vertex -2.2961 64.0433 0
    endloop
  endfacet
  facet normal 0 0 -1
    outer loop
      vertex -3.65257 63.2601 0
      vertex -49 79.5 0
      vertex -3 63.6962 0
    endloop
  endfacet
  facet normal 0 0 -1
    outer loop
      vertex -4.24264 62.7426 0
      vertex -49 79.5 0
      vertex -3.65257 63.2601 0
    endloop
  endfacet
  facet normal 0 0 -1
    outer loop
      vertex -4.76012 62.1526 0
      vertex -49 79.5 0
      vertex -4.24264 62.7426 0
    endloop
  endfacet
  facet normal 0 0 -1
    outer loop
      vertex -5.19615 61.5 0
      vertex -49 79.5 0
      vertex -4.76012 62.1526 0
    endloop
  endfacet
  facet normal 0 0 -1
    outer loop
      vertex -5.54328 60.7961 0
      vertex -49 79.5 0
      vertex -5.19615 61.5 0
    endloop
  endfacet
  facet normal 0 0 -1
    outer loop
      vertex -5.79555 60.0529 0
      vertex -49 79.5 0
      vertex -5.54328 60.7961 0
    endloop
  endfacet
  facet normal 0 -0 -1
    outer loop
      vertex -49 79.5 0
      vertex -6 58.5 0
      vertex -52 76.5 0
    endloop
  endfacet
  facet normal 0 0 -1
    outer loop
      vertex -52 -76.5 0
      vertex -49 -79.5 0
      vertex -49.3916 -79.4743 0
    endloop
  endfacet
  facet normal 0 0 -1
    outer loop
      vertex -6 58.5 0
      vertex -49 79.5 0
      vertex -5.94867 59.2832 0
    endloop
  endfacet
  facet normal 0 0 -1
    outer loop
      vertex -52 -76.5 0
      vertex -49.3916 -79.4743 0
      vertex -49.7765 -79.3978 0
    endloop
  endfacet
  facet normal 0 0 -1
    outer loop
      vertex -5.94867 59.2832 0
      vertex -49 79.5 0
      vertex -5.79555 60.0529 0
    endloop
  endfacet
  facet normal 0 0 -1
    outer loop
      vertex -52 -76.5 0
      vertex -49.7765 -79.3978 0
      vertex -50.1481 -79.2716 0
    endloop
  endfacet
  facet normal 0 0 -1
    outer loop
      vertex -49 79.5 0
      vertex -52 76.5 0
      vertex -49.3916 79.4743 0
    endloop
  endfacet
  facet normal 0 0 -1
    outer loop
      vertex -52 -76.5 0
      vertex -50.1481 -79.2716 0
      vertex -50.5 -79.0981 0
    endloop
  endfacet
  facet normal 0 0 -1
    outer loop
      vertex -49.3916 79.4743 0
      vertex -52 76.5 0
      vertex -49.7765 79.3978 0
    endloop
  endfacet
  facet normal 0 0 -1
    outer loop
      vertex -52 -76.5 0
      vertex -50.5 -79.0981 0
      vertex -50.8263 -78.8801 0
    endloop
  endfacet
  facet normal 0 0 -1
    outer loop
      vertex -49.7765 79.3978 0
      vertex -52 76.5 0
      vertex -50.1481 79.2716 0
    endloop
  endfacet
  facet normal 0 0 -1
    outer loop
      vertex -52 -76.5 0
      vertex -50.8263 -78.8801 0
      vertex -51.1213 -78.6213 0
    endloop
  endfacet
  facet normal 0 0 -1
    outer loop
      vertex -50.1481 79.2716 0
      vertex -52 76.5 0
      vertex -50.5 79.0981 0
    endloop
  endfacet
  facet normal 0 0 -1
    outer loop
      vertex -52 -76.5 0
      vertex -51.1213 -78.6213 0
      vertex -51.3801 -78.3263 0
    endloop
  endfacet
  facet normal 0 0 -1
    outer loop
      vertex -50.5 79.0981 0
      vertex -52 76.5 0
      vertex -50.8263 78.8801 0
    endloop
  endfacet
  facet normal 0 0 -1
    outer loop
      vertex -52 -76.5 0
      vertex -51.3801 -78.3263 0
      vertex -51.5981 -78 0
    endloop
  endfacet
  facet normal 0 0 -1
    outer loop
      vertex -50.8263 78.8801 0
      vertex -52 76.5 0
      vertex -51.1213 78.6213 0
    endloop
  endfacet
  facet normal 0 0 -1
    outer loop
      vertex -52 -76.5 0
      vertex -51.5981 -78 0
      vertex -51.7716 -77.6481 0
    endloop
  endfacet
  facet normal 0 0 -1
    outer loop
      vertex -51.1213 78.6213 0
      vertex -52 76.5 0
      vertex -51.3801 78.3263 0
    endloop
  endfacet
  facet normal 0 0 -1
    outer loop
      vertex -52 -76.5 0
      vertex -51.7716 -77.6481 0
      vertex -51.8978 -77.2765 0
    endloop
  endfacet
  facet normal 0 0 -1
    outer loop
      vertex -51.3801 78.3263 0
      vertex -52 76.5 0
      vertex -51.5981 78 0
    endloop
  endfacet
  facet normal 0 0 -1
    outer loop
      vertex -52 -76.5 0
      vertex -51.8978 -77.2765 0
      vertex -51.9743 -76.8916 0
    endloop
  endfacet
  facet normal 0 0 -1
    outer loop
      vertex -51.5981 78 0
      vertex -52 76.5 0
      vertex -51.7716 77.6481 0
    endloop
  endfacet
  facet normal 0 0 -1
    outer loop
      vertex -51.7716 77.6481 0
      vertex -52 76.5 0
      vertex -51.8978 77.2765 0
    endloop
  endfacet
  facet normal 0 0 -1
    outer loop
      vertex -51.8978 77.2765 0
      vertex -52 76.5 0
      vertex -51.9743 76.8916 0
    endloop
  endfacet
  facet normal 0.555523 0.831501 -0
    outer loop
      vertex 50.8263 78.8801 0
      vertex 50.5 79.0981 2
      vertex 50.8263 78.8801 2
    endloop
  endfacet
  facet normal 0.555523 0.831501 0
    outer loop
      vertex 50.5 79.0981 2
      vertex 50.8263 78.8801 0
      vertex 50.5 79.0981 0
    endloop
  endfacet
  facet normal -0.0654873 0.997853 0
    outer loop
      vertex -49 79.5 0
      vertex -49.3916 79.4743 2
      vertex -49 79.5 2
    endloop
  endfacet
  facet normal -0.0654873 0.997853 0
    outer loop
      vertex -49.3916 79.4743 2
      vertex -49 79.5 0
      vertex -49.3916 79.4743 0
    endloop
  endfacet
  facet normal -0.442211 0.896911 0
    outer loop
      vertex -50.1481 79.2716 0
      vertex -50.5 79.0981 2
      vertex -50.1481 79.2716 2
    endloop
  endfacet
  facet normal -0.442211 0.896911 0
    outer loop
      vertex -50.5 79.0981 2
      vertex -50.1481 79.2716 0
      vertex -50.5 79.0981 0
    endloop
  endfacet
  facet normal -0.321574 0.946885 0
    outer loop
      vertex -49.7765 79.3978 0
      vertex -50.1481 79.2716 2
      vertex -49.7765 79.3978 2
    endloop
  endfacet
  facet normal -0.321574 0.946885 0
    outer loop
      vertex -50.1481 79.2716 2
      vertex -49.7765 79.3978 0
      vertex -50.1481 79.2716 0
    endloop
  endfacet
  facet normal -0.946885 0.321574 0
    outer loop
      vertex -51.8978 77.2765 0
      vertex -51.7716 77.6481 2
      vertex -51.7716 77.6481 0
    endloop
  endfacet
  facet normal -0.946885 0.321574 0
    outer loop
      vertex -51.7716 77.6481 2
      vertex -51.8978 77.2765 0
      vertex -51.8978 77.2765 2
    endloop
  endfacet
  facet normal -0.980815 0.19494 0
    outer loop
      vertex -51.9743 76.8916 0
      vertex -51.8978 77.2765 2
      vertex -51.8978 77.2765 0
    endloop
  endfacet
  facet normal -0.980815 0.19494 0
    outer loop
      vertex -51.8978 77.2765 2
      vertex -51.9743 76.8916 0
      vertex -51.9743 76.8916 2
    endloop
  endfacet
  facet normal -0.831501 0.555523 0
    outer loop
      vertex -51.5981 78 0
      vertex -51.3801 78.3263 2
      vertex -51.3801 78.3263 0
    endloop
  endfacet
  facet normal -0.831501 0.555523 0
    outer loop
      vertex -51.3801 78.3263 2
      vertex -51.5981 78 0
      vertex -51.5981 78 2
    endloop
  endfacet
  facet normal -0.997853 -0.0654873 0
    outer loop
      vertex -51.9743 -76.8916 0
      vertex -52 -76.5 2
      vertex -52 -76.5 0
    endloop
  endfacet
  facet normal -0.997853 -0.0654873 0
    outer loop
      vertex -52 -76.5 2
      vertex -51.9743 -76.8916 0
      vertex -51.9743 -76.8916 2
    endloop
  endfacet
  facet normal -0.946885 -0.321574 0
    outer loop
      vertex -51.7716 -77.6481 0
      vertex -51.8978 -77.2765 2
      vertex -51.8978 -77.2765 0
    endloop
  endfacet
  facet normal -0.946885 -0.321574 0
    outer loop
      vertex -51.8978 -77.2765 2
      vertex -51.7716 -77.6481 0
      vertex -51.7716 -77.6481 2
    endloop
  endfacet
  facet normal -0.831501 -0.555523 0
    outer loop
      vertex -51.3801 -78.3263 0
      vertex -51.5981 -78 2
      vertex -51.5981 -78 0
    endloop
  endfacet
  facet normal -0.831501 -0.555523 0
    outer loop
      vertex -51.5981 -78 2
      vertex -51.3801 -78.3263 0
      vertex -51.3801 -78.3263 2
    endloop
  endfacet
  facet normal -0.659478 -0.751724 0
    outer loop
      vertex -51.1213 -78.6213 0
      vertex -50.8263 -78.8801 2
      vertex -51.1213 -78.6213 2
    endloop
  endfacet
  facet normal -0.659478 -0.751724 -0
    outer loop
      vertex -50.8263 -78.8801 2
      vertex -51.1213 -78.6213 0
      vertex -50.8263 -78.8801 0
    endloop
  endfacet
  facet normal -0.19494 -0.980815 0
    outer loop
      vertex -49.7765 -79.3978 0
      vertex -49.3916 -79.4743 2
      vertex -49.7765 -79.3978 2
    endloop
  endfacet
  facet normal -0.19494 -0.980815 -0
    outer loop
      vertex -49.3916 -79.4743 2
      vertex -49.7765 -79.3978 0
      vertex -49.3916 -79.4743 0
    endloop
  endfacet
  facet normal -0.442211 -0.896911 0
    outer loop
      vertex -50.5 -79.0981 0
      vertex -50.1481 -79.2716 2
      vertex -50.5 -79.0981 2
    endloop
  endfacet
  facet normal -0.442211 -0.896911 -0
    outer loop
      vertex -50.1481 -79.2716 2
      vertex -50.5 -79.0981 0
      vertex -50.1481 -79.2716 0
    endloop
  endfacet
  facet normal 0.751724 0.659478 0
    outer loop
      vertex 51.3801 78.3263 2
      vertex 51.1213 78.6213 0
      vertex 51.1213 78.6213 2
    endloop
  endfacet
  facet normal 0.751724 0.659478 0
    outer loop
      vertex 51.1213 78.6213 0
      vertex 51.3801 78.3263 2
      vertex 51.3801 78.3263 0
    endloop
  endfacet
  facet normal 0.831501 0.555523 0
    outer loop
      vertex 51.5981 78 2
      vertex 51.3801 78.3263 0
      vertex 51.3801 78.3263 2
    endloop
  endfacet
  facet normal 0.831501 0.555523 0
    outer loop
      vertex 51.3801 78.3263 0
      vertex 51.5981 78 2
      vertex 51.5981 78 0
    endloop
  endfacet
  facet normal 0.659478 0.751724 -0
    outer loop
      vertex 51.1213 78.6213 0
      vertex 50.8263 78.8801 2
      vertex 51.1213 78.6213 2
    endloop
  endfacet
  facet normal 0.659478 0.751724 0
    outer loop
      vertex 50.8263 78.8801 2
      vertex 51.1213 78.6213 0
      vertex 50.8263 78.8801 0
    endloop
  endfacet
  facet normal 0.321574 0.946885 -0
    outer loop
      vertex 50.1481 79.2716 0
      vertex 49.7765 79.3978 2
      vertex 50.1481 79.2716 2
    endloop
  endfacet
  facet normal 0.321574 0.946885 0
    outer loop
      vertex 49.7765 79.3978 2
      vertex 50.1481 79.2716 0
      vertex 49.7765 79.3978 0
    endloop
  endfacet
  facet normal 0.19494 0.980815 -0
    outer loop
      vertex 49.7765 79.3978 0
      vertex 49.3916 79.4743 2
      vertex 49.7765 79.3978 2
    endloop
  endfacet
  facet normal 0.19494 0.980815 0
    outer loop
      vertex 49.3916 79.4743 2
      vertex 49.7765 79.3978 0
      vertex 49.3916 79.4743 0
    endloop
  endfacet
  facet normal 0.442211 0.896911 -0
    outer loop
      vertex 50.5 79.0981 0
      vertex 50.1481 79.2716 2
      vertex 50.5 79.0981 2
    endloop
  endfacet
  facet normal 0.442211 0.896911 0
    outer loop
      vertex 50.1481 79.2716 2
      vertex 50.5 79.0981 0
      vertex 50.1481 79.2716 0
    endloop
  endfacet
  facet normal 0.980815 0.19494 0
    outer loop
      vertex 51.9743 76.8916 2
      vertex 51.8978 77.2765 0
      vertex 51.8978 77.2765 2
    endloop
  endfacet
  facet normal 0.980815 0.19494 0
    outer loop
      vertex 51.8978 77.2765 0
      vertex 51.9743 76.8916 2
      vertex 51.9743 76.8916 0
    endloop
  endfacet
  facet normal 0.997853 0.0654873 0
    outer loop
      vertex 52 76.5 2
      vertex 51.9743 76.8916 0
      vertex 51.9743 76.8916 2
    endloop
  endfacet
  facet normal 0.997853 0.0654873 0
    outer loop
      vertex 51.9743 76.8916 0
      vertex 52 76.5 2
      vertex 52 76.5 0
    endloop
  endfacet
  facet normal 0.946885 0.321574 0
    outer loop
      vertex 51.8978 77.2765 2
      vertex 51.7716 77.6481 0
      vertex 51.7716 77.6481 2
    endloop
  endfacet
  facet normal 0.946885 0.321574 0
    outer loop
      vertex 51.7716 77.6481 0
      vertex 51.8978 77.2765 2
      vertex 51.8978 77.2765 0
    endloop
  endfacet
  facet normal 0.896911 -0.442211 0
    outer loop
      vertex 51.5981 -78 2
      vertex 51.7716 -77.6481 0
      vertex 51.7716 -77.6481 2
    endloop
  endfacet
  facet normal 0.896911 -0.442211 0
    outer loop
      vertex 51.7716 -77.6481 0
      vertex 51.5981 -78 2
      vertex 51.5981 -78 0
    endloop
  endfacet
  facet normal 0.980815 -0.19494 0
    outer loop
      vertex 51.8978 -77.2765 2
      vertex 51.9743 -76.8916 0
      vertex 51.9743 -76.8916 2
    endloop
  endfacet
  facet normal 0.980815 -0.19494 0
    outer loop
      vertex 51.9743 -76.8916 0
      vertex 51.8978 -77.2765 2
      vertex 51.8978 -77.2765 0
    endloop
  endfacet
  facet normal 0.751724 -0.659478 0
    outer loop
      vertex 51.1213 -78.6213 2
      vertex 51.3801 -78.3263 0
      vertex 51.3801 -78.3263 2
    endloop
  endfacet
  facet normal 0.751724 -0.659478 0
    outer loop
      vertex 51.3801 -78.3263 0
      vertex 51.1213 -78.6213 2
      vertex 51.1213 -78.6213 0
    endloop
  endfacet
  facet normal 0.442211 -0.896911 0
    outer loop
      vertex 50.1481 -79.2716 0
      vertex 50.5 -79.0981 2
      vertex 50.1481 -79.2716 2
    endloop
  endfacet
  facet normal 0.442211 -0.896911 0
    outer loop
      vertex 50.5 -79.0981 2
      vertex 50.1481 -79.2716 0
      vertex 50.5 -79.0981 0
    endloop
  endfacet
  facet normal -0.659478 0.751724 0
    outer loop
      vertex -50.8263 78.8801 0
      vertex -51.1213 78.6213 2
      vertex -50.8263 78.8801 2
    endloop
  endfacet
  facet normal -0.659478 0.751724 0
    outer loop
      vertex -51.1213 78.6213 2
      vertex -50.8263 78.8801 0
      vertex -51.1213 78.6213 0
    endloop
  endfacet
  facet normal -0.555523 0.831501 0
    outer loop
      vertex -50.5 79.0981 0
      vertex -50.8263 78.8801 2
      vertex -50.5 79.0981 2
    endloop
  endfacet
  facet normal -0.555523 0.831501 0
    outer loop
      vertex -50.8263 78.8801 2
      vertex -50.5 79.0981 0
      vertex -50.8263 78.8801 0
    endloop
  endfacet
  facet normal -0.896911 0.442211 0
    outer loop
      vertex -51.7716 77.6481 0
      vertex -51.5981 78 2
      vertex -51.5981 78 0
    endloop
  endfacet
  facet normal -0.896911 0.442211 0
    outer loop
      vertex -51.5981 78 2
      vertex -51.7716 77.6481 0
      vertex -51.7716 77.6481 2
    endloop
  endfacet
  facet normal -0.980815 -0.19494 0
    outer loop
      vertex -51.8978 -77.2765 0
      vertex -51.9743 -76.8916 2
      vertex -51.9743 -76.8916 0
    endloop
  endfacet
  facet normal -0.980815 -0.19494 0
    outer loop
      vertex -51.9743 -76.8916 2
      vertex -51.8978 -77.2765 0
      vertex -51.8978 -77.2765 2
    endloop
  endfacet
  facet normal 0 0 1
    outer loop
      vertex 49 79.5 2
      vertex 52 76.5 2
      vertex 51.9743 76.8916 2
    endloop
  endfacet
  facet normal 0 0 1
    outer loop
      vertex 52 76.5 2
      vertex 4.24264 54.2574 2
      vertex 52 -76.5 2
    endloop
  endfacet
  facet normal 0 0 1
    outer loop
      vertex 49 79.5 2
      vertex 51.9743 76.8916 2
      vertex 51.8978 77.2765 2
    endloop
  endfacet
  facet normal -0 0 1
    outer loop
      vertex 3.65257 53.7399 2
      vertex 52 -76.5 2
      vertex 4.24264 54.2574 2
    endloop
  endfacet
  facet normal 0 0 1
    outer loop
      vertex 49 79.5 2
      vertex 51.8978 77.2765 2
      vertex 51.7716 77.6481 2
    endloop
  endfacet
  facet normal -0 0 1
    outer loop
      vertex 3 53.3038 2
      vertex 52 -76.5 2
      vertex 3.65257 53.7399 2
    endloop
  endfacet
  facet normal 0 0 1
    outer loop
      vertex 49 79.5 2
      vertex 51.7716 77.6481 2
      vertex 51.5981 78 2
    endloop
  endfacet
  facet normal -0 0 1
    outer loop
      vertex 2.2961 52.9567 2
      vertex 52 -76.5 2
      vertex 3 53.3038 2
    endloop
  endfacet
  facet normal 0 0 1
    outer loop
      vertex 49 79.5 2
      vertex 51.5981 78 2
      vertex 51.3801 78.3263 2
    endloop
  endfacet
  facet normal -0 0 1
    outer loop
      vertex 1.55291 52.7044 2
      vertex 52 -76.5 2
      vertex 2.2961 52.9567 2
    endloop
  endfacet
  facet normal 0 0 1
    outer loop
      vertex 49 79.5 2
      vertex 51.3801 78.3263 2
      vertex 51.1213 78.6213 2
    endloop
  endfacet
  facet normal -0 0 1
    outer loop
      vertex 0.783156 52.5513 2
      vertex 52 -76.5 2
      vertex 1.55291 52.7044 2
    endloop
  endfacet
  facet normal 0 0 1
    outer loop
      vertex 49 79.5 2
      vertex 51.1213 78.6213 2
      vertex 50.8263 78.8801 2
    endloop
  endfacet
  facet normal -0 0 1
    outer loop
      vertex 0 52.5 2
      vertex 52 -76.5 2
      vertex 0.783156 52.5513 2
    endloop
  endfacet
  facet normal 0 0 1
    outer loop
      vertex 49 79.5 2
      vertex 50.8263 78.8801 2
      vertex 50.5 79.0981 2
    endloop
  endfacet
  facet normal 0 0 1
    outer loop
      vertex -52 -76.5 2
      vertex 52 -76.5 2
      vertex 0 52.5 2
    endloop
  endfacet
  facet normal 0 0 1
    outer loop
      vertex 49 79.5 2
      vertex 50.5 79.0981 2
      vertex 50.1481 79.2716 2
    endloop
  endfacet
  facet normal 0 0 1
    outer loop
      vertex 51.9743 -76.8916 2
      vertex 49 -79.5 2
      vertex 51.8978 -77.2765 2
    endloop
  endfacet
  facet normal 0 0 1
    outer loop
      vertex 49 79.5 2
      vertex 50.1481 79.2716 2
      vertex 49.7765 79.3978 2
    endloop
  endfacet
  facet normal 0 0 1
    outer loop
      vertex 51.7716 -77.6481 2
      vertex 49 -79.5 2
      vertex 51.5981 -78 2
    endloop
  endfacet
  facet normal 0 0 1
    outer loop
      vertex 49 79.5 2
      vertex 49.7765 79.3978 2
      vertex 49.3916 79.4743 2
    endloop
  endfacet
  facet normal 0 0 1
    outer loop
      vertex 51.5981 -78 2
      vertex 49 -79.5 2
      vertex 51.3801 -78.3263 2
    endloop
  endfacet
  facet normal 0 0 1
    outer loop
      vertex 52 76.5 2
      vertex 49 79.5 2
      vertex 6 58.5 2
    endloop
  endfacet
  facet normal 0 0 1
    outer loop
      vertex 51.1213 -78.6213 2
      vertex 49 -79.5 2
      vertex 50.8263 -78.8801 2
    endloop
  endfacet
  facet normal 0 0 1
    outer loop
      vertex 52 76.5 2
      vertex 6 58.5 2
      vertex 5.94867 57.7168 2
    endloop
  endfacet
  facet normal 0 0 1
    outer loop
      vertex 49 79.5 2
      vertex 5.94867 59.2832 2
      vertex 6 58.5 2
    endloop
  endfacet
  facet normal 0 0 1
    outer loop
      vertex 49 79.5 2
      vertex 5.79555 60.0529 2
      vertex 5.94867 59.2832 2
    endloop
  endfacet
  facet normal 0 0 1
    outer loop
      vertex 49 79.5 2
      vertex 5.54328 60.7961 2
      vertex 5.79555 60.0529 2
    endloop
  endfacet
  facet normal 0 0 1
    outer loop
      vertex 49 79.5 2
      vertex 5.19615 61.5 2
      vertex 5.54328 60.7961 2
    endloop
  endfacet
  facet normal 0 0 1
    outer loop
      vertex 49 79.5 2
      vertex 4.76012 62.1526 2
      vertex 5.19615 61.5 2
    endloop
  endfacet
  facet normal 0 0 1
    outer loop
      vertex 49 79.5 2
      vertex 4.24264 62.7426 2
      vertex 4.76012 62.1526 2
    endloop
  endfacet
  facet normal 0 0 1
    outer loop
      vertex 49 79.5 2
      vertex 3.65257 63.2601 2
      vertex 4.24264 62.7426 2
    endloop
  endfacet
  facet normal 0 0 1
    outer loop
      vertex 49 79.5 2
      vertex 3 63.6962 2
      vertex 3.65257 63.2601 2
    endloop
  endfacet
  facet normal 0 0 1
    outer loop
      vertex 49 79.5 2
      vertex 2.2961 64.0433 2
      vertex 3 63.6962 2
    endloop
  endfacet
  facet normal 0 0 1
    outer loop
      vertex 49 79.5 2
      vertex 1.55291 64.2956 2
      vertex 2.2961 64.0433 2
    endloop
  endfacet
  facet normal 0 0 1
    outer loop
      vertex 49 79.5 2
      vertex 0.783156 64.4487 2
      vertex 1.55291 64.2956 2
    endloop
  endfacet
  facet normal 0 0 1
    outer loop
      vertex 49 79.5 2
      vertex 0 64.5 2
      vertex 0.783156 64.4487 2
    endloop
  endfacet
  facet normal -0 0 1
    outer loop
      vertex -49 79.5 2
      vertex 0 64.5 2
      vertex 49 79.5 2
    endloop
  endfacet
  facet normal 0 0 1
    outer loop
      vertex 0 64.5 2
      vertex -49 79.5 2
      vertex -0.783156 64.4487 2
    endloop
  endfacet
  facet normal 0 0 1
    outer loop
      vertex -5.94867 59.2832 2
      vertex -49 79.5 2
      vertex -6 58.5 2
    endloop
  endfacet
  facet normal 0 0 1
    outer loop
      vertex -5.79555 60.0529 2
      vertex -49 79.5 2
      vertex -5.94867 59.2832 2
    endloop
  endfacet
  facet normal 0 0 1
    outer loop
      vertex -5.54328 60.7961 2
      vertex -49 79.5 2
      vertex -5.79555 60.0529 2
    endloop
  endfacet
  facet normal 0 0 1
    outer loop
      vertex -5.19615 61.5 2
      vertex -49 79.5 2
      vertex -5.54328 60.7961 2
    endloop
  endfacet
  facet normal 0 0 1
    outer loop
      vertex -4.76012 62.1526 2
      vertex -49 79.5 2
      vertex -5.19615 61.5 2
    endloop
  endfacet
  facet normal 0 0 1
    outer loop
      vertex -4.24264 62.7426 2
      vertex -49 79.5 2
      vertex -4.76012 62.1526 2
    endloop
  endfacet
  facet normal 0 0 1
    outer loop
      vertex -3.65257 63.2601 2
      vertex -49 79.5 2
      vertex -4.24264 62.7426 2
    endloop
  endfacet
  facet normal 0 0 1
    outer loop
      vertex -3 63.6962 2
      vertex -49 79.5 2
      vertex -3.65257 63.2601 2
    endloop
  endfacet
  facet normal 0 0 1
    outer loop
      vertex -2.2961 64.0433 2
      vertex -49 79.5 2
      vertex -3 63.6962 2
    endloop
  endfacet
  facet normal 0 0 1
    outer loop
      vertex -1.55291 64.2956 2
      vertex -49 79.5 2
      vertex -2.2961 64.0433 2
    endloop
  endfacet
  facet normal 0 0 1
    outer loop
      vertex -0.783156 64.4487 2
      vertex -49 79.5 2
      vertex -1.55291 64.2956 2
    endloop
  endfacet
  facet normal 0 0 1
    outer loop
      vertex 52 76.5 2
      vertex 5.94867 57.7168 2
      vertex 5.79555 56.9471 2
    endloop
  endfacet
  facet normal 0 0 1
    outer loop
      vertex 52 76.5 2
      vertex 5.79555 56.9471 2
      vertex 5.54328 56.2039 2
    endloop
  endfacet
  facet normal 0 0 1
    outer loop
      vertex 52 76.5 2
      vertex 5.54328 56.2039 2
      vertex 5.19615 55.5 2
    endloop
  endfacet
  facet normal 0 0 1
    outer loop
      vertex 52 76.5 2
      vertex 5.19615 55.5 2
      vertex 4.76012 54.8474 2
    endloop
  endfacet
  facet normal 0 0 1
    outer loop
      vertex 52 76.5 2
      vertex 4.76012 54.8474 2
      vertex 4.24264 54.2574 2
    endloop
  endfacet
  facet normal 0 0 1
    outer loop
      vertex 50.5 -79.0981 2
      vertex 49 -79.5 2
      vertex 50.1481 -79.2716 2
    endloop
  endfacet
  facet normal 0 0 1
    outer loop
      vertex 49.7765 -79.3978 2
      vertex 49 -79.5 2
      vertex 49.3916 -79.4743 2
    endloop
  endfacet
  facet normal 0 0 1
    outer loop
      vertex 50.1481 -79.2716 2
      vertex 49 -79.5 2
      vertex 49.7765 -79.3978 2
    endloop
  endfacet
  facet normal 0 0 1
    outer loop
      vertex 50.8263 -78.8801 2
      vertex 49 -79.5 2
      vertex 50.5 -79.0981 2
    endloop
  endfacet
  facet normal 0 0 1
    outer loop
      vertex 51.3801 -78.3263 2
      vertex 49 -79.5 2
      vertex 51.1213 -78.6213 2
    endloop
  endfacet
  facet normal 0 0 1
    outer loop
      vertex 51.8978 -77.2765 2
      vertex 49 -79.5 2
      vertex 51.7716 -77.6481 2
    endloop
  endfacet
  facet normal 0 0 1
    outer loop
      vertex 52 -76.5 2
      vertex 49 -79.5 2
      vertex 51.9743 -76.8916 2
    endloop
  endfacet
  facet normal 0 0 1
    outer loop
      vertex -52 -76.5 2
      vertex 0 52.5 2
      vertex -0.783156 52.5513 2
    endloop
  endfacet
  facet normal 0 0 1
    outer loop
      vertex -52 -76.5 2
      vertex -0.783156 52.5513 2
      vertex -1.55291 52.7044 2
    endloop
  endfacet
  facet normal 0 0 1
    outer loop
      vertex -52 -76.5 2
      vertex -1.55291 52.7044 2
      vertex -2.2961 52.9567 2
    endloop
  endfacet
  facet normal 0 0 1
    outer loop
      vertex -52 -76.5 2
      vertex -2.2961 52.9567 2
      vertex -3 53.3038 2
    endloop
  endfacet
  facet normal 0 0 1
    outer loop
      vertex -52 -76.5 2
      vertex -3 53.3038 2
      vertex -3.65257 53.7399 2
    endloop
  endfacet
  facet normal 0 0 1
    outer loop
      vertex -52 -76.5 2
      vertex -3.65257 53.7399 2
      vertex -4.24264 54.2574 2
    endloop
  endfacet
  facet normal 0 0 1
    outer loop
      vertex -52 76.5 2
      vertex -4.24264 54.2574 2
      vertex -4.76012 54.8474 2
    endloop
  endfacet
  facet normal 0 0 1
    outer loop
      vertex -52 76.5 2
      vertex -4.76012 54.8474 2
      vertex -5.19615 55.5 2
    endloop
  endfacet
  facet normal 0 0 1
    outer loop
      vertex -52 76.5 2
      vertex -5.19615 55.5 2
      vertex -5.54328 56.2039 2
    endloop
  endfacet
  facet normal -0 0 1
    outer loop
      vertex -52 76.5 2
      vertex -6 58.5 2
      vertex -49 79.5 2
    endloop
  endfacet
  facet normal 0 0 1
    outer loop
      vertex -6 58.5 2
      vertex -52 76.5 2
      vertex -5.94867 57.7168 2
    endloop
  endfacet
  facet normal 0 0 1
    outer loop
      vertex -5.94867 57.7168 2
      vertex -52 76.5 2
      vertex -5.79555 56.9471 2
    endloop
  endfacet
  facet normal 0 0 1
    outer loop
      vertex -5.79555 56.9471 2
      vertex -52 76.5 2
      vertex -5.54328 56.2039 2
    endloop
  endfacet
  facet normal 0 0 1
    outer loop
      vertex -4.24264 54.2574 2
      vertex -52 76.5 2
      vertex -52 -76.5 2
    endloop
  endfacet
  facet normal 0 0 1
    outer loop
      vertex -52 76.5 2
      vertex -49 79.5 2
      vertex -49.3916 79.4743 2
    endloop
  endfacet
  facet normal 0 0 1
    outer loop
      vertex 52 -76.5 2
      vertex -52 -76.5 2
      vertex 49 -79.5 2
    endloop
  endfacet
  facet normal 0 0 1
    outer loop
      vertex -52 76.5 2
      vertex -49.3916 79.4743 2
      vertex -49.7765 79.3978 2
    endloop
  endfacet
  facet normal 0 0 1
    outer loop
      vertex 49 -79.5 2
      vertex -52 -76.5 2
      vertex -49 -79.5 2
    endloop
  endfacet
  facet normal 0 0 1
    outer loop
      vertex -52 76.5 2
      vertex -49.7765 79.3978 2
      vertex -50.1481 79.2716 2
    endloop
  endfacet
  facet normal 0 0 1
    outer loop
      vertex -49 -79.5 2
      vertex -52 -76.5 2
      vertex -49.3916 -79.4743 2
    endloop
  endfacet
  facet normal 0 0 1
    outer loop
      vertex -52 76.5 2
      vertex -50.1481 79.2716 2
      vertex -50.5 79.0981 2
    endloop
  endfacet
  facet normal 0 0 1
    outer loop
      vertex -49.3916 -79.4743 2
      vertex -52 -76.5 2
      vertex -49.7765 -79.3978 2
    endloop
  endfacet
  facet normal 0 0 1
    outer loop
      vertex -52 76.5 2
      vertex -50.5 79.0981 2
      vertex -50.8263 78.8801 2
    endloop
  endfacet
  facet normal 0 0 1
    outer loop
      vertex -49.7765 -79.3978 2
      vertex -52 -76.5 2
      vertex -50.1481 -79.2716 2
    endloop
  endfacet
  facet normal 0 0 1
    outer loop
      vertex -52 76.5 2
      vertex -50.8263 78.8801 2
      vertex -51.1213 78.6213 2
    endloop
  endfacet
  facet normal 0 0 1
    outer loop
      vertex -50.1481 -79.2716 2
      vertex -52 -76.5 2
      vertex -50.5 -79.0981 2
    endloop
  endfacet
  facet normal 0 0 1
    outer loop
      vertex -52 76.5 2
      vertex -51.1213 78.6213 2
      vertex -51.3801 78.3263 2
    endloop
  endfacet
  facet normal 0 0 1
    outer loop
      vertex -50.5 -79.0981 2
      vertex -52 -76.5 2
      vertex -50.8263 -78.8801 2
    endloop
  endfacet
  facet normal 0 0 1
    outer loop
      vertex -52 76.5 2
      vertex -51.3801 78.3263 2
      vertex -51.5981 78 2
    endloop
  endfacet
  facet normal 0 0 1
    outer loop
      vertex -50.8263 -78.8801 2
      vertex -52 -76.5 2
      vertex -51.1213 -78.6213 2
    endloop
  endfacet
  facet normal 0 0 1
    outer loop
      vertex -52 76.5 2
      vertex -51.5981 78 2
      vertex -51.7716 77.6481 2
    endloop
  endfacet
  facet normal 0 0 1
    outer loop
      vertex -51.1213 -78.6213 2
      vertex -52 -76.5 2
      vertex -51.3801 -78.3263 2
    endloop
  endfacet
  facet normal 0 0 1
    outer loop
      vertex -52 76.5 2
      vertex -51.7716 77.6481 2
      vertex -51.8978 77.2765 2
    endloop
  endfacet
  facet normal 0 0 1
    outer loop
      vertex -51.3801 -78.3263 2
      vertex -52 -76.5 2
      vertex -51.5981 -78 2
    endloop
  endfacet
  facet normal 0 0 1
    outer loop
      vertex -52 76.5 2
      vertex -51.8978 77.2765 2
      vertex -51.9743 76.8916 2
    endloop
  endfacet
  facet normal 0 0 1
    outer loop
      vertex -51.5981 -78 2
      vertex -52 -76.5 2
      vertex -51.7716 -77.6481 2
    endloop
  endfacet
  facet normal 0 0 1
    outer loop
      vertex -51.7716 -77.6481 2
      vertex -52 -76.5 2
      vertex -51.8978 -77.2765 2
    endloop
  endfacet
  facet normal 0 0 1
    outer loop
      vertex -51.8978 -77.2765 2
      vertex -52 -76.5 2
      vertex -51.9743 -76.8916 2
    endloop
  endfacet
  facet normal -0.896911 -0.442211 0
    outer loop
      vertex -51.5981 -78 0
      vertex -51.7716 -77.6481 2
      vertex -51.7716 -77.6481 0
    endloop
  endfacet
  facet normal -0.896911 -0.442211 0
    outer loop
      vertex -51.7716 -77.6481 2
      vertex -51.5981 -78 0
      vertex -51.5981 -78 2
    endloop
  endfacet
  facet normal -0.751724 -0.659478 0
    outer loop
      vertex -51.1213 -78.6213 0
      vertex -51.3801 -78.3263 2
      vertex -51.3801 -78.3263 0
    endloop
  endfacet
  facet normal -0.751724 -0.659478 0
    outer loop
      vertex -51.3801 -78.3263 2
      vertex -51.1213 -78.6213 0
      vertex -51.1213 -78.6213 2
    endloop
  endfacet
  facet normal -0.555523 -0.831501 0
    outer loop
      vertex -50.8263 -78.8801 0
      vertex -50.5 -79.0981 2
      vertex -50.8263 -78.8801 2
    endloop
  endfacet
  facet normal -0.555523 -0.831501 -0
    outer loop
      vertex -50.5 -79.0981 2
      vertex -50.8263 -78.8801 0
      vertex -50.5 -79.0981 0
    endloop
  endfacet
  facet normal -0.0654873 -0.997853 0
    outer loop
      vertex -49.3916 -79.4743 0
      vertex -49 -79.5 2
      vertex -49.3916 -79.4743 2
    endloop
  endfacet
  facet normal -0.0654873 -0.997853 -0
    outer loop
      vertex -49 -79.5 2
      vertex -49.3916 -79.4743 0
      vertex -49 -79.5 0
    endloop
  endfacet
  facet normal -0.321574 -0.946885 0
    outer loop
      vertex -50.1481 -79.2716 0
      vertex -49.7765 -79.3978 2
      vertex -50.1481 -79.2716 2
    endloop
  endfacet
  facet normal -0.321574 -0.946885 -0
    outer loop
      vertex -49.7765 -79.3978 2
      vertex -50.1481 -79.2716 0
      vertex -49.7765 -79.3978 0
    endloop
  endfacet
  facet normal 0.946885 -0.321574 0
    outer loop
      vertex 51.7716 -77.6481 2
      vertex 51.8978 -77.2765 0
      vertex 51.8978 -77.2765 2
    endloop
  endfacet
  facet normal 0.946885 -0.321574 0
    outer loop
      vertex 51.8978 -77.2765 0
      vertex 51.7716 -77.6481 2
      vertex 51.7716 -77.6481 0
    endloop
  endfacet
  facet normal 0.997853 -0.0654873 0
    outer loop
      vertex 51.9743 -76.8916 2
      vertex 52 -76.5 0
      vertex 52 -76.5 2
    endloop
  endfacet
  facet normal 0.997853 -0.0654873 0
    outer loop
      vertex 52 -76.5 0
      vertex 51.9743 -76.8916 2
      vertex 51.9743 -76.8916 0
    endloop
  endfacet
  facet normal 0.831501 -0.555523 0
    outer loop
      vertex 51.3801 -78.3263 2
      vertex 51.5981 -78 0
      vertex 51.5981 -78 2
    endloop
  endfacet
  facet normal 0.831501 -0.555523 0
    outer loop
      vertex 51.5981 -78 0
      vertex 51.3801 -78.3263 2
      vertex 51.3801 -78.3263 0
    endloop
  endfacet
  facet normal 0.555523 -0.831501 0
    outer loop
      vertex 50.5 -79.0981 0
      vertex 50.8263 -78.8801 2
      vertex 50.5 -79.0981 2
    endloop
  endfacet
  facet normal 0.555523 -0.831501 0
    outer loop
      vertex 50.8263 -78.8801 2
      vertex 50.5 -79.0981 0
      vertex 50.8263 -78.8801 0
    endloop
  endfacet
  facet normal 0.659478 -0.751724 0
    outer loop
      vertex 50.8263 -78.8801 0
      vertex 51.1213 -78.6213 2
      vertex 50.8263 -78.8801 2
    endloop
  endfacet
  facet normal 0.659478 -0.751724 0
    outer loop
      vertex 51.1213 -78.6213 2
      vertex 50.8263 -78.8801 0
      vertex 51.1213 -78.6213 0
    endloop
  endfacet
  facet normal -0.555629 -0.83143 0
    outer loop
      vertex 3 63.6962 0
      vertex 3.65257 63.2601 2
      vertex 3 63.6962 2
    endloop
  endfacet
  facet normal -0.555629 -0.83143 -0
    outer loop
      vertex 3.65257 63.2601 2
      vertex 3 63.6962 0
      vertex 3.65257 63.2601 0
    endloop
  endfacet
  facet normal -0.980781 0.195111 0
    outer loop
      vertex 5.79555 56.9471 0
      vertex 5.94867 57.7168 2
      vertex 5.94867 57.7168 0
    endloop
  endfacet
  facet normal -0.980781 0.195111 0
    outer loop
      vertex 5.94867 57.7168 2
      vertex 5.79555 56.9471 0
      vertex 5.79555 56.9471 2
    endloop
  endfacet
  facet normal 0.195074 0.980789 -0
    outer loop
      vertex -0.783156 52.5513 0
      vertex -1.55291 52.7044 2
      vertex -0.783156 52.5513 2
    endloop
  endfacet
  facet normal 0.195074 0.980789 0
    outer loop
      vertex -1.55291 52.7044 2
      vertex -0.783156 52.5513 0
      vertex -1.55291 52.7044 0
    endloop
  endfacet
  facet normal 0.442263 -0.896885 0
    outer loop
      vertex -3 63.6962 0
      vertex -2.2961 64.0433 2
      vertex -3 63.6962 2
    endloop
  endfacet
  facet normal 0.442263 -0.896885 0
    outer loop
      vertex -2.2961 64.0433 2
      vertex -3 63.6962 0
      vertex -2.2961 64.0433 0
    endloop
  endfacet
  facet normal 0.946935 -0.321425 0
    outer loop
      vertex -5.79555 60.0529 2
      vertex -5.54328 60.7961 0
      vertex -5.54328 60.7961 2
    endloop
  endfacet
  facet normal 0.946935 -0.321425 0
    outer loop
      vertex -5.54328 60.7961 0
      vertex -5.79555 60.0529 2
      vertex -5.79555 60.0529 0
    endloop
  endfacet
  facet normal 0.321463 0.946922 -0
    outer loop
      vertex -1.55291 52.7044 0
      vertex -2.2961 52.9567 2
      vertex -1.55291 52.7044 2
    endloop
  endfacet
  facet normal 0.321463 0.946922 0
    outer loop
      vertex -2.2961 52.9567 2
      vertex -1.55291 52.7044 0
      vertex -2.2961 52.9567 0
    endloop
  endfacet
  facet normal -0.89687 -0.442294 0
    outer loop
      vertex 5.54328 60.7961 0
      vertex 5.19615 61.5 2
      vertex 5.19615 61.5 0
    endloop
  endfacet
  facet normal -0.89687 -0.442294 0
    outer loop
      vertex 5.19615 61.5 2
      vertex 5.54328 60.7961 0
      vertex 5.54328 60.7961 2
    endloop
  endfacet
  facet normal -0.831483 -0.55555 0
    outer loop
      vertex 5.19615 61.5 0
      vertex 4.76012 62.1526 2
      vertex 4.76012 62.1526 0
    endloop
  endfacet
  facet normal -0.831483 -0.55555 0
    outer loop
      vertex 4.76012 62.1526 2
      vertex 5.19615 61.5 0
      vertex 5.19615 61.5 2
    endloop
  endfacet
  facet normal -0.659362 -0.751826 0
    outer loop
      vertex 3.65257 63.2601 0
      vertex 4.24264 62.7426 2
      vertex 3.65257 63.2601 2
    endloop
  endfacet
  facet normal -0.659362 -0.751826 -0
    outer loop
      vertex 4.24264 62.7426 2
      vertex 3.65257 63.2601 0
      vertex 4.24264 62.7426 0
    endloop
  endfacet
  facet normal -0.321463 -0.946922 0
    outer loop
      vertex 1.55291 64.2956 0
      vertex 2.2961 64.0433 2
      vertex 1.55291 64.2956 2
    endloop
  endfacet
  facet normal -0.321463 -0.946922 -0
    outer loop
      vertex 2.2961 64.0433 2
      vertex 1.55291 64.2956 0
      vertex 2.2961 64.0433 0
    endloop
  endfacet
  facet normal 0.0653641 -0.997861 0
    outer loop
      vertex -0.783156 64.4487 0
      vertex 0 64.5 2
      vertex -0.783156 64.4487 2
    endloop
  endfacet
  facet normal 0.0653641 -0.997861 0
    outer loop
      vertex 0 64.5 2
      vertex -0.783156 64.4487 0
      vertex 0 64.5 0
    endloop
  endfacet
  facet normal 0.997859 0.0653985 0
    outer loop
      vertex -5.94867 57.7168 2
      vertex -6 58.5 0
      vertex -6 58.5 2
    endloop
  endfacet
  facet normal 0.997859 0.0653985 0
    outer loop
      vertex -6 58.5 0
      vertex -5.94867 57.7168 2
      vertex -5.94867 57.7168 0
    endloop
  endfacet
  facet normal 0.831483 -0.55555 0
    outer loop
      vertex -5.19615 61.5 2
      vertex -4.76012 62.1526 0
      vertex -4.76012 62.1526 2
    endloop
  endfacet
  facet normal 0.831483 -0.55555 0
    outer loop
      vertex -4.76012 62.1526 0
      vertex -5.19615 61.5 2
      vertex -5.19615 61.5 0
    endloop
  endfacet
  facet normal 0.321463 -0.946922 0
    outer loop
      vertex -2.2961 64.0433 0
      vertex -1.55291 64.2956 2
      vertex -2.2961 64.0433 2
    endloop
  endfacet
  facet normal 0.321463 -0.946922 0
    outer loop
      vertex -1.55291 64.2956 2
      vertex -2.2961 64.0433 0
      vertex -1.55291 64.2956 0
    endloop
  endfacet
  facet normal 0.751799 -0.659392 0
    outer loop
      vertex -4.76012 62.1526 2
      vertex -4.24264 62.7426 0
      vertex -4.24264 62.7426 2
    endloop
  endfacet
  facet normal 0.751799 -0.659392 0
    outer loop
      vertex -4.24264 62.7426 0
      vertex -4.76012 62.1526 2
      vertex -4.76012 62.1526 0
    endloop
  endfacet
  facet normal -0.997859 -0.0653985 0
    outer loop
      vertex 6 58.5 0
      vertex 5.94867 59.2832 2
      vertex 5.94867 59.2832 0
    endloop
  endfacet
  facet normal -0.997859 -0.0653985 0
    outer loop
      vertex 5.94867 59.2832 2
      vertex 6 58.5 0
      vertex 6 58.5 2
    endloop
  endfacet
  facet normal -0.831483 0.55555 0
    outer loop
      vertex 4.76012 54.8474 0
      vertex 5.19615 55.5 2
      vertex 5.19615 55.5 0
    endloop
  endfacet
  facet normal -0.831483 0.55555 0
    outer loop
      vertex 5.19615 55.5 2
      vertex 4.76012 54.8474 0
      vertex 4.76012 54.8474 2
    endloop
  endfacet
  facet normal -0.946935 0.321425 0
    outer loop
      vertex 5.54328 56.2039 0
      vertex 5.79555 56.9471 2
      vertex 5.79555 56.9471 0
    endloop
  endfacet
  facet normal -0.946935 0.321425 0
    outer loop
      vertex 5.79555 56.9471 2
      vertex 5.54328 56.2039 0
      vertex 5.54328 56.2039 2
    endloop
  endfacet
  facet normal -0.442263 0.896885 0
    outer loop
      vertex 3 53.3038 0
      vertex 2.2961 52.9567 2
      vertex 3 53.3038 2
    endloop
  endfacet
  facet normal -0.442263 0.896885 0
    outer loop
      vertex 2.2961 52.9567 2
      vertex 3 53.3038 0
      vertex 2.2961 52.9567 0
    endloop
  endfacet
  facet normal 0.0653641 0.997861 -0
    outer loop
      vertex 0 52.5 0
      vertex -0.783156 52.5513 2
      vertex 0 52.5 2
    endloop
  endfacet
  facet normal 0.0653641 0.997861 0
    outer loop
      vertex -0.783156 52.5513 2
      vertex 0 52.5 0
      vertex -0.783156 52.5513 0
    endloop
  endfacet
  facet normal 0.555629 0.83143 -0
    outer loop
      vertex -3 53.3038 0
      vertex -3.65257 53.7399 2
      vertex -3 53.3038 2
    endloop
  endfacet
  facet normal 0.555629 0.83143 0
    outer loop
      vertex -3.65257 53.7399 2
      vertex -3 53.3038 0
      vertex -3.65257 53.7399 0
    endloop
  endfacet
  facet normal -0.980781 -0.195111 0
    outer loop
      vertex 5.94867 59.2832 0
      vertex 5.79555 60.0529 2
      vertex 5.79555 60.0529 0
    endloop
  endfacet
  facet normal -0.980781 -0.195111 0
    outer loop
      vertex 5.79555 60.0529 2
      vertex 5.94867 59.2832 0
      vertex 5.94867 59.2832 2
    endloop
  endfacet
  facet normal -0.946935 -0.321425 0
    outer loop
      vertex 5.79555 60.0529 0
      vertex 5.54328 60.7961 2
      vertex 5.54328 60.7961 0
    endloop
  endfacet
  facet normal -0.946935 -0.321425 0
    outer loop
      vertex 5.54328 60.7961 2
      vertex 5.79555 60.0529 0
      vertex 5.79555 60.0529 2
    endloop
  endfacet
  facet normal -0.751799 -0.659392 0
    outer loop
      vertex 4.76012 62.1526 0
      vertex 4.24264 62.7426 2
      vertex 4.24264 62.7426 0
    endloop
  endfacet
  facet normal -0.751799 -0.659392 0
    outer loop
      vertex 4.24264 62.7426 2
      vertex 4.76012 62.1526 0
      vertex 4.76012 62.1526 2
    endloop
  endfacet
  facet normal -0.442263 -0.896885 0
    outer loop
      vertex 2.2961 64.0433 0
      vertex 3 63.6962 2
      vertex 2.2961 64.0433 2
    endloop
  endfacet
  facet normal -0.442263 -0.896885 -0
    outer loop
      vertex 3 63.6962 2
      vertex 2.2961 64.0433 0
      vertex 3 63.6962 0
    endloop
  endfacet
  facet normal -0.195074 -0.980789 0
    outer loop
      vertex 0.783156 64.4487 0
      vertex 1.55291 64.2956 2
      vertex 0.783156 64.4487 2
    endloop
  endfacet
  facet normal -0.195074 -0.980789 -0
    outer loop
      vertex 1.55291 64.2956 2
      vertex 0.783156 64.4487 0
      vertex 1.55291 64.2956 0
    endloop
  endfacet
  facet normal -0.0653641 -0.997861 0
    outer loop
      vertex 0 64.5 0
      vertex 0.783156 64.4487 2
      vertex 0 64.5 2
    endloop
  endfacet
  facet normal -0.0653641 -0.997861 -0
    outer loop
      vertex 0.783156 64.4487 2
      vertex 0 64.5 0
      vertex 0.783156 64.4487 0
    endloop
  endfacet
  facet normal 0.980781 -0.195111 0
    outer loop
      vertex -5.94867 59.2832 2
      vertex -5.79555 60.0529 0
      vertex -5.79555 60.0529 2
    endloop
  endfacet
  facet normal 0.980781 -0.195111 0
    outer loop
      vertex -5.79555 60.0529 0
      vertex -5.94867 59.2832 2
      vertex -5.94867 59.2832 0
    endloop
  endfacet
  facet normal 0.997859 -0.0653985 0
    outer loop
      vertex -6 58.5 2
      vertex -5.94867 59.2832 0
      vertex -5.94867 59.2832 2
    endloop
  endfacet
  facet normal 0.997859 -0.0653985 0
    outer loop
      vertex -5.94867 59.2832 0
      vertex -6 58.5 2
      vertex -6 58.5 0
    endloop
  endfacet
  facet normal 0.89687 -0.442294 0
    outer loop
      vertex -5.54328 60.7961 2
      vertex -5.19615 61.5 0
      vertex -5.19615 61.5 2
    endloop
  endfacet
  facet normal 0.89687 -0.442294 0
    outer loop
      vertex -5.19615 61.5 0
      vertex -5.54328 60.7961 2
      vertex -5.54328 60.7961 0
    endloop
  endfacet
  facet normal 0.195074 -0.980789 0
    outer loop
      vertex -1.55291 64.2956 0
      vertex -0.783156 64.4487 2
      vertex -1.55291 64.2956 2
    endloop
  endfacet
  facet normal 0.195074 -0.980789 0
    outer loop
      vertex -0.783156 64.4487 2
      vertex -1.55291 64.2956 0
      vertex -0.783156 64.4487 0
    endloop
  endfacet
  facet normal 0.659362 -0.751826 0
    outer loop
      vertex -4.24264 62.7426 0
      vertex -3.65257 63.2601 2
      vertex -4.24264 62.7426 2
    endloop
  endfacet
  facet normal 0.659362 -0.751826 0
    outer loop
      vertex -3.65257 63.2601 2
      vertex -4.24264 62.7426 0
      vertex -3.65257 63.2601 0
    endloop
  endfacet
  facet normal 0.555629 -0.83143 0
    outer loop
      vertex -3.65257 63.2601 0
      vertex -3 63.6962 2
      vertex -3.65257 63.2601 2
    endloop
  endfacet
  facet normal 0.555629 -0.83143 0
    outer loop
      vertex -3 63.6962 2
      vertex -3.65257 63.2601 0
      vertex -3 63.6962 0
    endloop
  endfacet
  facet normal -0.195074 0.980789 0
    outer loop
      vertex 1.55291 52.7044 0
      vertex 0.783156 52.5513 2
      vertex 1.55291 52.7044 2
    endloop
  endfacet
  facet normal -0.195074 0.980789 0
    outer loop
      vertex 0.783156 52.5513 2
      vertex 1.55291 52.7044 0
      vertex 0.783156 52.5513 0
    endloop
  endfacet
  facet normal -0.751799 0.659392 0
    outer loop
      vertex 4.24264 54.2574 0
      vertex 4.76012 54.8474 2
      vertex 4.76012 54.8474 0
    endloop
  endfacet
  facet normal -0.751799 0.659392 0
    outer loop
      vertex 4.76012 54.8474 2
      vertex 4.24264 54.2574 0
      vertex 4.24264 54.2574 2
    endloop
  endfacet
  facet normal -0.555629 0.83143 0
    outer loop
      vertex 3.65257 53.7399 0
      vertex 3 53.3038 2
      vertex 3.65257 53.7399 2
    endloop
  endfacet
  facet normal -0.555629 0.83143 0
    outer loop
      vertex 3 53.3038 2
      vertex 3.65257 53.7399 0
      vertex 3 53.3038 0
    endloop
  endfacet
  facet normal 0.442263 0.896885 -0
    outer loop
      vertex -2.2961 52.9567 0
      vertex -3 53.3038 2
      vertex -2.2961 52.9567 2
    endloop
  endfacet
  facet normal 0.442263 0.896885 0
    outer loop
      vertex -3 53.3038 2
      vertex -2.2961 52.9567 0
      vertex -3 53.3038 0
    endloop
  endfacet
  facet normal 0.89687 0.442294 0
    outer loop
      vertex -5.19615 55.5 2
      vertex -5.54328 56.2039 0
      vertex -5.54328 56.2039 2
    endloop
  endfacet
  facet normal 0.89687 0.442294 0
    outer loop
      vertex -5.54328 56.2039 0
      vertex -5.19615 55.5 2
      vertex -5.19615 55.5 0
    endloop
  endfacet
  facet normal 0.980781 0.195111 0
    outer loop
      vertex -5.79555 56.9471 2
      vertex -5.94867 57.7168 0
      vertex -5.94867 57.7168 2
    endloop
  endfacet
  facet normal 0.980781 0.195111 0
    outer loop
      vertex -5.94867 57.7168 0
      vertex -5.79555 56.9471 2
      vertex -5.79555 56.9471 0
    endloop
  endfacet
  facet normal 0.659362 0.751826 -0
    outer loop
      vertex -3.65257 53.7399 0
      vertex -4.24264 54.2574 2
      vertex -3.65257 53.7399 2
    endloop
  endfacet
  facet normal 0.659362 0.751826 0
    outer loop
      vertex -4.24264 54.2574 2
      vertex -3.65257 53.7399 0
      vertex -4.24264 54.2574 0
    endloop
  endfacet
  facet normal 0.831483 0.55555 0
    outer loop
      vertex -4.76012 54.8474 2
      vertex -5.19615 55.5 0
      vertex -5.19615 55.5 2
    endloop
  endfacet
  facet normal 0.831483 0.55555 0
    outer loop
      vertex -5.19615 55.5 0
      vertex -4.76012 54.8474 2
      vertex -4.76012 54.8474 0
    endloop
  endfacet
  facet normal -0.997859 0.0653985 0
    outer loop
      vertex 5.94867 57.7168 0
      vertex 6 58.5 2
      vertex 6 58.5 0
    endloop
  endfacet
  facet normal -0.997859 0.0653985 0
    outer loop
      vertex 6 58.5 2
      vertex 5.94867 57.7168 0
      vertex 5.94867 57.7168 2
    endloop
  endfacet
  facet normal -0.89687 0.442294 0
    outer loop
      vertex 5.19615 55.5 0
      vertex 5.54328 56.2039 2
      vertex 5.54328 56.2039 0
    endloop
  endfacet
  facet normal -0.89687 0.442294 0
    outer loop
      vertex 5.54328 56.2039 2
      vertex 5.19615 55.5 0
      vertex 5.19615 55.5 2
    endloop
  endfacet
  facet normal -0.321463 0.946922 0
    outer loop
      vertex 2.2961 52.9567 0
      vertex 1.55291 52.7044 2
      vertex 2.2961 52.9567 2
    endloop
  endfacet
  facet normal -0.321463 0.946922 0
    outer loop
      vertex 1.55291 52.7044 2
      vertex 2.2961 52.9567 0
      vertex 1.55291 52.7044 0
    endloop
  endfacet
  facet normal -0.659362 0.751826 0
    outer loop
      vertex 4.24264 54.2574 0
      vertex 3.65257 53.7399 2
      vertex 4.24264 54.2574 2
    endloop
  endfacet
  facet normal -0.659362 0.751826 0
    outer loop
      vertex 3.65257 53.7399 2
      vertex 4.24264 54.2574 0
      vertex 3.65257 53.7399 0
    endloop
  endfacet
  facet normal -0.0653641 0.997861 0
    outer loop
      vertex 0.783156 52.5513 0
      vertex 0 52.5 2
      vertex 0.783156 52.5513 2
    endloop
  endfacet
  facet normal -0.0653641 0.997861 0
    outer loop
      vertex 0 52.5 2
      vertex 0.783156 52.5513 0
      vertex 0 52.5 0
    endloop
  endfacet
  facet normal 0.946935 0.321425 0
    outer loop
      vertex -5.54328 56.2039 2
      vertex -5.79555 56.9471 0
      vertex -5.79555 56.9471 2
    endloop
  endfacet
  facet normal 0.946935 0.321425 0
    outer loop
      vertex -5.79555 56.9471 0
      vertex -5.54328 56.2039 2
      vertex -5.54328 56.2039 0
    endloop
  endfacet
  facet normal 0.751799 0.659392 0
    outer loop
      vertex -4.24264 54.2574 2
      vertex -4.76012 54.8474 0
      vertex -4.76012 54.8474 2
    endloop
  endfacet
  facet normal 0.751799 0.659392 0
    outer loop
      vertex -4.76012 54.8474 0
      vertex -4.24264 54.2574 2
      vertex -4.24264 54.2574 0
    endloop
  endfacet
  facet normal 1 -0 0
    outer loop
      vertex -4 -79.5 1
      vertex -4 -77.5 0
      vertex -4 -77.5 1
    endloop
  endfacet
  facet normal 1 0 0
    outer loop
      vertex -4 -77.5 0
      vertex -4 -79.5 1
      vertex -4 -79.5 0
    endloop
  endfacet
  facet normal 0 0 -1
    outer loop
      vertex -4 -79.5 1
      vertex 4 -77.5 1
      vertex 4 -79.5 1
    endloop
  endfacet
  facet normal -0 0 -1
    outer loop
      vertex 4 -77.5 1
      vertex -4 -79.5 1
      vertex -4 -77.5 1
    endloop
  endfacet
  facet normal -1 0 0
    outer loop
      vertex 4 -79.5 0
      vertex 4 -77.5 1
      vertex 4 -77.5 0
    endloop
  endfacet
  facet normal -1 -0 0
    outer loop
      vertex 4 -77.5 1
      vertex 4 -79.5 0
      vertex 4 -79.5 1
    endloop
  endfacet
  facet normal 0 -1 0
    outer loop
      vertex -4 -77.5 0
      vertex 4 -77.5 1
      vertex -4 -77.5 1
    endloop
  endfacet
  facet normal 0 -1 -0
    outer loop
      vertex 4 -77.5 1
      vertex -4 -77.5 0
      vertex 4 -77.5 0
    endloop
  endfacet
endsolid OpenSCAD_Model
