solid OpenSCAD_Model
  facet normal -1 0 0
    outer loop
      vertex -65 20 -4
      vertex -65 42 -2
      vertex -65 42 -4
    endloop
  endfacet
  facet normal -1 -0 0
    outer loop
      vertex -65 42 -2
      vertex -65 20 -4
      vertex -65 20 -2
    endloop
  endfacet
  facet normal -1 0 0
    outer loop
      vertex -65 103 -4
      vertex -65 128.85 -2
      vertex -65 128.85 -4
    endloop
  endfacet
  facet normal -1 -0 0
    outer loop
      vertex -65 128.85 -2
      vertex -65 103 -4
      vertex -65 103 -2
    endloop
  endfacet
  facet normal -1 0 0
    outer loop
      vertex -65 48 -4
      vertex -65 97 -2
      vertex -65 97 -4
    endloop
  endfacet
  facet normal -1 -0 0
    outer loop
      vertex -65 97 -2
      vertex -65 48 -4
      vertex -65 48 -2
    endloop
  endfacet
  facet normal 1 -0 0
    outer loop
      vertex -59 103 -2
      vertex -59 128.85 -4
      vertex -59 128.85 -2
    endloop
  endfacet
  facet normal 1 0 0
    outer loop
      vertex -59 128.85 -4
      vertex -59 103 -2
      vertex -59 103 -4
    endloop
  endfacet
  facet normal 1 -0 0
    outer loop
      vertex -59 20 -2
      vertex -59 42 -4
      vertex -59 42 -2
    endloop
  endfacet
  facet normal 1 0 0
    outer loop
      vertex -59 42 -4
      vertex -59 20 -2
      vertex -59 20 -4
    endloop
  endfacet
  facet normal 1 -0 0
    outer loop
      vertex -59 48 -2
      vertex -59 97 -4
      vertex -59 97 -2
    endloop
  endfacet
  facet normal 1 0 0
    outer loop
      vertex -59 97 -4
      vertex -59 48 -2
      vertex -59 48 -4
    endloop
  endfacet
  facet normal 0 1 -0
    outer loop
      vertex -59 128.85 -4
      vertex -65 128.85 -2
      vertex -59 128.85 -2
    endloop
  endfacet
  facet normal 0 1 0
    outer loop
      vertex -65 128.85 -2
      vertex -59 128.85 -4
      vertex -65 128.85 -4
    endloop
  endfacet
  facet normal 0 0 -1
    outer loop
      vertex -94.6 97 -4
      vertex -65 103 -4
      vertex -65 97 -4
    endloop
  endfacet
  facet normal -0 0 -1
    outer loop
      vertex -65 103 -4
      vertex -94.6 97 -4
      vertex -94.6 103 -4
    endloop
  endfacet
  facet normal 0 0 -1
    outer loop
      vertex -94.6 42 -4
      vertex -65 48 -4
      vertex -65 42 -4
    endloop
  endfacet
  facet normal -0 0 -1
    outer loop
      vertex -65 48 -4
      vertex -94.6 42 -4
      vertex -94.6 48 -4
    endloop
  endfacet
  facet normal 0 0 -1
    outer loop
      vertex -65 42 -4
      vertex -59 42 -4
      vertex -59 20 -4
    endloop
  endfacet
  facet normal 0 0 -1
    outer loop
      vertex -59 42 -4
      vertex -65 42 -4
      vertex -59 48 -4
    endloop
  endfacet
  facet normal 0 0 -1
    outer loop
      vertex -59 48 -4
      vertex -65 48 -4
      vertex -59 97 -4
    endloop
  endfacet
  facet normal 0 0 -1
    outer loop
      vertex -65 97 -4
      vertex -59 97 -4
      vertex -65 48 -4
    endloop
  endfacet
  facet normal 0 0 -1
    outer loop
      vertex -65 42 -4
      vertex -59 20 -4
      vertex -65 20 -4
    endloop
  endfacet
  facet normal -0 0 -1
    outer loop
      vertex -59 48 -4
      vertex -65 42 -4
      vertex -65 48 -4
    endloop
  endfacet
  facet normal 0 0 -1
    outer loop
      vertex -59 97 -4
      vertex -65 97 -4
      vertex -59 103 -4
    endloop
  endfacet
  facet normal 0 0 -1
    outer loop
      vertex -65 103 -4
      vertex -59 103 -4
      vertex -65 97 -4
    endloop
  endfacet
  facet normal 0 0 -1
    outer loop
      vertex -59 103 -4
      vertex -65 103 -4
      vertex -59 128.85 -4
    endloop
  endfacet
  facet normal -0 0 -1
    outer loop
      vertex -59 128.85 -4
      vertex -65 103 -4
      vertex -65 128.85 -4
    endloop
  endfacet
  facet normal 0 0 -1
    outer loop
      vertex -59 97 -4
      vertex 59 103 -4
      vertex 59 97 -4
    endloop
  endfacet
  facet normal -0 0 -1
    outer loop
      vertex 59 103 -4
      vertex -59 97 -4
      vertex -59 103 -4
    endloop
  endfacet
  facet normal 0 0 -1
    outer loop
      vertex -59 42 -4
      vertex 59 48 -4
      vertex 59 42 -4
    endloop
  endfacet
  facet normal -0 0 -1
    outer loop
      vertex 59 48 -4
      vertex -59 42 -4
      vertex -59 48 -4
    endloop
  endfacet
  facet normal 0 0 -1
    outer loop
      vertex 59 42 -4
      vertex 65 42 -4
      vertex 65 20 -4
    endloop
  endfacet
  facet normal 0 0 -1
    outer loop
      vertex 65 42 -4
      vertex 59 42 -4
      vertex 65 48 -4
    endloop
  endfacet
  facet normal 0 0 -1
    outer loop
      vertex 65 48 -4
      vertex 59 48 -4
      vertex 65 97 -4
    endloop
  endfacet
  facet normal 0 0 -1
    outer loop
      vertex 59 97 -4
      vertex 65 97 -4
      vertex 59 48 -4
    endloop
  endfacet
  facet normal 0 0 -1
    outer loop
      vertex 59 42 -4
      vertex 65 20 -4
      vertex 59 20 -4
    endloop
  endfacet
  facet normal -0 0 -1
    outer loop
      vertex 65 48 -4
      vertex 59 42 -4
      vertex 59 48 -4
    endloop
  endfacet
  facet normal 0 0 -1
    outer loop
      vertex 65 97 -4
      vertex 59 97 -4
      vertex 65 103 -4
    endloop
  endfacet
  facet normal 0 0 -1
    outer loop
      vertex 59 103 -4
      vertex 65 103 -4
      vertex 59 97 -4
    endloop
  endfacet
  facet normal 0 0 -1
    outer loop
      vertex 65 103 -4
      vertex 59 103 -4
      vertex 65 128.85 -4
    endloop
  endfacet
  facet normal -0 0 -1
    outer loop
      vertex 65 128.85 -4
      vertex 59 103 -4
      vertex 59 128.85 -4
    endloop
  endfacet
  facet normal 0 0 -1
    outer loop
      vertex 65 42 -4
      vertex 94.6 48 -4
      vertex 94.6 42 -4
    endloop
  endfacet
  facet normal -0 0 -1
    outer loop
      vertex 94.6 48 -4
      vertex 65 42 -4
      vertex 65 48 -4
    endloop
  endfacet
  facet normal 0 0 -1
    outer loop
      vertex 65 97 -4
      vertex 94.6 103 -4
      vertex 94.6 97 -4
    endloop
  endfacet
  facet normal -0 0 -1
    outer loop
      vertex 94.6 103 -4
      vertex 65 97 -4
      vertex 65 103 -4
    endloop
  endfacet
  facet normal 0 -1 0
    outer loop
      vertex -65 20 -4
      vertex -59 20 -2
      vertex -65 20 -2
    endloop
  endfacet
  facet normal 0 -1 -0
    outer loop
      vertex -59 20 -2
      vertex -65 20 -4
      vertex -59 20 -4
    endloop
  endfacet
  facet normal -1 0 0
    outer loop
      vertex 59 20 -4
      vertex 59 42 -2
      vertex 59 42 -4
    endloop
  endfacet
  facet normal -1 -0 0
    outer loop
      vertex 59 42 -2
      vertex 59 20 -4
      vertex 59 20 -2
    endloop
  endfacet
  facet normal -1 0 0
    outer loop
      vertex 59 103 -4
      vertex 59 128.85 -2
      vertex 59 128.85 -4
    endloop
  endfacet
  facet normal -1 -0 0
    outer loop
      vertex 59 128.85 -2
      vertex 59 103 -4
      vertex 59 103 -2
    endloop
  endfacet
  facet normal -1 0 0
    outer loop
      vertex 59 48 -4
      vertex 59 97 -2
      vertex 59 97 -4
    endloop
  endfacet
  facet normal -1 -0 0
    outer loop
      vertex 59 97 -2
      vertex 59 48 -4
      vertex 59 48 -2
    endloop
  endfacet
  facet normal 1 -0 0
    outer loop
      vertex 65 103 -2
      vertex 65 128.85 -4
      vertex 65 128.85 -2
    endloop
  endfacet
  facet normal 1 0 0
    outer loop
      vertex 65 128.85 -4
      vertex 65 103 -2
      vertex 65 103 -4
    endloop
  endfacet
  facet normal 1 -0 0
    outer loop
      vertex 65 20 -2
      vertex 65 42 -4
      vertex 65 42 -2
    endloop
  endfacet
  facet normal 1 0 0
    outer loop
      vertex 65 42 -4
      vertex 65 20 -2
      vertex 65 20 -4
    endloop
  endfacet
  facet normal 1 -0 0
    outer loop
      vertex 65 48 -2
      vertex 65 97 -4
      vertex 65 97 -2
    endloop
  endfacet
  facet normal 1 0 0
    outer loop
      vertex 65 97 -4
      vertex 65 48 -2
      vertex 65 48 -4
    endloop
  endfacet
  facet normal 0 1 -0
    outer loop
      vertex 65 128.85 -4
      vertex 59 128.85 -2
      vertex 65 128.85 -2
    endloop
  endfacet
  facet normal 0 1 0
    outer loop
      vertex 59 128.85 -2
      vertex 65 128.85 -4
      vertex 59 128.85 -4
    endloop
  endfacet
  facet normal 0 -1 0
    outer loop
      vertex 59 20 -4
      vertex 65 20 -2
      vertex 59 20 -2
    endloop
  endfacet
  facet normal 0 -1 -0
    outer loop
      vertex 65 20 -2
      vertex 59 20 -4
      vertex 65 20 -4
    endloop
  endfacet
  facet normal -1 0 0
    outer loop
      vertex -94.6 42 -4
      vertex -94.6 48 -2
      vertex -94.6 48 -4
    endloop
  endfacet
  facet normal -1 -0 0
    outer loop
      vertex -94.6 48 -2
      vertex -94.6 42 -4
      vertex -94.6 42 -2
    endloop
  endfacet
  facet normal 1 -0 0
    outer loop
      vertex 94.6 42 -2
      vertex 94.6 48 -4
      vertex 94.6 48 -2
    endloop
  endfacet
  facet normal 1 0 0
    outer loop
      vertex 94.6 48 -4
      vertex 94.6 42 -2
      vertex 94.6 42 -4
    endloop
  endfacet
  facet normal 0 -1 0
    outer loop
      vertex -94.6 42 -4
      vertex -65 42 -2
      vertex -94.6 42 -2
    endloop
  endfacet
  facet normal 0 -1 -0
    outer loop
      vertex -65 42 -2
      vertex -94.6 42 -4
      vertex -65 42 -4
    endloop
  endfacet
  facet normal 0 -1 0
    outer loop
      vertex 65 42 -4
      vertex 94.6 42 -2
      vertex 65 42 -2
    endloop
  endfacet
  facet normal 0 -1 -0
    outer loop
      vertex 94.6 42 -2
      vertex 65 42 -4
      vertex 94.6 42 -4
    endloop
  endfacet
  facet normal 0 -1 0
    outer loop
      vertex -59 42 -4
      vertex 59 42 -2
      vertex -59 42 -2
    endloop
  endfacet
  facet normal 0 -1 -0
    outer loop
      vertex 59 42 -2
      vertex -59 42 -4
      vertex 59 42 -4
    endloop
  endfacet
  facet normal 0 1 -0
    outer loop
      vertex 94.6 48 -4
      vertex 65 48 -2
      vertex 94.6 48 -2
    endloop
  endfacet
  facet normal 0 1 0
    outer loop
      vertex 65 48 -2
      vertex 94.6 48 -4
      vertex 65 48 -4
    endloop
  endfacet
  facet normal 0 1 -0
    outer loop
      vertex -65 48 -4
      vertex -94.6 48 -2
      vertex -65 48 -2
    endloop
  endfacet
  facet normal 0 1 0
    outer loop
      vertex -94.6 48 -2
      vertex -65 48 -4
      vertex -94.6 48 -4
    endloop
  endfacet
  facet normal 0 1 -0
    outer loop
      vertex 59 48 -4
      vertex -59 48 -2
      vertex 59 48 -2
    endloop
  endfacet
  facet normal 0 1 0
    outer loop
      vertex -59 48 -2
      vertex 59 48 -4
      vertex -59 48 -4
    endloop
  endfacet
  facet normal -1 0 0
    outer loop
      vertex -94.6 97 -4
      vertex -94.6 103 -2
      vertex -94.6 103 -4
    endloop
  endfacet
  facet normal -1 -0 0
    outer loop
      vertex -94.6 103 -2
      vertex -94.6 97 -4
      vertex -94.6 97 -2
    endloop
  endfacet
  facet normal 1 -0 0
    outer loop
      vertex 94.6 97 -2
      vertex 94.6 103 -4
      vertex 94.6 103 -2
    endloop
  endfacet
  facet normal 1 0 0
    outer loop
      vertex 94.6 103 -4
      vertex 94.6 97 -2
      vertex 94.6 97 -4
    endloop
  endfacet
  facet normal 0 1 -0
    outer loop
      vertex 94.6 103 -4
      vertex 65 103 -2
      vertex 94.6 103 -2
    endloop
  endfacet
  facet normal 0 1 0
    outer loop
      vertex 65 103 -2
      vertex 94.6 103 -4
      vertex 65 103 -4
    endloop
  endfacet
  facet normal 0 1 -0
    outer loop
      vertex -65 103 -4
      vertex -94.6 103 -2
      vertex -65 103 -2
    endloop
  endfacet
  facet normal 0 1 0
    outer loop
      vertex -94.6 103 -2
      vertex -65 103 -4
      vertex -94.6 103 -4
    endloop
  endfacet
  facet normal 0 1 -0
    outer loop
      vertex 59 103 -4
      vertex -59 103 -2
      vertex 59 103 -2
    endloop
  endfacet
  facet normal 0 1 0
    outer loop
      vertex -59 103 -2
      vertex 59 103 -4
      vertex -59 103 -4
    endloop
  endfacet
  facet normal 0 -1 0
    outer loop
      vertex -94.6 97 -4
      vertex -65 97 -2
      vertex -94.6 97 -2
    endloop
  endfacet
  facet normal 0 -1 -0
    outer loop
      vertex -65 97 -2
      vertex -94.6 97 -4
      vertex -65 97 -4
    endloop
  endfacet
  facet normal 0 -1 0
    outer loop
      vertex 65 97 -4
      vertex 94.6 97 -2
      vertex 65 97 -2
    endloop
  endfacet
  facet normal 0 -1 -0
    outer loop
      vertex 94.6 97 -2
      vertex 65 97 -4
      vertex 94.6 97 -4
    endloop
  endfacet
  facet normal 0 -1 0
    outer loop
      vertex -59 97 -4
      vertex 59 97 -2
      vertex -59 97 -2
    endloop
  endfacet
  facet normal 0 -1 -0
    outer loop
      vertex 59 97 -2
      vertex -59 97 -4
      vertex 59 97 -4
    endloop
  endfacet
  facet normal -1 0 0
    outer loop
      vertex -104 0 -2
      vertex -104 146.85 0
      vertex -104 146.85 -2
    endloop
  endfacet
  facet normal -1 -0 0
    outer loop
      vertex -104 146.85 0
      vertex -104 0 -2
      vertex -104 0 0
    endloop
  endfacet
  facet normal -0 0 1
    outer loop
      vertex -104 146.85 0
      vertex 104 0 0
      vertex 104 146.85 0
    endloop
  endfacet
  facet normal 0 0 1
    outer loop
      vertex 104 0 0
      vertex -104 146.85 0
      vertex -104 0 0
    endloop
  endfacet
  facet normal 1 -0 0
    outer loop
      vertex 104 0 0
      vertex 104 146.85 -2
      vertex 104 146.85 0
    endloop
  endfacet
  facet normal 1 0 0
    outer loop
      vertex 104 146.85 -2
      vertex 104 0 0
      vertex 104 0 -2
    endloop
  endfacet
  facet normal 0 0 -1
    outer loop
      vertex -65 103 -2
      vertex -94.6 103 -2
      vertex -65 128.85 -2
    endloop
  endfacet
  facet normal 0 0 -1
    outer loop
      vertex 59 103 -2
      vertex -59 103 -2
      vertex 59 128.85 -2
    endloop
  endfacet
  facet normal 0 0 -1
    outer loop
      vertex 65 128.85 -2
      vertex 94.6 103 -2
      vertex 65 103 -2
    endloop
  endfacet
  facet normal 0 0 -1
    outer loop
      vertex 94.6 103 -2
      vertex 65 128.85 -2
      vertex 94.6 146.65 -2
    endloop
  endfacet
  facet normal 0 0 -1
    outer loop
      vertex 59 128.85 -2
      vertex 94.6 146.65 -2
      vertex 65 128.85 -2
    endloop
  endfacet
  facet normal 0 0 -1
    outer loop
      vertex -59 128.85 -2
      vertex 59 128.85 -2
      vertex -59 103 -2
    endloop
  endfacet
  facet normal 0 0 -1
    outer loop
      vertex 59 128.85 -2
      vertex -59 128.85 -2
      vertex 94.6 146.65 -2
    endloop
  endfacet
  facet normal 0 0 -1
    outer loop
      vertex -94.6 146.65 -2
      vertex -59 128.85 -2
      vertex -65 128.85 -2
    endloop
  endfacet
  facet normal 0 0 -1
    outer loop
      vertex -59 128.85 -2
      vertex -94.6 146.65 -2
      vertex 94.6 146.65 -2
    endloop
  endfacet
  facet normal 0 0 -1
    outer loop
      vertex -94.6 146.65 -2
      vertex -65 128.85 -2
      vertex -94.6 103 -2
    endloop
  endfacet
  facet normal 0 0 -1
    outer loop
      vertex 65 48 -2
      vertex 94.6 97 -2
      vertex 94.6 48 -2
    endloop
  endfacet
  facet normal -0 0 -1
    outer loop
      vertex 94.6 97 -2
      vertex 65 48 -2
      vertex 65 97 -2
    endloop
  endfacet
  facet normal 0 0 -1
    outer loop
      vertex 94.6 48 -2
      vertex 104 0 -2
      vertex 94.6 42 -2
    endloop
  endfacet
  facet normal 0 0 -1
    outer loop
      vertex 104 0 -2
      vertex 65 20 -2
      vertex 94.6 42 -2
    endloop
  endfacet
  facet normal 0 0 -1
    outer loop
      vertex 104 0 -2
      vertex 59 20 -2
      vertex 65 20 -2
    endloop
  endfacet
  facet normal 0 0 -1
    outer loop
      vertex 59 20 -2
      vertex -59 20 -2
      vertex 59 42 -2
    endloop
  endfacet
  facet normal 0 0 -1
    outer loop
      vertex 104 0 -2
      vertex -59 20 -2
      vertex 59 20 -2
    endloop
  endfacet
  facet normal 0 0 -1
    outer loop
      vertex -104 0 -2
      vertex -59 20 -2
      vertex 104 0 -2
    endloop
  endfacet
  facet normal 0 0 -1
    outer loop
      vertex -65 20 -2
      vertex -94.6 42 -2
      vertex -65 42 -2
    endloop
  endfacet
  facet normal 0 0 -1
    outer loop
      vertex -104 0 -2
      vertex -94.6 48 -2
      vertex -94.6 42 -2
    endloop
  endfacet
  facet normal -0 0 -1
    outer loop
      vertex -94.6 48 -2
      vertex -104 0 -2
      vertex -94.6 97 -2
    endloop
  endfacet
  facet normal 0 0 -1
    outer loop
      vertex -94.6 97 -2
      vertex -104 146.85 -2
      vertex -94.6 103 -2
    endloop
  endfacet
  facet normal 0 0 -1
    outer loop
      vertex -94.6 103 -2
      vertex -104 146.85 -2
      vertex -94.6 146.65 -2
    endloop
  endfacet
  facet normal -0 0 -1
    outer loop
      vertex -59 20 -2
      vertex -104 0 -2
      vertex -65 20 -2
    endloop
  endfacet
  facet normal 0 0 -1
    outer loop
      vertex -104 0 -2
      vertex -94.6 42 -2
      vertex -65 20 -2
    endloop
  endfacet
  facet normal -0 0 -1
    outer loop
      vertex -94.6 97 -2
      vertex -104 0 -2
      vertex -104 146.85 -2
    endloop
  endfacet
  facet normal 0 0 -1
    outer loop
      vertex -94.6 146.65 -2
      vertex -104 146.85 -2
      vertex -94.6 146.85 -2
    endloop
  endfacet
  facet normal 0 0 -1
    outer loop
      vertex 104 0 -2
      vertex 94.6 48 -2
      vertex 104 146.85 -2
    endloop
  endfacet
  facet normal 0 0 -1
    outer loop
      vertex 94.6 97 -2
      vertex 104 146.85 -2
      vertex 94.6 48 -2
    endloop
  endfacet
  facet normal 0 0 -1
    outer loop
      vertex 94.6 103 -2
      vertex 104 146.85 -2
      vertex 94.6 97 -2
    endloop
  endfacet
  facet normal 0 0 -1
    outer loop
      vertex 94.6 146.65 -2
      vertex 104 146.85 -2
      vertex 94.6 103 -2
    endloop
  endfacet
  facet normal -0 0 -1
    outer loop
      vertex 104 146.85 -2
      vertex 94.6 146.65 -2
      vertex 94.6 146.85 -2
    endloop
  endfacet
  facet normal -0 0 -1
    outer loop
      vertex 94.6 42 -2
      vertex 65 20 -2
      vertex 65 42 -2
    endloop
  endfacet
  facet normal -0 0 -1
    outer loop
      vertex 59 42 -2
      vertex -59 20 -2
      vertex -59 42 -2
    endloop
  endfacet
  facet normal 0 0 -1
    outer loop
      vertex -94.6 48 -2
      vertex -65 97 -2
      vertex -65 48 -2
    endloop
  endfacet
  facet normal -0 0 -1
    outer loop
      vertex -65 97 -2
      vertex -94.6 48 -2
      vertex -94.6 97 -2
    endloop
  endfacet
  facet normal 0 0 -1
    outer loop
      vertex -59 48 -2
      vertex 59 97 -2
      vertex 59 48 -2
    endloop
  endfacet
  facet normal -0 0 -1
    outer loop
      vertex 59 97 -2
      vertex -59 48 -2
      vertex -59 97 -2
    endloop
  endfacet
  facet normal 0 -1 0
    outer loop
      vertex -104 0 -2
      vertex 104 0 0
      vertex -104 0 0
    endloop
  endfacet
  facet normal 0 -1 -0
    outer loop
      vertex 104 0 0
      vertex -104 0 -2
      vertex 104 0 -2
    endloop
  endfacet
  facet normal 0 1 0
    outer loop
      vertex 104 146.85 0
      vertex 94.6 146.85 -1.8
      vertex -104 146.85 0
    endloop
  endfacet
  facet normal 0 1 -0
    outer loop
      vertex 104 146.85 -2
      vertex 94.6 146.85 -1.8
      vertex 104 146.85 0
    endloop
  endfacet
  facet normal 0 1 0
    outer loop
      vertex 94.6 146.85 -1.8
      vertex 104 146.85 -2
      vertex 94.6 146.85 -2
    endloop
  endfacet
  facet normal 0 1 -0
    outer loop
      vertex -94.6 146.85 -1.8
      vertex -104 146.85 0
      vertex 94.6 146.85 -1.8
    endloop
  endfacet
  facet normal 0 1 0
    outer loop
      vertex -104 146.85 -2
      vertex -94.6 146.85 -1.8
      vertex -94.6 146.85 -2
    endloop
  endfacet
  facet normal 0 1 0
    outer loop
      vertex -94.6 146.85 -1.8
      vertex -104 146.85 -2
      vertex -104 146.85 0
    endloop
  endfacet
  facet normal -1 0 0
    outer loop
      vertex -94.6 154.85 -3.2
      vertex -94.6 146.85 -2
      vertex -94.6 154.85 -1.8
    endloop
  endfacet
  facet normal -1 0 0
    outer loop
      vertex -94.6 146.65 -3.2
      vertex -94.6 146.85 -2
      vertex -94.6 154.85 -3.2
    endloop
  endfacet
  facet normal -1 -0 0
    outer loop
      vertex -94.6 146.85 -2
      vertex -94.6 146.65 -3.2
      vertex -94.6 146.65 -2
    endloop
  endfacet
  facet normal -1 -0 0
    outer loop
      vertex -94.6 154.85 -1.8
      vertex -94.6 146.85 -2
      vertex -94.6 146.85 -1.8
    endloop
  endfacet
  facet normal -0 0 1
    outer loop
      vertex -94.6 154.85 -1.8
      vertex 94.6 146.85 -1.8
      vertex 94.6 154.85 -1.8
    endloop
  endfacet
  facet normal 0 0 1
    outer loop
      vertex 94.6 146.85 -1.8
      vertex -94.6 154.85 -1.8
      vertex -94.6 146.85 -1.8
    endloop
  endfacet
  facet normal 1 0 0
    outer loop
      vertex 94.6 146.85 -2
      vertex 94.6 154.85 -1.8
      vertex 94.6 146.85 -1.8
    endloop
  endfacet
  facet normal 1 0 0
    outer loop
      vertex 94.6 154.85 -1.8
      vertex 94.6 146.85 -2
      vertex 94.6 154.85 -3.2
    endloop
  endfacet
  facet normal 1 0 0
    outer loop
      vertex 94.6 146.65 -3.2
      vertex 94.6 146.85 -2
      vertex 94.6 146.65 -2
    endloop
  endfacet
  facet normal 1 0 0
    outer loop
      vertex 94.6 146.85 -2
      vertex 94.6 146.65 -3.2
      vertex 94.6 154.85 -3.2
    endloop
  endfacet
  facet normal 0 1 -0
    outer loop
      vertex 94.6 154.85 -3.2
      vertex -94.6 154.85 -1.8
      vertex 94.6 154.85 -1.8
    endloop
  endfacet
  facet normal 0 1 0
    outer loop
      vertex -94.6 154.85 -1.8
      vertex 94.6 154.85 -3.2
      vertex -94.6 154.85 -3.2
    endloop
  endfacet
  facet normal 0 0 -1
    outer loop
      vertex -94.6 146.65 -3.2
      vertex 94.6 154.85 -3.2
      vertex 94.6 146.65 -3.2
    endloop
  endfacet
  facet normal -0 0 -1
    outer loop
      vertex 94.6 154.85 -3.2
      vertex -94.6 146.65 -3.2
      vertex -94.6 154.85 -3.2
    endloop
  endfacet
  facet normal 0 -1 0
    outer loop
      vertex -94.6 146.65 -3.2
      vertex 94.6 146.65 -2
      vertex -94.6 146.65 -2
    endloop
  endfacet
  facet normal 0 -1 -0
    outer loop
      vertex 94.6 146.65 -2
      vertex -94.6 146.65 -3.2
      vertex 94.6 146.65 -3.2
    endloop
  endfacet
endsolid OpenSCAD_Model
