solid OpenSCAD_Model
  facet normal -1 0 0
    outer loop
      vertex -14.7 -5.75 2.4
      vertex -14.7 -4.25 3.3
      vertex -14.7 -4.25 2.4
    endloop
  endfacet
  facet normal -1 -0 0
    outer loop
      vertex -14.7 -4.25 3.3
      vertex -14.7 -5.75 2.4
      vertex -14.7 -5.75 3.3
    endloop
  endfacet
  facet normal -0 0 1
    outer loop
      vertex -14.7 -4.25 3.3
      vertex 14.7 -5.75 3.3
      vertex 14.7 -4.25 3.3
    endloop
  endfacet
  facet normal 0 0 1
    outer loop
      vertex 14.7 -5.75 3.3
      vertex -14.7 -4.25 3.3
      vertex -14.7 -5.75 3.3
    endloop
  endfacet
  facet normal 1 -0 0
    outer loop
      vertex 14.7 -5.75 3.3
      vertex 14.7 -4.25 2.4
      vertex 14.7 -4.25 3.3
    endloop
  endfacet
  facet normal 1 0 0
    outer loop
      vertex 14.7 -4.25 2.4
      vertex 14.7 -5.75 3.3
      vertex 14.7 -5.75 2.4
    endloop
  endfacet
  facet normal 0 -1 0
    outer loop
      vertex -14.7 -5.75 2.4
      vertex 14.7 -5.75 3.3
      vertex -14.7 -5.75 3.3
    endloop
  endfacet
  facet normal 0 -1 -0
    outer loop
      vertex 14.7 -5.75 3.3
      vertex -14.7 -5.75 2.4
      vertex 14.7 -5.75 2.4
    endloop
  endfacet
  facet normal 0 1 -0
    outer loop
      vertex 14.7 -4.25 2.4
      vertex -14.7 -4.25 3.3
      vertex 14.7 -4.25 3.3
    endloop
  endfacet
  facet normal 0 1 0
    outer loop
      vertex -14.7 -4.25 3.3
      vertex 14.7 -4.25 2.4
      vertex -14.7 -4.25 2.4
    endloop
  endfacet
  facet normal -1 0 0
    outer loop
      vertex -14.7 4.25 2.4
      vertex -14.7 5.75 3.3
      vertex -14.7 5.75 2.4
    endloop
  endfacet
  facet normal -1 -0 0
    outer loop
      vertex -14.7 5.75 3.3
      vertex -14.7 4.25 2.4
      vertex -14.7 4.25 3.3
    endloop
  endfacet
  facet normal -0 0 1
    outer loop
      vertex -14.7 5.75 3.3
      vertex 14.7 4.25 3.3
      vertex 14.7 5.75 3.3
    endloop
  endfacet
  facet normal 0 0 1
    outer loop
      vertex 14.7 4.25 3.3
      vertex -14.7 5.75 3.3
      vertex -14.7 4.25 3.3
    endloop
  endfacet
  facet normal 1 -0 0
    outer loop
      vertex 14.7 4.25 3.3
      vertex 14.7 5.75 2.4
      vertex 14.7 5.75 3.3
    endloop
  endfacet
  facet normal 1 0 0
    outer loop
      vertex 14.7 5.75 2.4
      vertex 14.7 4.25 3.3
      vertex 14.7 4.25 2.4
    endloop
  endfacet
  facet normal 0 -1 0
    outer loop
      vertex -14.7 4.25 2.4
      vertex 14.7 4.25 3.3
      vertex -14.7 4.25 3.3
    endloop
  endfacet
  facet normal 0 -1 -0
    outer loop
      vertex 14.7 4.25 3.3
      vertex -14.7 4.25 2.4
      vertex 14.7 4.25 2.4
    endloop
  endfacet
  facet normal 0 1 -0
    outer loop
      vertex 14.7 5.75 2.4
      vertex -14.7 5.75 3.3
      vertex 14.7 5.75 3.3
    endloop
  endfacet
  facet normal 0 1 0
    outer loop
      vertex -14.7 5.75 3.3
      vertex 14.7 5.75 2.4
      vertex -14.7 5.75 2.4
    endloop
  endfacet
  facet normal 0.0654151 -0.997858 0
    outer loop
      vertex 14.7 -7.7 0
      vertex 14.961 -7.68289 2.4
      vertex 14.7 -7.7 2.4
    endloop
  endfacet
  facet normal 0.0654151 -0.997858 0
    outer loop
      vertex 14.961 -7.68289 2.4
      vertex 14.7 -7.7 0
      vertex 14.961 -7.68289 0
    endloop
  endfacet
  facet normal 0.195087 -0.980786 0
    outer loop
      vertex 14.961 -7.68289 0
      vertex 15.2176 -7.63185 2.4
      vertex 14.961 -7.68289 2.4
    endloop
  endfacet
  facet normal 0.195087 -0.980786 0
    outer loop
      vertex 15.2176 -7.63185 2.4
      vertex 14.961 -7.68289 0
      vertex 15.2176 -7.63185 0
    endloop
  endfacet
  facet normal -0.0654151 0.997858 0
    outer loop
      vertex -14.7 7.7 0
      vertex -14.961 7.68289 2.4
      vertex -14.7 7.7 2.4
    endloop
  endfacet
  facet normal -0.0654151 0.997858 0
    outer loop
      vertex -14.961 7.68289 2.4
      vertex -14.7 7.7 0
      vertex -14.961 7.68289 0
    endloop
  endfacet
  facet normal -0.442344 -0.896845 0
    outer loop
      vertex -15.7 -7.43205 0
      vertex -15.4654 -7.54776 2.4
      vertex -15.7 -7.43205 2.4
    endloop
  endfacet
  facet normal -0.442344 -0.896845 -0
    outer loop
      vertex -15.4654 -7.54776 2.4
      vertex -15.7 -7.43205 0
      vertex -15.4654 -7.54776 0
    endloop
  endfacet
  facet normal 0.0654151 0.997858 -0
    outer loop
      vertex 14.961 7.68289 0
      vertex 14.7 7.7 2.4
      vertex 14.961 7.68289 2.4
    endloop
  endfacet
  facet normal 0.0654151 0.997858 0
    outer loop
      vertex 14.7 7.7 2.4
      vertex 14.961 7.68289 0
      vertex 14.7 7.7 0
    endloop
  endfacet
  facet normal -0.659321 0.751861 0
    outer loop
      vertex -15.9175 7.2867 0
      vertex -16.1142 7.11421 2.4
      vertex -15.9175 7.2867 2.4
    endloop
  endfacet
  facet normal -0.659321 0.751861 0
    outer loop
      vertex -16.1142 7.11421 2.4
      vertex -15.9175 7.2867 0
      vertex -16.1142 7.11421 0
    endloop
  endfacet
  facet normal -0.555626 -0.831432 0
    outer loop
      vertex -15.9175 -7.2867 0
      vertex -15.7 -7.43205 2.4
      vertex -15.9175 -7.2867 2.4
    endloop
  endfacet
  facet normal -0.555626 -0.831432 -0
    outer loop
      vertex -15.7 -7.43205 2.4
      vertex -15.9175 -7.2867 0
      vertex -15.7 -7.43205 0
    endloop
  endfacet
  facet normal 0 -1 0
    outer loop
      vertex -14.7 -7.7 0
      vertex 14.7 -7.7 2.4
      vertex -14.7 -7.7 2.4
    endloop
  endfacet
  facet normal 0 -1 -0
    outer loop
      vertex 14.7 -7.7 2.4
      vertex -14.7 -7.7 0
      vertex 14.7 -7.7 0
    endloop
  endfacet
  facet normal 0 1 -0
    outer loop
      vertex 14.7 7.7 0
      vertex -14.7 7.7 2.4
      vertex 14.7 7.7 2.4
    endloop
  endfacet
  facet normal 0 1 0
    outer loop
      vertex -14.7 7.7 2.4
      vertex 14.7 7.7 0
      vertex -14.7 7.7 0
    endloop
  endfacet
  facet normal -0 0 1
    outer loop
      vertex -14.7 4.25 2.4
      vertex 14.7 -4.25 2.4
      vertex 14.7 4.25 2.4
    endloop
  endfacet
  facet normal 0 0 1
    outer loop
      vertex 14.7 -4.25 2.4
      vertex -14.7 4.25 2.4
      vertex -14.7 -4.25 2.4
    endloop
  endfacet
  facet normal -0 0 1
    outer loop
      vertex 14.7 5.75 2.4
      vertex 16.7 5.7 2.4
      vertex 16.6829 5.96104 2.4
    endloop
  endfacet
  facet normal 0 0 1
    outer loop
      vertex 16.7 5.7 2.4
      vertex 14.7 4.25 2.4
      vertex 16.7 -5.7 2.4
    endloop
  endfacet
  facet normal 0 0 1
    outer loop
      vertex 14.7 5.75 2.4
      vertex 16.6829 5.96104 2.4
      vertex 16.6319 6.21764 2.4
    endloop
  endfacet
  facet normal -0 0 1
    outer loop
      vertex 14.7 -4.25 2.4
      vertex 16.7 -5.7 2.4
      vertex 14.7 4.25 2.4
    endloop
  endfacet
  facet normal 0 0 1
    outer loop
      vertex 14.7 5.75 2.4
      vertex 16.6319 6.21764 2.4
      vertex 16.5478 6.46536 2.4
    endloop
  endfacet
  facet normal 0 0 1
    outer loop
      vertex 14.7 -5.75 2.4
      vertex 16.7 -5.7 2.4
      vertex 14.7 -4.25 2.4
    endloop
  endfacet
  facet normal 0 0 1
    outer loop
      vertex 14.7 5.75 2.4
      vertex 16.5478 6.46536 2.4
      vertex 16.4321 6.7 2.4
    endloop
  endfacet
  facet normal 0 0 1
    outer loop
      vertex 16.7 -5.7 2.4
      vertex 14.7 -5.75 2.4
      vertex 16.6829 -5.96104 2.4
    endloop
  endfacet
  facet normal 0 0 1
    outer loop
      vertex 14.7 5.75 2.4
      vertex 16.4321 6.7 2.4
      vertex 16.2867 6.91753 2.4
    endloop
  endfacet
  facet normal 0 0 1
    outer loop
      vertex 16.6829 -5.96104 2.4
      vertex 14.7 -5.75 2.4
      vertex 16.6319 -6.21764 2.4
    endloop
  endfacet
  facet normal 0 0 1
    outer loop
      vertex 14.7 5.75 2.4
      vertex 16.2867 6.91753 2.4
      vertex 16.1142 7.11421 2.4
    endloop
  endfacet
  facet normal 0 0 1
    outer loop
      vertex 16.6319 -6.21764 2.4
      vertex 14.7 -5.75 2.4
      vertex 16.5478 -6.46536 2.4
    endloop
  endfacet
  facet normal 0 0 1
    outer loop
      vertex 14.7 5.75 2.4
      vertex 16.1142 7.11421 2.4
      vertex 15.9175 7.2867 2.4
    endloop
  endfacet
  facet normal 0 0 1
    outer loop
      vertex 16.5478 -6.46536 2.4
      vertex 14.7 -5.75 2.4
      vertex 16.4321 -6.7 2.4
    endloop
  endfacet
  facet normal 0 0 1
    outer loop
      vertex 14.7 5.75 2.4
      vertex 15.9175 7.2867 2.4
      vertex 15.7 7.43205 2.4
    endloop
  endfacet
  facet normal 0 0 1
    outer loop
      vertex 16.4321 -6.7 2.4
      vertex 14.7 -5.75 2.4
      vertex 16.2867 -6.91753 2.4
    endloop
  endfacet
  facet normal 0 0 1
    outer loop
      vertex 14.7 5.75 2.4
      vertex 15.7 7.43205 2.4
      vertex 15.4654 7.54776 2.4
    endloop
  endfacet
  facet normal 0 0 1
    outer loop
      vertex 16.2867 -6.91753 2.4
      vertex 14.7 -5.75 2.4
      vertex 16.1142 -7.11421 2.4
    endloop
  endfacet
  facet normal 0 0 1
    outer loop
      vertex 14.7 5.75 2.4
      vertex 15.4654 7.54776 2.4
      vertex 15.2176 7.63185 2.4
    endloop
  endfacet
  facet normal 0 0 1
    outer loop
      vertex 16.1142 -7.11421 2.4
      vertex 14.7 -5.75 2.4
      vertex 15.9175 -7.2867 2.4
    endloop
  endfacet
  facet normal 0 0 1
    outer loop
      vertex 14.7 5.75 2.4
      vertex 15.2176 7.63185 2.4
      vertex 14.961 7.68289 2.4
    endloop
  endfacet
  facet normal 0 0 1
    outer loop
      vertex 15.9175 -7.2867 2.4
      vertex 14.7 -5.75 2.4
      vertex 15.7 -7.43205 2.4
    endloop
  endfacet
  facet normal 0 0 1
    outer loop
      vertex 16.7 5.7 2.4
      vertex 14.7 5.75 2.4
      vertex 14.7 4.25 2.4
    endloop
  endfacet
  facet normal 0 0 1
    outer loop
      vertex 14.7 7.7 2.4
      vertex 14.7 5.75 2.4
      vertex 14.961 7.68289 2.4
    endloop
  endfacet
  facet normal -0 0 1
    outer loop
      vertex -14.7 7.7 2.4
      vertex 14.7 5.75 2.4
      vertex 14.7 7.7 2.4
    endloop
  endfacet
  facet normal 0 0 1
    outer loop
      vertex -14.7 7.7 2.4
      vertex -14.7 5.75 2.4
      vertex 14.7 5.75 2.4
    endloop
  endfacet
  facet normal -0 0 1
    outer loop
      vertex -16.7 5.7 2.4
      vertex -14.7 4.25 2.4
      vertex -14.7 5.75 2.4
    endloop
  endfacet
  facet normal 0 0 1
    outer loop
      vertex -14.7 4.25 2.4
      vertex -16.7 5.7 2.4
      vertex -14.7 -4.25 2.4
    endloop
  endfacet
  facet normal -0 0 1
    outer loop
      vertex -15.2176 7.63185 2.4
      vertex -14.7 5.75 2.4
      vertex -14.961 7.68289 2.4
    endloop
  endfacet
  facet normal -0 0 1
    outer loop
      vertex -14.961 7.68289 2.4
      vertex -14.7 5.75 2.4
      vertex -14.7 7.7 2.4
    endloop
  endfacet
  facet normal 0 0 1
    outer loop
      vertex 15.7 -7.43205 2.4
      vertex 14.7 -5.75 2.4
      vertex 15.4654 -7.54776 2.4
    endloop
  endfacet
  facet normal 0 0 1
    outer loop
      vertex 15.4654 -7.54776 2.4
      vertex 14.7 -5.75 2.4
      vertex 15.2176 -7.63185 2.4
    endloop
  endfacet
  facet normal 0 0 1
    outer loop
      vertex 15.2176 -7.63185 2.4
      vertex 14.7 -5.75 2.4
      vertex 14.961 -7.68289 2.4
    endloop
  endfacet
  facet normal 0 0 1
    outer loop
      vertex 14.7 -5.75 2.4
      vertex 14.7 -7.7 2.4
      vertex 14.961 -7.68289 2.4
    endloop
  endfacet
  facet normal 0 0 1
    outer loop
      vertex 14.7 -5.75 2.4
      vertex -14.7 -7.7 2.4
      vertex 14.7 -7.7 2.4
    endloop
  endfacet
  facet normal -0 0 1
    outer loop
      vertex -14.7 -5.75 2.4
      vertex -14.7 -7.7 2.4
      vertex 14.7 -5.75 2.4
    endloop
  endfacet
  facet normal 0 0 1
    outer loop
      vertex -16.7 -5.7 2.4
      vertex -14.7 -4.25 2.4
      vertex -16.7 5.7 2.4
    endloop
  endfacet
  facet normal 0 0 1
    outer loop
      vertex -14.7 -4.25 2.4
      vertex -16.7 -5.7 2.4
      vertex -14.7 -5.75 2.4
    endloop
  endfacet
  facet normal -0 0 1
    outer loop
      vertex -15.4654 7.54776 2.4
      vertex -14.7 5.75 2.4
      vertex -15.2176 7.63185 2.4
    endloop
  endfacet
  facet normal 0 -0 1
    outer loop
      vertex -16.6829 -5.96104 2.4
      vertex -14.7 -5.75 2.4
      vertex -16.7 -5.7 2.4
    endloop
  endfacet
  facet normal -0 0 1
    outer loop
      vertex -15.7 7.43205 2.4
      vertex -14.7 5.75 2.4
      vertex -15.4654 7.54776 2.4
    endloop
  endfacet
  facet normal 0 0 1
    outer loop
      vertex -14.7 -5.75 2.4
      vertex -14.961 -7.68289 2.4
      vertex -14.7 -7.7 2.4
    endloop
  endfacet
  facet normal -0 0 1
    outer loop
      vertex -15.9175 7.2867 2.4
      vertex -14.7 5.75 2.4
      vertex -15.7 7.43205 2.4
    endloop
  endfacet
  facet normal 0 0 1
    outer loop
      vertex -14.7 -5.75 2.4
      vertex -15.2176 -7.63185 2.4
      vertex -14.961 -7.68289 2.4
    endloop
  endfacet
  facet normal -0 0 1
    outer loop
      vertex -16.1142 7.11421 2.4
      vertex -14.7 5.75 2.4
      vertex -15.9175 7.2867 2.4
    endloop
  endfacet
  facet normal 0 0 1
    outer loop
      vertex -14.7 -5.75 2.4
      vertex -15.4654 -7.54776 2.4
      vertex -15.2176 -7.63185 2.4
    endloop
  endfacet
  facet normal -0 0 1
    outer loop
      vertex -16.2867 6.91753 2.4
      vertex -14.7 5.75 2.4
      vertex -16.1142 7.11421 2.4
    endloop
  endfacet
  facet normal 0 0 1
    outer loop
      vertex -14.7 -5.75 2.4
      vertex -15.7 -7.43205 2.4
      vertex -15.4654 -7.54776 2.4
    endloop
  endfacet
  facet normal -0 0 1
    outer loop
      vertex -16.4321 6.7 2.4
      vertex -14.7 5.75 2.4
      vertex -16.2867 6.91753 2.4
    endloop
  endfacet
  facet normal 0 0 1
    outer loop
      vertex -14.7 -5.75 2.4
      vertex -15.9175 -7.2867 2.4
      vertex -15.7 -7.43205 2.4
    endloop
  endfacet
  facet normal -0 0 1
    outer loop
      vertex -16.5478 6.46536 2.4
      vertex -14.7 5.75 2.4
      vertex -16.4321 6.7 2.4
    endloop
  endfacet
  facet normal 0 0 1
    outer loop
      vertex -14.7 -5.75 2.4
      vertex -16.1142 -7.11421 2.4
      vertex -15.9175 -7.2867 2.4
    endloop
  endfacet
  facet normal -0 0 1
    outer loop
      vertex -16.6319 6.21764 2.4
      vertex -14.7 5.75 2.4
      vertex -16.5478 6.46536 2.4
    endloop
  endfacet
  facet normal 0 0 1
    outer loop
      vertex -14.7 -5.75 2.4
      vertex -16.2867 -6.91753 2.4
      vertex -16.1142 -7.11421 2.4
    endloop
  endfacet
  facet normal -0 0 1
    outer loop
      vertex -16.6829 5.96104 2.4
      vertex -14.7 5.75 2.4
      vertex -16.6319 6.21764 2.4
    endloop
  endfacet
  facet normal 0 0 1
    outer loop
      vertex -14.7 -5.75 2.4
      vertex -16.4321 -6.7 2.4
      vertex -16.2867 -6.91753 2.4
    endloop
  endfacet
  facet normal 0 0 1
    outer loop
      vertex -14.7 5.75 2.4
      vertex -16.6829 5.96104 2.4
      vertex -16.7 5.7 2.4
    endloop
  endfacet
  facet normal 0 0 1
    outer loop
      vertex -14.7 -5.75 2.4
      vertex -16.5478 -6.46536 2.4
      vertex -16.4321 -6.7 2.4
    endloop
  endfacet
  facet normal 0 0 1
    outer loop
      vertex -14.7 -5.75 2.4
      vertex -16.6319 -6.21764 2.4
      vertex -16.5478 -6.46536 2.4
    endloop
  endfacet
  facet normal 0 0 1
    outer loop
      vertex -14.7 -5.75 2.4
      vertex -16.6829 -5.96104 2.4
      vertex -16.6319 -6.21764 2.4
    endloop
  endfacet
  facet normal 0 0 -1
    outer loop
      vertex 14.7 -7.7 0
      vertex 16.7 -5.7 0
      vertex 16.6829 -5.96104 0
    endloop
  endfacet
  facet normal -0 0 -1
    outer loop
      vertex 16.7 -5.7 0
      vertex 14.7 -7.7 0
      vertex 16.7 5.7 0
    endloop
  endfacet
  facet normal 0 0 -1
    outer loop
      vertex 14.7 -7.7 0
      vertex 16.6829 -5.96104 0
      vertex 16.6319 -6.21764 0
    endloop
  endfacet
  facet normal 0 0 -1
    outer loop
      vertex 14.7 7.7 0
      vertex 16.7 5.7 0
      vertex 14.7 -7.7 0
    endloop
  endfacet
  facet normal 0 0 -1
    outer loop
      vertex 14.7 -7.7 0
      vertex 16.6319 -6.21764 0
      vertex 16.5478 -6.46536 0
    endloop
  endfacet
  facet normal 0 0 -1
    outer loop
      vertex 16.7 5.7 0
      vertex 14.7 7.7 0
      vertex 16.6829 5.96104 0
    endloop
  endfacet
  facet normal 0 0 -1
    outer loop
      vertex 14.7 -7.7 0
      vertex 16.5478 -6.46536 0
      vertex 16.4321 -6.7 0
    endloop
  endfacet
  facet normal 0 0 -1
    outer loop
      vertex 16.6829 5.96104 0
      vertex 14.7 7.7 0
      vertex 16.6319 6.21764 0
    endloop
  endfacet
  facet normal 0 0 -1
    outer loop
      vertex 14.7 -7.7 0
      vertex 16.4321 -6.7 0
      vertex 16.2867 -6.91753 0
    endloop
  endfacet
  facet normal 0 0 -1
    outer loop
      vertex 16.6319 6.21764 0
      vertex 14.7 7.7 0
      vertex 16.5478 6.46536 0
    endloop
  endfacet
  facet normal 0 0 -1
    outer loop
      vertex 14.7 -7.7 0
      vertex 16.2867 -6.91753 0
      vertex 16.1142 -7.11421 0
    endloop
  endfacet
  facet normal 0 0 -1
    outer loop
      vertex 16.5478 6.46536 0
      vertex 14.7 7.7 0
      vertex 16.4321 6.7 0
    endloop
  endfacet
  facet normal 0 0 -1
    outer loop
      vertex 14.7 -7.7 0
      vertex 16.1142 -7.11421 0
      vertex 15.9175 -7.2867 0
    endloop
  endfacet
  facet normal 0 0 -1
    outer loop
      vertex 16.4321 6.7 0
      vertex 14.7 7.7 0
      vertex 16.2867 6.91753 0
    endloop
  endfacet
  facet normal 0 0 -1
    outer loop
      vertex 14.7 -7.7 0
      vertex 15.9175 -7.2867 0
      vertex 15.7 -7.43205 0
    endloop
  endfacet
  facet normal 0 0 -1
    outer loop
      vertex 16.2867 6.91753 0
      vertex 14.7 7.7 0
      vertex 16.1142 7.11421 0
    endloop
  endfacet
  facet normal 0 0 -1
    outer loop
      vertex 14.7 -7.7 0
      vertex 15.7 -7.43205 0
      vertex 15.4654 -7.54776 0
    endloop
  endfacet
  facet normal 0 0 -1
    outer loop
      vertex 16.1142 7.11421 0
      vertex 14.7 7.7 0
      vertex 15.9175 7.2867 0
    endloop
  endfacet
  facet normal 0 0 -1
    outer loop
      vertex 14.7 -7.7 0
      vertex 15.4654 -7.54776 0
      vertex 15.2176 -7.63185 0
    endloop
  endfacet
  facet normal 0 0 -1
    outer loop
      vertex 15.9175 7.2867 0
      vertex 14.7 7.7 0
      vertex 15.7 7.43205 0
    endloop
  endfacet
  facet normal 0 0 -1
    outer loop
      vertex 14.7 -7.7 0
      vertex 15.2176 -7.63185 0
      vertex 14.961 -7.68289 0
    endloop
  endfacet
  facet normal 0 0 -1
    outer loop
      vertex 15.7 7.43205 0
      vertex 14.7 7.7 0
      vertex 15.4654 7.54776 0
    endloop
  endfacet
  facet normal 0 0 -1
    outer loop
      vertex 15.4654 7.54776 0
      vertex 14.7 7.7 0
      vertex 15.2176 7.63185 0
    endloop
  endfacet
  facet normal 0 0 -1
    outer loop
      vertex 15.2176 7.63185 0
      vertex 14.7 7.7 0
      vertex 14.961 7.68289 0
    endloop
  endfacet
  facet normal 0 0 -1
    outer loop
      vertex -14.7 -7.7 0
      vertex 14.7 7.7 0
      vertex 14.7 -7.7 0
    endloop
  endfacet
  facet normal 0 0 -1
    outer loop
      vertex -14.7 -7.7 0
      vertex -14.7 7.7 0
      vertex 14.7 7.7 0
    endloop
  endfacet
  facet normal 0 0 -1
    outer loop
      vertex -16.7 -5.7 0
      vertex -14.7 -7.7 0
      vertex -14.961 -7.68289 0
    endloop
  endfacet
  facet normal 0 0 -1
    outer loop
      vertex -14.7 -7.7 0
      vertex -16.7 -5.7 0
      vertex -14.7 7.7 0
    endloop
  endfacet
  facet normal 0 0 -1
    outer loop
      vertex -16.7 -5.7 0
      vertex -14.961 -7.68289 0
      vertex -15.2176 -7.63185 0
    endloop
  endfacet
  facet normal 0 0 -1
    outer loop
      vertex -16.7 5.7 0
      vertex -14.7 7.7 0
      vertex -16.7 -5.7 0
    endloop
  endfacet
  facet normal 0 0 -1
    outer loop
      vertex -16.7 -5.7 0
      vertex -15.2176 -7.63185 0
      vertex -15.4654 -7.54776 0
    endloop
  endfacet
  facet normal 0 0 -1
    outer loop
      vertex -14.7 7.7 0
      vertex -16.7 5.7 0
      vertex -14.961 7.68289 0
    endloop
  endfacet
  facet normal 0 0 -1
    outer loop
      vertex -16.7 -5.7 0
      vertex -15.4654 -7.54776 0
      vertex -15.7 -7.43205 0
    endloop
  endfacet
  facet normal 0 0 -1
    outer loop
      vertex -14.961 7.68289 0
      vertex -16.7 5.7 0
      vertex -15.2176 7.63185 0
    endloop
  endfacet
  facet normal 0 0 -1
    outer loop
      vertex -16.7 -5.7 0
      vertex -15.7 -7.43205 0
      vertex -15.9175 -7.2867 0
    endloop
  endfacet
  facet normal 0 0 -1
    outer loop
      vertex -15.2176 7.63185 0
      vertex -16.7 5.7 0
      vertex -15.4654 7.54776 0
    endloop
  endfacet
  facet normal 0 0 -1
    outer loop
      vertex -16.7 -5.7 0
      vertex -15.9175 -7.2867 0
      vertex -16.1142 -7.11421 0
    endloop
  endfacet
  facet normal 0 0 -1
    outer loop
      vertex -15.4654 7.54776 0
      vertex -16.7 5.7 0
      vertex -15.7 7.43205 0
    endloop
  endfacet
  facet normal 0 0 -1
    outer loop
      vertex -16.7 -5.7 0
      vertex -16.1142 -7.11421 0
      vertex -16.2867 -6.91753 0
    endloop
  endfacet
  facet normal 0 0 -1
    outer loop
      vertex -15.7 7.43205 0
      vertex -16.7 5.7 0
      vertex -15.9175 7.2867 0
    endloop
  endfacet
  facet normal 0 0 -1
    outer loop
      vertex -16.7 -5.7 0
      vertex -16.2867 -6.91753 0
      vertex -16.4321 -6.7 0
    endloop
  endfacet
  facet normal 0 0 -1
    outer loop
      vertex -15.9175 7.2867 0
      vertex -16.7 5.7 0
      vertex -16.1142 7.11421 0
    endloop
  endfacet
  facet normal 0 0 -1
    outer loop
      vertex -16.7 -5.7 0
      vertex -16.4321 -6.7 0
      vertex -16.5478 -6.46536 0
    endloop
  endfacet
  facet normal 0 0 -1
    outer loop
      vertex -16.1142 7.11421 0
      vertex -16.7 5.7 0
      vertex -16.2867 6.91753 0
    endloop
  endfacet
  facet normal 0 0 -1
    outer loop
      vertex -16.7 -5.7 0
      vertex -16.5478 -6.46536 0
      vertex -16.6319 -6.21764 0
    endloop
  endfacet
  facet normal 0 0 -1
    outer loop
      vertex -16.2867 6.91753 0
      vertex -16.7 5.7 0
      vertex -16.4321 6.7 0
    endloop
  endfacet
  facet normal 0 0 -1
    outer loop
      vertex -16.7 -5.7 0
      vertex -16.6319 -6.21764 0
      vertex -16.6829 -5.96104 0
    endloop
  endfacet
  facet normal 0 0 -1
    outer loop
      vertex -16.4321 6.7 0
      vertex -16.7 5.7 0
      vertex -16.5478 6.46536 0
    endloop
  endfacet
  facet normal 0 0 -1
    outer loop
      vertex -16.5478 6.46536 0
      vertex -16.7 5.7 0
      vertex -16.6319 6.21764 0
    endloop
  endfacet
  facet normal 0 0 -1
    outer loop
      vertex -16.6319 6.21764 0
      vertex -16.7 5.7 0
      vertex -16.6829 5.96104 0
    endloop
  endfacet
  facet normal -0.195087 -0.980786 0
    outer loop
      vertex -15.2176 -7.63185 0
      vertex -14.961 -7.68289 2.4
      vertex -15.2176 -7.63185 2.4
    endloop
  endfacet
  facet normal -0.195087 -0.980786 -0
    outer loop
      vertex -14.961 -7.68289 2.4
      vertex -15.2176 -7.63185 0
      vertex -14.961 -7.68289 0
    endloop
  endfacet
  facet normal -0.321348 -0.946961 0
    outer loop
      vertex -15.4654 -7.54776 0
      vertex -15.2176 -7.63185 2.4
      vertex -15.4654 -7.54776 2.4
    endloop
  endfacet
  facet normal -0.321348 -0.946961 -0
    outer loop
      vertex -15.2176 -7.63185 2.4
      vertex -15.4654 -7.54776 0
      vertex -15.2176 -7.63185 0
    endloop
  endfacet
  facet normal 1 -0 0
    outer loop
      vertex 16.7 -5.7 2.4
      vertex 16.7 5.7 0
      vertex 16.7 5.7 2.4
    endloop
  endfacet
  facet normal 1 0 0
    outer loop
      vertex 16.7 5.7 0
      vertex 16.7 -5.7 2.4
      vertex 16.7 -5.7 0
    endloop
  endfacet
  facet normal 0.555626 0.831432 -0
    outer loop
      vertex 15.9175 7.2867 0
      vertex 15.7 7.43205 2.4
      vertex 15.9175 7.2867 2.4
    endloop
  endfacet
  facet normal 0.555626 0.831432 0
    outer loop
      vertex 15.7 7.43205 2.4
      vertex 15.9175 7.2867 0
      vertex 15.7 7.43205 0
    endloop
  endfacet
  facet normal -0.997861 0.0653671 0
    outer loop
      vertex -16.7 5.7 0
      vertex -16.6829 5.96104 2.4
      vertex -16.6829 5.96104 0
    endloop
  endfacet
  facet normal -0.997861 0.0653671 0
    outer loop
      vertex -16.6829 5.96104 2.4
      vertex -16.7 5.7 0
      vertex -16.7 5.7 2.4
    endloop
  endfacet
  facet normal -0.980815 -0.19494 0
    outer loop
      vertex -16.6319 -6.21764 0
      vertex -16.6829 -5.96104 2.4
      vertex -16.6829 -5.96104 0
    endloop
  endfacet
  facet normal -0.980815 -0.19494 0
    outer loop
      vertex -16.6829 -5.96104 2.4
      vertex -16.6319 -6.21764 0
      vertex -16.6319 -6.21764 2.4
    endloop
  endfacet
  facet normal -0.997861 -0.0653671 0
    outer loop
      vertex -16.6829 -5.96104 0
      vertex -16.7 -5.7 2.4
      vertex -16.7 -5.7 0
    endloop
  endfacet
  facet normal -0.997861 -0.0653671 0
    outer loop
      vertex -16.7 -5.7 2.4
      vertex -16.6829 -5.96104 0
      vertex -16.6829 -5.96104 2.4
    endloop
  endfacet
  facet normal -1 0 0
    outer loop
      vertex -16.7 -5.7 0
      vertex -16.7 5.7 2.4
      vertex -16.7 5.7 0
    endloop
  endfacet
  facet normal -1 -0 0
    outer loop
      vertex -16.7 5.7 2.4
      vertex -16.7 -5.7 0
      vertex -16.7 -5.7 2.4
    endloop
  endfacet
  facet normal -0.0654151 -0.997858 0
    outer loop
      vertex -14.961 -7.68289 0
      vertex -14.7 -7.7 2.4
      vertex -14.961 -7.68289 2.4
    endloop
  endfacet
  facet normal -0.0654151 -0.997858 -0
    outer loop
      vertex -14.7 -7.7 2.4
      vertex -14.961 -7.68289 0
      vertex -14.7 -7.7 0
    endloop
  endfacet
  facet normal 0.195087 0.980786 -0
    outer loop
      vertex 15.2176 7.63185 0
      vertex 14.961 7.68289 2.4
      vertex 15.2176 7.63185 2.4
    endloop
  endfacet
  facet normal 0.195087 0.980786 0
    outer loop
      vertex 14.961 7.68289 2.4
      vertex 15.2176 7.63185 0
      vertex 14.961 7.68289 0
    endloop
  endfacet
  facet normal 0.321348 0.946961 -0
    outer loop
      vertex 15.4654 7.54776 0
      vertex 15.2176 7.63185 2.4
      vertex 15.4654 7.54776 2.4
    endloop
  endfacet
  facet normal 0.321348 0.946961 0
    outer loop
      vertex 15.2176 7.63185 2.4
      vertex 15.4654 7.54776 0
      vertex 15.2176 7.63185 0
    endloop
  endfacet
  facet normal 0.442344 0.896845 -0
    outer loop
      vertex 15.7 7.43205 0
      vertex 15.4654 7.54776 2.4
      vertex 15.7 7.43205 2.4
    endloop
  endfacet
  facet normal 0.442344 0.896845 0
    outer loop
      vertex 15.4654 7.54776 2.4
      vertex 15.7 7.43205 0
      vertex 15.4654 7.54776 0
    endloop
  endfacet
  facet normal -0.442344 0.896845 0
    outer loop
      vertex -15.4654 7.54776 0
      vertex -15.7 7.43205 2.4
      vertex -15.4654 7.54776 2.4
    endloop
  endfacet
  facet normal -0.442344 0.896845 0
    outer loop
      vertex -15.7 7.43205 2.4
      vertex -15.4654 7.54776 0
      vertex -15.7 7.43205 0
    endloop
  endfacet
  facet normal -0.946918 0.321475 0
    outer loop
      vertex -16.6319 6.21764 0
      vertex -16.5478 6.46536 2.4
      vertex -16.5478 6.46536 0
    endloop
  endfacet
  facet normal -0.946918 0.321475 0
    outer loop
      vertex -16.5478 6.46536 2.4
      vertex -16.6319 6.21764 0
      vertex -16.6319 6.21764 2.4
    endloop
  endfacet
  facet normal -0.980815 0.19494 0
    outer loop
      vertex -16.6829 5.96104 0
      vertex -16.6319 6.21764 2.4
      vertex -16.6319 6.21764 0
    endloop
  endfacet
  facet normal -0.980815 0.19494 0
    outer loop
      vertex -16.6319 6.21764 2.4
      vertex -16.6829 5.96104 0
      vertex -16.6829 5.96104 2.4
    endloop
  endfacet
  facet normal -0.659321 -0.751861 0
    outer loop
      vertex -16.1142 -7.11421 0
      vertex -15.9175 -7.2867 2.4
      vertex -16.1142 -7.11421 2.4
    endloop
  endfacet
  facet normal -0.659321 -0.751861 -0
    outer loop
      vertex -15.9175 -7.2867 2.4
      vertex -16.1142 -7.11421 0
      vertex -15.9175 -7.2867 0
    endloop
  endfacet
  facet normal -0.831379 -0.555705 0
    outer loop
      vertex -16.2867 -6.91753 0
      vertex -16.4321 -6.7 2.4
      vertex -16.4321 -6.7 0
    endloop
  endfacet
  facet normal -0.831379 -0.555705 0
    outer loop
      vertex -16.4321 -6.7 2.4
      vertex -16.2867 -6.91753 0
      vertex -16.2867 -6.91753 2.4
    endloop
  endfacet
  facet normal 0.997861 0.0653671 0
    outer loop
      vertex 16.7 5.7 2.4
      vertex 16.6829 5.96104 0
      vertex 16.6829 5.96104 2.4
    endloop
  endfacet
  facet normal 0.997861 0.0653671 0
    outer loop
      vertex 16.6829 5.96104 0
      vertex 16.7 5.7 2.4
      vertex 16.7 5.7 0
    endloop
  endfacet
  facet normal 0.321348 -0.946961 0
    outer loop
      vertex 15.2176 -7.63185 0
      vertex 15.4654 -7.54776 2.4
      vertex 15.2176 -7.63185 2.4
    endloop
  endfacet
  facet normal 0.321348 -0.946961 0
    outer loop
      vertex 15.4654 -7.54776 2.4
      vertex 15.2176 -7.63185 0
      vertex 15.4654 -7.54776 0
    endloop
  endfacet
  facet normal -0.89689 0.442253 0
    outer loop
      vertex -16.5478 6.46536 0
      vertex -16.4321 6.7 2.4
      vertex -16.4321 6.7 0
    endloop
  endfacet
  facet normal -0.89689 0.442253 0
    outer loop
      vertex -16.4321 6.7 2.4
      vertex -16.5478 6.46536 0
      vertex -16.5478 6.46536 2.4
    endloop
  endfacet
  facet normal -0.751809 -0.659381 0
    outer loop
      vertex -16.1142 -7.11421 0
      vertex -16.2867 -6.91753 2.4
      vertex -16.2867 -6.91753 0
    endloop
  endfacet
  facet normal -0.751809 -0.659381 0
    outer loop
      vertex -16.2867 -6.91753 2.4
      vertex -16.1142 -7.11421 0
      vertex -16.1142 -7.11421 2.4
    endloop
  endfacet
  facet normal -0.89689 -0.442253 0
    outer loop
      vertex -16.4321 -6.7 0
      vertex -16.5478 -6.46536 2.4
      vertex -16.5478 -6.46536 0
    endloop
  endfacet
  facet normal -0.89689 -0.442253 0
    outer loop
      vertex -16.5478 -6.46536 2.4
      vertex -16.4321 -6.7 0
      vertex -16.4321 -6.7 2.4
    endloop
  endfacet
  facet normal 0.89689 0.442253 0
    outer loop
      vertex 16.5478 6.46536 2.4
      vertex 16.4321 6.7 0
      vertex 16.4321 6.7 2.4
    endloop
  endfacet
  facet normal 0.89689 0.442253 0
    outer loop
      vertex 16.4321 6.7 0
      vertex 16.5478 6.46536 2.4
      vertex 16.5478 6.46536 0
    endloop
  endfacet
  facet normal 0.997861 -0.0653671 0
    outer loop
      vertex 16.6829 -5.96104 2.4
      vertex 16.7 -5.7 0
      vertex 16.7 -5.7 2.4
    endloop
  endfacet
  facet normal 0.997861 -0.0653671 0
    outer loop
      vertex 16.7 -5.7 0
      vertex 16.6829 -5.96104 2.4
      vertex 16.6829 -5.96104 0
    endloop
  endfacet
  facet normal 0.751809 -0.659381 0
    outer loop
      vertex 16.1142 -7.11421 2.4
      vertex 16.2867 -6.91753 0
      vertex 16.2867 -6.91753 2.4
    endloop
  endfacet
  facet normal 0.751809 -0.659381 0
    outer loop
      vertex 16.2867 -6.91753 0
      vertex 16.1142 -7.11421 2.4
      vertex 16.1142 -7.11421 0
    endloop
  endfacet
  facet normal 0.442344 -0.896845 0
    outer loop
      vertex 15.4654 -7.54776 0
      vertex 15.7 -7.43205 2.4
      vertex 15.4654 -7.54776 2.4
    endloop
  endfacet
  facet normal 0.442344 -0.896845 0
    outer loop
      vertex 15.7 -7.43205 2.4
      vertex 15.4654 -7.54776 0
      vertex 15.7 -7.43205 0
    endloop
  endfacet
  facet normal -0.555626 0.831432 0
    outer loop
      vertex -15.7 7.43205 0
      vertex -15.9175 7.2867 2.4
      vertex -15.7 7.43205 2.4
    endloop
  endfacet
  facet normal -0.555626 0.831432 0
    outer loop
      vertex -15.9175 7.2867 2.4
      vertex -15.7 7.43205 0
      vertex -15.9175 7.2867 0
    endloop
  endfacet
  facet normal -0.321348 0.946961 0
    outer loop
      vertex -15.2176 7.63185 0
      vertex -15.4654 7.54776 2.4
      vertex -15.2176 7.63185 2.4
    endloop
  endfacet
  facet normal -0.321348 0.946961 0
    outer loop
      vertex -15.4654 7.54776 2.4
      vertex -15.2176 7.63185 0
      vertex -15.4654 7.54776 0
    endloop
  endfacet
  facet normal -0.195087 0.980786 0
    outer loop
      vertex -14.961 7.68289 0
      vertex -15.2176 7.63185 2.4
      vertex -14.961 7.68289 2.4
    endloop
  endfacet
  facet normal -0.195087 0.980786 0
    outer loop
      vertex -15.2176 7.63185 2.4
      vertex -14.961 7.68289 0
      vertex -15.2176 7.63185 0
    endloop
  endfacet
  facet normal -0.751809 0.659381 0
    outer loop
      vertex -16.2867 6.91753 0
      vertex -16.1142 7.11421 2.4
      vertex -16.1142 7.11421 0
    endloop
  endfacet
  facet normal -0.751809 0.659381 0
    outer loop
      vertex -16.1142 7.11421 2.4
      vertex -16.2867 6.91753 0
      vertex -16.2867 6.91753 2.4
    endloop
  endfacet
  facet normal -0.831379 0.555705 0
    outer loop
      vertex -16.4321 6.7 0
      vertex -16.2867 6.91753 2.4
      vertex -16.2867 6.91753 0
    endloop
  endfacet
  facet normal -0.831379 0.555705 0
    outer loop
      vertex -16.2867 6.91753 2.4
      vertex -16.4321 6.7 0
      vertex -16.4321 6.7 2.4
    endloop
  endfacet
  facet normal -0.946918 -0.321475 0
    outer loop
      vertex -16.5478 -6.46536 0
      vertex -16.6319 -6.21764 2.4
      vertex -16.6319 -6.21764 0
    endloop
  endfacet
  facet normal -0.946918 -0.321475 0
    outer loop
      vertex -16.6319 -6.21764 2.4
      vertex -16.5478 -6.46536 0
      vertex -16.5478 -6.46536 2.4
    endloop
  endfacet
  facet normal 0.659321 0.751861 -0
    outer loop
      vertex 16.1142 7.11421 0
      vertex 15.9175 7.2867 2.4
      vertex 16.1142 7.11421 2.4
    endloop
  endfacet
  facet normal 0.659321 0.751861 0
    outer loop
      vertex 15.9175 7.2867 2.4
      vertex 16.1142 7.11421 0
      vertex 15.9175 7.2867 0
    endloop
  endfacet
  facet normal 0.751809 0.659381 0
    outer loop
      vertex 16.2867 6.91753 2.4
      vertex 16.1142 7.11421 0
      vertex 16.1142 7.11421 2.4
    endloop
  endfacet
  facet normal 0.751809 0.659381 0
    outer loop
      vertex 16.1142 7.11421 0
      vertex 16.2867 6.91753 2.4
      vertex 16.2867 6.91753 0
    endloop
  endfacet
  facet normal 0.831379 0.555705 0
    outer loop
      vertex 16.4321 6.7 2.4
      vertex 16.2867 6.91753 0
      vertex 16.2867 6.91753 2.4
    endloop
  endfacet
  facet normal 0.831379 0.555705 0
    outer loop
      vertex 16.2867 6.91753 0
      vertex 16.4321 6.7 2.4
      vertex 16.4321 6.7 0
    endloop
  endfacet
  facet normal 0.946918 0.321475 0
    outer loop
      vertex 16.6319 6.21764 2.4
      vertex 16.5478 6.46536 0
      vertex 16.5478 6.46536 2.4
    endloop
  endfacet
  facet normal 0.946918 0.321475 0
    outer loop
      vertex 16.5478 6.46536 0
      vertex 16.6319 6.21764 2.4
      vertex 16.6319 6.21764 0
    endloop
  endfacet
  facet normal 0.980815 0.19494 0
    outer loop
      vertex 16.6829 5.96104 2.4
      vertex 16.6319 6.21764 0
      vertex 16.6319 6.21764 2.4
    endloop
  endfacet
  facet normal 0.980815 0.19494 0
    outer loop
      vertex 16.6319 6.21764 0
      vertex 16.6829 5.96104 2.4
      vertex 16.6829 5.96104 0
    endloop
  endfacet
  facet normal 0.946918 -0.321475 0
    outer loop
      vertex 16.5478 -6.46536 2.4
      vertex 16.6319 -6.21764 0
      vertex 16.6319 -6.21764 2.4
    endloop
  endfacet
  facet normal 0.946918 -0.321475 0
    outer loop
      vertex 16.6319 -6.21764 0
      vertex 16.5478 -6.46536 2.4
      vertex 16.5478 -6.46536 0
    endloop
  endfacet
  facet normal 0.980815 -0.19494 0
    outer loop
      vertex 16.6319 -6.21764 2.4
      vertex 16.6829 -5.96104 0
      vertex 16.6829 -5.96104 2.4
    endloop
  endfacet
  facet normal 0.980815 -0.19494 0
    outer loop
      vertex 16.6829 -5.96104 0
      vertex 16.6319 -6.21764 2.4
      vertex 16.6319 -6.21764 0
    endloop
  endfacet
  facet normal 0.659321 -0.751861 0
    outer loop
      vertex 15.9175 -7.2867 0
      vertex 16.1142 -7.11421 2.4
      vertex 15.9175 -7.2867 2.4
    endloop
  endfacet
  facet normal 0.659321 -0.751861 0
    outer loop
      vertex 16.1142 -7.11421 2.4
      vertex 15.9175 -7.2867 0
      vertex 16.1142 -7.11421 0
    endloop
  endfacet
  facet normal 0.555626 -0.831432 0
    outer loop
      vertex 15.7 -7.43205 0
      vertex 15.9175 -7.2867 2.4
      vertex 15.7 -7.43205 2.4
    endloop
  endfacet
  facet normal 0.555626 -0.831432 0
    outer loop
      vertex 15.9175 -7.2867 2.4
      vertex 15.7 -7.43205 0
      vertex 15.9175 -7.2867 0
    endloop
  endfacet
  facet normal 0.831379 -0.555705 0
    outer loop
      vertex 16.2867 -6.91753 2.4
      vertex 16.4321 -6.7 0
      vertex 16.4321 -6.7 2.4
    endloop
  endfacet
  facet normal 0.831379 -0.555705 0
    outer loop
      vertex 16.4321 -6.7 0
      vertex 16.2867 -6.91753 2.4
      vertex 16.2867 -6.91753 0
    endloop
  endfacet
  facet normal 0.89689 -0.442253 0
    outer loop
      vertex 16.4321 -6.7 2.4
      vertex 16.5478 -6.46536 0
      vertex 16.5478 -6.46536 2.4
    endloop
  endfacet
  facet normal 0.89689 -0.442253 0
    outer loop
      vertex 16.5478 -6.46536 0
      vertex 16.4321 -6.7 2.4
      vertex 16.4321 -6.7 0
    endloop
  endfacet
endsolid OpenSCAD_Model
